<?xml version="1.0" encoding="UTF-8" standalone="no"?>
<!-- Created with Inkscape (http://www.inkscape.org/) -->

<svg
   xmlns:dc="http://purl.org/dc/elements/1.1/"
   xmlns:cc="http://creativecommons.org/ns#"
   xmlns:rdf="http://www.w3.org/1999/02/22-rdf-syntax-ns#"
   xmlns:svg="http://www.w3.org/2000/svg"
   xmlns="http://www.w3.org/2000/svg"
   xmlns:sodipodi="http://sodipodi.sourceforge.net/DTD/sodipodi-0.dtd"
   xmlns:inkscape="http://www.inkscape.org/namespaces/inkscape"
   id="svg4283"
   version="1.1"
   inkscape:version="0.91 r13725"
   xml:space="preserve"
   width="726.6377"
   height="444.03018"
   viewBox="0 0 726.6377 444.03018"
   sodipodi:docname="demo_threshold_2.svg"><metadata
     id="metadata4289"><rdf:RDF><cc:Work
         rdf:about=""><dc:format>image/svg+xml</dc:format><dc:type
           rdf:resource="http://purl.org/dc/dcmitype/StillImage" /><dc:title /></cc:Work></rdf:RDF></metadata><defs
     id="defs4287"><clipPath
       clipPathUnits="userSpaceOnUse"
       id="clipPath4301"><path
         d="m 90,54 558,0 0,326.16 -558,0 L 90,54 Z"
         id="path4303"
         inkscape:connector-curvature="0" /></clipPath><clipPath
       clipPathUnits="userSpaceOnUse"
       id="clipPath4311"><path
         d="m 90,54 558,0 0,326.16 -558,0 L 90,54 Z"
         id="path4313"
         inkscape:connector-curvature="0" /></clipPath><clipPath
       clipPathUnits="userSpaceOnUse"
       id="clipPath4333"><path
         d="m -1021,-463 2815,0 0,1696 -2815,0 0,-1696 z"
         id="path4335"
         inkscape:connector-curvature="0" /></clipPath><clipPath
       clipPathUnits="userSpaceOnUse"
       id="clipPath4353"><path
         d="m -1021,-463 2815,0 0,1696 -2815,0 0,-1696 z"
         id="path4355"
         inkscape:connector-curvature="0" /></clipPath><clipPath
       clipPathUnits="userSpaceOnUse"
       id="clipPath4419"><path
         d="m -1021,-463 2815,0 0,1696 -2815,0 0,-1696 z"
         id="path4421"
         inkscape:connector-curvature="0" /></clipPath><clipPath
       clipPathUnits="userSpaceOnUse"
       id="clipPath4439"><path
         d="m -1021,-463 2815,0 0,1696 -2815,0 0,-1696 z"
         id="path4441"
         inkscape:connector-curvature="0" /></clipPath><clipPath
       clipPathUnits="userSpaceOnUse"
       id="clipPath4477"><path
         d="m 90,54 558,0 0,326.16 -558,0 L 90,54 Z"
         id="path4479"
         inkscape:connector-curvature="0" /></clipPath><clipPath
       clipPathUnits="userSpaceOnUse"
       id="clipPath4487"><path
         d="m 90,54 558,0 0,326.16 -558,0 L 90,54 Z"
         id="path4489"
         inkscape:connector-curvature="0" /></clipPath><clipPath
       clipPathUnits="userSpaceOnUse"
       id="clipPath4497"><path
         d="m 90,54 558,0 0,326.16 -558,0 L 90,54 Z"
         id="path4499"
         inkscape:connector-curvature="0" /></clipPath></defs><sodipodi:namedview
     pagecolor="#ffffff"
     bordercolor="#666666"
     borderopacity="1"
     objecttolerance="10"
     gridtolerance="10"
     guidetolerance="10"
     inkscape:pageopacity="0"
     inkscape:pageshadow="2"
     inkscape:window-width="1855"
     inkscape:window-height="1056"
     id="namedview4285"
     showgrid="false"
     inkscape:zoom="1.077945"
     inkscape:cx="48.069275"
     inkscape:cy="307.81701"
     inkscape:window-x="65"
     inkscape:window-y="24"
     inkscape:window-maximized="1"
     inkscape:current-layer="g4291"
     fit-margin-top="0"
     fit-margin-left="0"
     fit-margin-right="0"
     fit-margin-bottom="0" /><g
     id="g4291"
     inkscape:groupmode="layer"
     inkscape:label="demo_threshold"
     transform="matrix(1.25,0,0,-1.25,-68.907885,475.2)"><g
       id="g4297"><g
         id="g4299"
         clip-path="url(#clipPath4301)"><path
           d="m 115.36364,259.48391 0,-68.0651 5.12396,0.91781 5.12397,0.91676 5.12397,0.91563 5.12396,0.91439 5.12397,0.91305 5.12397,0.91158 5.12396,0.90998 5.12397,0.90822 5.12397,0.90628 5.12397,0.90415 5.12396,0.90178 5.12397,0.89917 5.12397,0.89624 5.12396,0.89298 5.12397,0.88932 5.12397,0.88519 5.12396,0.88052 5.12397,0.87522 5.12397,0.86915 5.12396,0.86219 5.12397,0.85416 5.12397,0.84482 5.12397,0.83392 5.12396,0.82111 5.12397,0.80595 5.12397,0.78792 5.12396,0.76632 5.12397,0.74028 5.12397,0.70877 5.12397,0.67048 5.12396,0.62392 5.12397,0.56744 5.12396,0.49944 5.12397,0.41872 5.12397,0.32505 5.12397,0.21976 5.12396,0.10611 5.12397,-0.0109 5.12397,-0.12548 5.12396,-0.23243 5.12397,-0.32815 5.12397,-0.41102 5.12396,-0.48106 5.12397,-0.53933 5.12397,-0.58742 5.12397,-0.62695 5.12396,-0.6595 5.12397,-0.68634 5.12397,-0.70862 5.12396,-0.7272 5.12397,-0.74278 5.12397,-0.75595 5.12396,-0.76713 5.12397,-0.77671 5.12397,-0.78494 5.12397,-0.79207 5.12396,-0.79826 5.12397,-0.80369 5.12397,-0.80846 5.12396,-0.81267 5.12397,-0.8164 5.12397,-0.81973 5.12396,-0.8227 5.12397,-0.82537 5.12397,-0.82777 5.12396,-0.82994 5.12397,-0.8319 5.12397,-0.8337 5.12396,-0.83532 5.12397,-0.83681 5.12397,-0.83818 5.12397,-0.83942 5.12396,-0.84058 5.12397,-0.84164 5.12397,-0.84263 5.12396,-0.84353 5.12397,-0.84437 5.12397,-0.84516 5.12396,-0.84589 5.12397,-0.84657 5.12397,-0.8472 5.12397,-0.8478 5.12396,-0.84835 5.12397,-0.84887 5.12397,-0.84937 5.12396,-0.84982 5.12397,-0.85026 5.12397,-0.85066 5.12396,-0.85106 5.12397,-0.85141 5.12397,-0.85176 5.12396,-0.85208 5.12397,-0.8524 5.12397,-0.85268 5.12397,-0.85297 5.12396,-0.85323 5.12397,-0.85347 5.12397,-0.85372 5.12396,-0.85394 0,112.15336 0,0 -5.12396,-0.92995 -5.12397,-0.92972 -5.12397,-0.92948 -5.12396,-0.92923 -5.12397,-0.92897 -5.12397,-0.92869 -5.12397,-0.9284 -5.12396,-0.92809 -5.12397,-0.92776 -5.12397,-0.92742 -5.12396,-0.92706 -5.12397,-0.92666 -5.12397,-0.92627 -5.12396,-0.92583 -5.12397,-0.92536 -5.12397,-0.92488 -5.12396,-0.92436 -5.12397,-0.9238 -5.12397,-0.92321 -5.12397,-0.92257 -5.12396,-0.92189 -5.12397,-0.92116 -5.12397,-0.92038 -5.12396,-0.91954 -5.12397,-0.91862 -5.12397,-0.91765 -5.12396,-0.91658 -5.12397,-0.91543 -5.12397,-0.91418 -5.12397,-0.91282 -5.12396,-0.91132 -5.12397,-0.9097 -5.12397,-0.90791 -5.12396,-0.90595 -5.12397,-0.90377 -5.12397,-0.90137 -5.12396,-0.89871 -5.12397,-0.89573 -5.12397,-0.8924 -5.12396,-0.88867 -5.12397,-0.88447 -5.12397,-0.87969 -5.12396,-0.87427 -5.12397,-0.86807 -5.12397,-0.86095 -5.12397,-0.85271 -5.12396,-0.84314 -5.12397,-0.83195 -5.12397,-0.81879 -5.12396,-0.8032 -5.12397,-0.78462 -5.12397,-0.76235 -5.12396,-0.7355 -5.12397,-0.70296 -5.12397,-0.66341 -5.12397,-0.61534 -5.12396,-0.55706 -5.12397,-0.48703 -5.12397,-0.40415 -5.12396,-0.30844 -5.12397,-0.20148 -5.12397,-0.0869 -5.12396,0.0301 -5.12397,0.14376 -5.12397,0.24905 -5.12397,0.34271 -5.12396,0.42343 -5.12397,0.49144 -5.12396,0.54792 -5.12397,0.59447 -5.12397,0.63277 -5.12397,0.66428 -5.12396,0.69031 -5.12397,0.71191 -5.12397,0.72995 -5.12396,0.74511 -5.12397,0.75792 -5.12397,0.76881 -5.12397,0.77815 -5.12396,0.78619 -5.12397,0.79315 -5.12397,0.79921 -5.12396,0.80452 -5.12397,0.80919 -5.12397,0.81331 -5.12396,0.81698 -5.12397,0.82024 -5.12397,0.82316 -5.12396,0.82578 -5.12397,0.82814 -5.12397,0.83028 -5.12397,0.83221 -5.12396,0.83398 -5.12397,0.83557 -5.12397,0.83705 -5.12396,0.83839 -5.12397,0.83962 -5.12397,0.84076 -5.12396,0.84181 z"
           style="fill:#008000;fill-opacity:0.5;fill-rule:nonzero;stroke:none"
           id="path4305"
           inkscape:connector-curvature="0" /></g></g><g
       id="g4307"><g
         id="g4309"
         clip-path="url(#clipPath4311)"><path
           d="m 115.36364,180.65542 0,-111.829965 5.12396,2.97651 5.12397,2.976275 5.12397,2.976026 5.12396,2.975766 5.12397,2.97549 5.12397,2.975202 5.12396,2.974897 5.12397,2.974575 5.12397,2.974236 5.12397,2.973876 5.12396,2.973492 5.12397,2.9731 5.12397,2.97267 5.12396,2.97221 5.12397,2.97173 5.12397,2.97122 5.12396,2.97067 5.12397,2.97009 5.12397,2.96946 5.12396,2.9688 5.12397,2.96808 5.12397,2.96732 5.12397,2.96649 5.12396,2.9656 5.12397,2.96464 5.12397,2.96361 5.12396,2.96248 5.12397,2.96126 5.12397,2.95993 5.12397,2.95849 5.12396,2.9569 5.12397,2.95517 5.12396,2.95327 5.12397,2.95116 5.12397,2.94885 5.12397,2.94627 5.12396,2.94341 5.12397,2.94021 5.12397,2.93663 5.12396,2.9326 5.12397,2.92804 5.12397,2.92286 5.12396,2.91697 5.12397,2.91021 5.12397,2.90241 5.12397,2.89338 5.12396,2.88285 5.12397,2.87049 5.12397,2.85591 5.12396,2.8386 5.12397,2.81788 5.12397,2.79299 5.12396,2.7629 5.12397,2.7264 5.12397,2.68202 5.12397,2.62817 5.12396,2.56321 5.12397,2.48578 5.12397,2.39535 5.12396,2.29274 5.12397,2.18067 5.12397,2.06371 5.12396,1.94753 5.12397,1.83762 5.12397,1.73809 5.12396,1.65114 5.12397,1.57714 5.12397,1.51531 5.12396,1.46417 5.12397,1.42206 5.12397,1.3874 5.12397,1.35882 5.12396,1.33514 5.12397,1.31541 5.12397,1.29888 5.12396,1.28494 5.12397,1.27312 5.12397,1.26301 5.12396,1.25434 5.12397,1.24683 5.12397,1.24032 5.12397,1.23463 5.12396,1.22963 5.12397,1.22523 5.12397,1.22131 5.12396,1.21785 5.12397,1.21474 5.12397,1.21196 5.12396,1.20946 5.12397,1.2072 5.12397,1.20516 5.12396,1.2033 5.12397,1.2016 5.12397,1.20007 5.12397,1.19864 5.12396,1.19736 5.12397,1.19615 5.12397,1.19506 5.12396,1.19405 0,69.45221 0,0 -5.12396,-2.9649 -5.12397,-2.96389 -5.12397,-2.96279 -5.12396,-2.9616 -5.12397,-2.9603 -5.12397,-2.95889 -5.12397,-2.95734 -5.12396,-2.95565 -5.12397,-2.9538 -5.12397,-2.95174 -5.12396,-2.9495 -5.12397,-2.94698 -5.12397,-2.94421 -5.12396,-2.94111 -5.12397,-2.93763 -5.12397,-2.93372 -5.12396,-2.92932 -5.12397,-2.92432 -5.12397,-2.91863 -5.12397,-2.91212 -5.12396,-2.90461 -5.12397,-2.89594 -5.12397,-2.88583 -5.12396,-2.87401 -5.12397,-2.86006 -5.12397,-2.84354 -5.12396,-2.82382 -5.12397,-2.80013 -5.12397,-2.77154 -5.12397,-2.73689 -5.12396,-2.69479 -5.12397,-2.64363 -5.12397,-2.58181 -5.12396,-2.50781 -5.12397,-2.42086 -5.12397,-2.32133 -5.12396,-2.21142 -5.12397,-2.09524 -5.12397,-1.97828 -5.12396,-1.86621 -5.12397,-1.7636 -5.12397,-1.67317 -5.12396,-1.59574 -5.12397,-1.53078 -5.12397,-1.47692 -5.12397,-1.43256 -5.12396,-1.39605 -5.12397,-1.36596 -5.12397,-1.34106 -5.12396,-1.32036 -5.12397,-1.30303 -5.12397,-1.28846 -5.12396,-1.2761 -5.12397,-1.26557 -5.12397,-1.25654 -5.12397,-1.24874 -5.12396,-1.24198 -5.12397,-1.23608 -5.12397,-1.23091 -5.12396,-1.22636 -5.12397,-1.22232 -5.12397,-1.21873 -5.12396,-1.21555 -5.12397,-1.21267 -5.12397,-1.21011 -5.12397,-1.20778 -5.12396,-1.20569 -5.12397,-1.20378 -5.12396,-1.20204 -5.12397,-1.20046 -5.12397,-1.19902 -5.12397,-1.19769 -5.12396,-1.19647 -5.12397,-1.19534 -5.12397,-1.19431 -5.12396,-1.19335 -5.12397,-1.19246 -5.12397,-1.19163 -5.12397,-1.19087 -5.12396,-1.19015 -5.12397,-1.18948 -5.12397,-1.18887 -5.12396,-1.18827 -5.12397,-1.18773 -5.12397,-1.18722 -5.12396,-1.18674 -5.12397,-1.18628 -5.12397,-1.18586 -5.12396,-1.18545 -5.12397,-1.18507 -5.12397,-1.18472 -5.12397,-1.18437 -5.12396,-1.18405 -5.12397,-1.18375 -5.12397,-1.18346 -5.12396,-1.18318 -5.12397,-1.18293 -5.12397,-1.18267 -5.12396,-1.18244 z"
           style="fill:#ff0000;fill-opacity:0.5;fill-rule:nonzero;stroke:none"
           id="path4315"
           inkscape:connector-curvature="0" /></g></g><path
       inkscape:connector-curvature="0"
       id="path4319"
       style="fill:#000000;fill-opacity:1;fill-rule:nonzero;stroke:#000000;stroke-width:1.60000002;stroke-linecap:butt;stroke-linejoin:round;stroke-miterlimit:9;stroke-dasharray:none;stroke-opacity:1"
       d="m 115.36364,54 0,-3.5" /><path
       inkscape:connector-curvature="0"
       id="path4359"
       style="fill:#000000;fill-opacity:1;fill-rule:nonzero;stroke:#000000;stroke-width:1.60000002;stroke-linecap:butt;stroke-linejoin:round;stroke-miterlimit:9;stroke-dasharray:none;stroke-opacity:1"
       d="m 242.18182,54 0,-3.5" /><path
       inkscape:connector-curvature="0"
       id="path4371"
       style="fill:#000000;fill-opacity:1;fill-rule:nonzero;stroke:#000000;stroke-width:1.60000002;stroke-linecap:butt;stroke-linejoin:round;stroke-miterlimit:9;stroke-dasharray:none;stroke-opacity:1"
       d="m 369,54 0,-3.5" /><path
       inkscape:connector-curvature="0"
       id="path4383"
       style="fill:#000000;fill-opacity:1;fill-rule:nonzero;stroke:#000000;stroke-width:1.60000002;stroke-linecap:butt;stroke-linejoin:round;stroke-miterlimit:9;stroke-dasharray:none;stroke-opacity:1"
       d="m 495.81818,54 0,-3.5" /><path
       inkscape:connector-curvature="0"
       id="path4395"
       style="fill:#000000;fill-opacity:1;fill-rule:nonzero;stroke:#000000;stroke-width:1.60000002;stroke-linecap:butt;stroke-linejoin:round;stroke-miterlimit:9;stroke-dasharray:none;stroke-opacity:1"
       d="m 622.63636,54 0,-3.5" /><path
       inkscape:connector-curvature="0"
       id="path4425"
       style="fill:#000000;fill-opacity:1;fill-rule:nonzero;stroke:#000000;stroke-width:1.60000002;stroke-linecap:butt;stroke-linejoin:round;stroke-miterlimit:8.5;stroke-dasharray:none;stroke-opacity:1"
       d="m 90,121.06279 -3.5,0" /><path
       inkscape:connector-curvature="0"
       id="path4451"
       style="fill:#000000;fill-opacity:1;fill-rule:nonzero;stroke:#000000;stroke-width:1.60000002;stroke-linecap:butt;stroke-linejoin:round;stroke-miterlimit:8.5;stroke-dasharray:none;stroke-opacity:1"
       d="m 90,226.918 -3.5,0" /><path
       inkscape:connector-curvature="0"
       id="path4463"
       style="fill:#000000;fill-opacity:1;fill-rule:nonzero;stroke:#000000;stroke-width:1.60000002;stroke-linecap:butt;stroke-linejoin:round;stroke-miterlimit:8.5;stroke-dasharray:none;stroke-opacity:1"
       d="m 90,332.77322 -3.5,0" /><g
       id="g4473"><g
         id="g4475"
         clip-path="url(#clipPath4477)"><path
           d="m 115.36364,225.45136 5.12396,0.038 5.12397,0.038 5.12397,0.038 5.12396,0.038 5.12397,0.038 5.12397,0.038 5.12396,0.038 5.12397,0.038 5.12397,0.038 5.12397,0.038 5.12396,0.038 5.12397,0.038 5.12397,0.038 5.12396,0.038 5.12397,0.038 5.12397,0.038 5.12396,0.038 5.12397,0.038 5.12397,0.038 5.12396,0.038 5.12397,0.038 5.12397,0.038 5.12397,0.038 5.12396,0.038 5.12397,0.038 5.12397,0.038 5.12396,0.038 5.12397,0.038 5.12397,0.038 5.12397,0.038 5.12396,0.038 5.12397,0.038 5.12396,0.038 5.12397,0.038 5.12397,0.038 5.12397,0.038 5.12396,0.038 5.12397,0.038 5.12397,0.038 5.12396,0.038 5.12397,0.038 5.12397,0.038 5.12396,0.038 5.12397,0.038 5.12397,0.038 5.12397,0.038 5.12396,0.038 5.12397,0.038 5.12397,0.038 5.12396,0.038 5.12397,0.038 5.12397,0.038 5.12396,0.038 5.12397,0.038 5.12397,0.038 5.12397,0.038 5.12396,0.038 5.12397,0.038 5.12397,0.038 5.12396,0.038 5.12397,0.038 5.12397,0.038 5.12396,0.038 5.12397,0.038 5.12397,0.038 5.12396,0.038 5.12397,0.038 5.12397,0.038 5.12396,0.038 5.12397,0.038 5.12397,0.038 5.12397,0.038 5.12396,0.038 5.12397,0.038 5.12397,0.038 5.12396,0.038 5.12397,0.038 5.12397,0.038 5.12396,0.038 5.12397,0.038 5.12397,0.038 5.12397,0.038 5.12396,0.038 5.12397,0.038 5.12397,0.038 5.12396,0.038 5.12397,0.038 5.12397,0.038 5.12396,0.038 5.12397,0.038 5.12397,0.038 5.12396,0.038 5.12397,0.038 5.12397,0.038 5.12397,0.038 5.12396,0.038 5.12397,0.038 5.12397,0.038 5.12396,0.038"
           style="fill:none;stroke:#000000;stroke-width:1.5;stroke-linecap:square;stroke-linejoin:round;stroke-miterlimit:10;stroke-dasharray:none;stroke-opacity:1"
           id="path4481"
           inkscape:connector-curvature="0" /></g></g><g
       id="g4483"><g
         id="g4485"
         clip-path="url(#clipPath4487)"><path
           d="m 115.36364,124.74044 5.12396,2.07947 5.12397,2.07948 5.12397,2.07947 5.12396,2.07948 5.12397,2.07947 5.12397,2.07948 5.12396,2.07947 5.12397,2.07947 5.12397,2.07948 5.12397,2.07947 5.12396,2.07948 5.12397,2.07947 5.12397,2.07948 5.12396,2.07947 5.12397,2.07948 5.12397,2.07947 5.12396,2.07948 5.12397,2.07947 5.12397,2.07948 5.12396,2.07947 5.12397,2.07948 5.12397,2.07947 5.12397,2.07948 5.12396,2.07947 5.12397,2.07948 5.12397,2.07947 5.12396,2.07947 5.12397,2.07948 5.12397,2.07947 5.12397,2.07948 5.12396,2.07947 5.12397,2.07948 5.12396,2.07947 5.12397,2.07948 5.12397,2.07947 5.12397,2.07948 5.12396,2.07947 5.12397,2.07948 5.12397,2.07947 5.12396,2.07948 5.12397,2.07947 5.12397,2.07948 5.12396,2.07947 5.12397,2.07948 5.12397,2.07947 5.12397,2.07947 5.12396,2.07948 5.12397,2.07947 5.12397,2.07948 5.12396,2.07947 5.12397,2.07948 5.12397,2.07947 5.12396,2.07948 5.12397,2.07947 5.12397,2.07948 5.12397,2.07947 5.12396,2.07948 5.12397,2.07947 5.12397,2.07948 5.12396,2.07947 5.12397,2.07948 5.12397,2.07947 5.12396,2.07948 5.12397,2.07947 5.12397,2.07947 5.12396,2.07948 5.12397,2.07947 5.12397,2.07948 5.12396,2.07947 5.12397,2.07948 5.12397,2.07947 5.12397,2.07948 5.12396,2.07947 5.12397,2.07948 5.12397,2.07947 5.12396,2.07948 5.12397,2.07947 5.12397,2.07948 5.12396,2.07947 5.12397,2.07948 5.12397,2.07947 5.12397,2.07948 5.12396,2.07947 5.12397,2.07947 5.12397,2.07948 5.12396,2.07947 5.12397,2.07948 5.12397,2.07947 5.12396,2.07948 5.12397,2.07947 5.12397,2.07948 5.12396,2.07947 5.12397,2.07948 5.12397,2.07947 5.12397,2.07948 5.12396,2.07947 5.12397,2.07948 5.12397,2.07947 5.12396,2.07948"
           style="fill:none;stroke:#000000;stroke-width:1.5;stroke-linecap:square;stroke-linejoin:round;stroke-miterlimit:10;stroke-dasharray:none;stroke-opacity:1"
           id="path4491"
           inkscape:connector-curvature="0" /></g></g><path
       style="fill:none;fill-rule:evenodd;stroke:#000000;stroke-width:1.60000002;stroke-linecap:butt;stroke-linejoin:miter;stroke-miterlimit:8.5;stroke-dasharray:none;stroke-opacity:1"
       d="m 89.737608,120.69971 0,212.53644"
       id="path4582"
       inkscape:connector-curvature="0" /><text
       xml:space="preserve"
       style="font-style:normal;font-weight:normal;font-size:20.66767311px;line-height:125%;font-family:sans-serif;letter-spacing:0px;word-spacing:0px;fill:#000000;fill-opacity:1;stroke:none;stroke-width:1px;stroke-linecap:butt;stroke-linejoin:miter;stroke-opacity:1"
       x="191.52841"
       y="70.828896"
       id="text4584"
       sodipodi:linespacing="125%"
       transform="matrix(0,1,1,0,0,0)"><tspan
         sodipodi:role="line"
         id="tspan4586"
         x="191.52841"
         y="70.828896">reward</tspan></text>
<path
       style="fill:none;fill-rule:evenodd;stroke:#000000;stroke-width:1.60000002;stroke-linecap:butt;stroke-linejoin:miter;stroke-miterlimit:9;stroke-dasharray:none;stroke-opacity:1"
       d="m 115.4519,54.05248 507.98833,0"
       id="path4588"
       inkscape:connector-curvature="0" /><text
       xml:space="preserve"
       style="font-style:normal;font-weight:normal;font-size:13px;line-height:125%;font-family:sans-serif;letter-spacing:0px;word-spacing:0px;fill:#000000;fill-opacity:1;stroke:none;stroke-width:1px;stroke-linecap:butt;stroke-linejoin:miter;stroke-opacity:1"
       x="91.284805"
       y="-25.233208"
       id="text4590"
       sodipodi:linespacing="125%"
       transform="scale(1,-1)"><tspan
         sodipodi:role="line"
         id="tspan4592"
         x="91.284805"
         y="-25.233208"
         style="font-size:21px">-0.5</tspan></text>
<text
       xml:space="preserve"
       style="font-style:normal;font-weight:normal;font-size:13px;line-height:125%;font-family:sans-serif;letter-spacing:0px;word-spacing:0px;fill:#000000;fill-opacity:1;stroke:none;stroke-width:1px;stroke-linecap:butt;stroke-linejoin:miter;stroke-opacity:1"
       x="604.85443"
       y="-25.233208"
       id="text4590-3"
       sodipodi:linespacing="125%"
       transform="scale(1,-1)"><tspan
         sodipodi:role="line"
         id="tspan4592-6"
         x="604.85443"
         y="-25.233208"
         style="font-size:21px">1.5</tspan></text>
<text
       xml:space="preserve"
       style="font-style:normal;font-weight:normal;font-size:13px;line-height:125%;font-family:sans-serif;letter-spacing:0px;word-spacing:0px;fill:#000000;fill-opacity:1;stroke:none;stroke-width:1px;stroke-linecap:butt;stroke-linejoin:miter;stroke-opacity:1"
       x="477.78281"
       y="-25.233208"
       id="text4590-7"
       sodipodi:linespacing="125%"
       transform="scale(1,-1)"><tspan
         sodipodi:role="line"
         id="tspan4592-5"
         x="477.78281"
         y="-25.233208"
         style="font-size:21px">1.0</tspan></text>
<text
       xml:space="preserve"
       style="font-style:normal;font-weight:normal;font-size:13px;line-height:125%;font-family:sans-serif;letter-spacing:0px;word-spacing:0px;fill:#000000;fill-opacity:1;stroke:none;stroke-width:1px;stroke-linecap:butt;stroke-linejoin:miter;stroke-opacity:1"
       x="352.24329"
       y="-25.233208"
       id="text4590-35"
       sodipodi:linespacing="125%"
       transform="scale(1,-1)"><tspan
         sodipodi:role="line"
         id="tspan4592-62"
         x="352.24329"
         y="-25.233208"
         style="font-size:21px">0.5</tspan></text>
<text
       xml:space="preserve"
       style="font-style:normal;font-weight:normal;font-size:13px;line-height:125%;font-family:sans-serif;letter-spacing:0px;word-spacing:0px;fill:#000000;fill-opacity:1;stroke:none;stroke-width:1px;stroke-linecap:butt;stroke-linejoin:miter;stroke-opacity:1"
       x="235.05086"
       y="-25.233208"
       id="text4590-9"
       sodipodi:linespacing="125%"
       transform="scale(1,-1)"><tspan
         sodipodi:role="line"
         id="tspan4592-1"
         x="235.05086"
         y="-25.233208"
         style="font-size:21px">0</tspan></text>
<rect
       style="color:#000000;clip-rule:nonzero;display:inline;overflow:visible;visibility:visible;opacity:1;isolation:auto;mix-blend-mode:normal;color-interpolation:sRGB;color-interpolation-filters:linearRGB;solid-color:#000000;solid-opacity:1;fill:#4d4d4d;fill-opacity:0.41791047;fill-rule:evenodd;stroke:none;stroke-width:1.60000002;stroke-linecap:butt;stroke-linejoin:miter;stroke-miterlimit:9;stroke-dasharray:none;stroke-dashoffset:0;stroke-opacity:1;color-rendering:auto;image-rendering:auto;shape-rendering:auto;text-rendering:auto;enable-background:accumulate"
       id="rect5432"
       width="161.41182"
       height="325.91855"
       x="115.36803"
       y="-379.99234"
       transform="scale(1,-1)" /><rect
       style="color:#000000;clip-rule:nonzero;display:inline;overflow:visible;visibility:visible;opacity:1;isolation:auto;mix-blend-mode:normal;color-interpolation:sRGB;color-interpolation-filters:linearRGB;solid-color:#000000;solid-opacity:1;fill:#4d4d4d;fill-opacity:0.41791047;fill-rule:evenodd;stroke:none;stroke-width:1.60000002;stroke-linecap:butt;stroke-linejoin:miter;stroke-miterlimit:9;stroke-dasharray:none;stroke-dashoffset:0;stroke-opacity:1;color-rendering:auto;image-rendering:auto;shape-rendering:auto;text-rendering:auto;enable-background:accumulate"
       id="rect5432-3"
       width="161.66199"
       height="325.91855"
       x="461.21127"
       y="-379.99234"
       transform="scale(1,-1)" /><circle
       style="color:#000000;clip-rule:nonzero;display:inline;overflow:visible;visibility:visible;opacity:1;isolation:auto;mix-blend-mode:normal;color-interpolation:sRGB;color-interpolation-filters:linearRGB;solid-color:#000000;solid-opacity:1;fill:#000000;fill-opacity:1;fill-rule:evenodd;stroke:none;stroke-width:2;stroke-linecap:butt;stroke-linejoin:miter;stroke-miterlimit:9;stroke-dasharray:none;stroke-dashoffset:0;stroke-opacity:1;color-rendering:auto;image-rendering:auto;shape-rendering:auto;text-rendering:auto;enable-background:accumulate"
       id="path5449"
       cx="276.39554"
       cy="-218.25473"
       r="2.2951188"
       transform="scale(1,-1)" /><circle
       style="color:#000000;clip-rule:nonzero;display:inline;overflow:visible;visibility:visible;opacity:1;isolation:auto;mix-blend-mode:normal;color-interpolation:sRGB;color-interpolation-filters:linearRGB;solid-color:#000000;solid-opacity:1;fill:#000000;fill-opacity:1;fill-rule:evenodd;stroke:none;stroke-width:2;stroke-linecap:butt;stroke-linejoin:miter;stroke-miterlimit:9;stroke-dasharray:none;stroke-dashoffset:0;stroke-opacity:1;color-rendering:auto;image-rendering:auto;shape-rendering:auto;text-rendering:auto;enable-background:accumulate"
       id="path5449-7"
       cx="461.19162"
       cy="-255.73344"
       r="2.2951188"
       transform="scale(1,-1)" /></g></svg>