<?xml version="1.0" encoding="UTF-8" standalone="no"?>
<!-- Created with Inkscape (http://www.inkscape.org/) -->

<svg
   xmlns:dc="http://purl.org/dc/elements/1.1/"
   xmlns:cc="http://creativecommons.org/ns#"
   xmlns:rdf="http://www.w3.org/1999/02/22-rdf-syntax-ns#"
   xmlns:svg="http://www.w3.org/2000/svg"
   xmlns="http://www.w3.org/2000/svg"
   xmlns:sodipodi="http://sodipodi.sourceforge.net/DTD/sodipodi-0.dtd"
   xmlns:inkscape="http://www.inkscape.org/namespaces/inkscape"
   id="svg4283"
   version="1.1"
   inkscape:version="0.91 r13725"
   xml:space="preserve"
   width="726.6377"
   height="444.03018"
   viewBox="0 0 726.6377 444.03018"
   sodipodi:docname="demo_threshold_1.svg"><metadata
     id="metadata4289"><rdf:RDF><cc:Work
         rdf:about=""><dc:format>image/svg+xml</dc:format><dc:type
           rdf:resource="http://purl.org/dc/dcmitype/StillImage" /><dc:title></dc:title></cc:Work></rdf:RDF></metadata><defs
     id="defs4287"><clipPath
       clipPathUnits="userSpaceOnUse"
       id="clipPath4301"><path
         d="m 90,54 558,0 0,326.16 -558,0 L 90,54 Z"
         id="path4303"
         inkscape:connector-curvature="0" /></clipPath><clipPath
       clipPathUnits="userSpaceOnUse"
       id="clipPath4311"><path
         d="m 90,54 558,0 0,326.16 -558,0 L 90,54 Z"
         id="path4313"
         inkscape:connector-curvature="0" /></clipPath><clipPath
       clipPathUnits="userSpaceOnUse"
       id="clipPath4333"><path
         d="m -1021,-463 2815,0 0,1696 -2815,0 0,-1696 z"
         id="path4335"
         inkscape:connector-curvature="0" /></clipPath><clipPath
       clipPathUnits="userSpaceOnUse"
       id="clipPath4353"><path
         d="m -1021,-463 2815,0 0,1696 -2815,0 0,-1696 z"
         id="path4355"
         inkscape:connector-curvature="0" /></clipPath><clipPath
       clipPathUnits="userSpaceOnUse"
       id="clipPath4419"><path
         d="m -1021,-463 2815,0 0,1696 -2815,0 0,-1696 z"
         id="path4421"
         inkscape:connector-curvature="0" /></clipPath><clipPath
       clipPathUnits="userSpaceOnUse"
       id="clipPath4439"><path
         d="m -1021,-463 2815,0 0,1696 -2815,0 0,-1696 z"
         id="path4441"
         inkscape:connector-curvature="0" /></clipPath><clipPath
       clipPathUnits="userSpaceOnUse"
       id="clipPath4477"><path
         d="m 90,54 558,0 0,326.16 -558,0 L 90,54 Z"
         id="path4479"
         inkscape:connector-curvature="0" /></clipPath><clipPath
       clipPathUnits="userSpaceOnUse"
       id="clipPath4487"><path
         d="m 90,54 558,0 0,326.16 -558,0 L 90,54 Z"
         id="path4489"
         inkscape:connector-curvature="0" /></clipPath><clipPath
       clipPathUnits="userSpaceOnUse"
       id="clipPath4497"><path
         d="m 90,54 558,0 0,326.16 -558,0 L 90,54 Z"
         id="path4499"
         inkscape:connector-curvature="0" /></clipPath><clipPath
       clipPathUnits="userSpaceOnUse"
       id="clipPath4497-0"><path
         d="m 90,54 558,0 0,326.16 -558,0 L 90,54 Z"
         id="path4499-9"
         inkscape:connector-curvature="0" /></clipPath><clipPath
       clipPathUnits="userSpaceOnUse"
       id="clipPath4487-6"><path
         d="m 90,54 558,0 0,326.16 -558,0 L 90,54 Z"
         id="path4489-2"
         inkscape:connector-curvature="0" /></clipPath><clipPath
       clipPathUnits="userSpaceOnUse"
       id="clipPath4477-7"><path
         d="m 90,54 558,0 0,326.16 -558,0 L 90,54 Z"
         id="path4479-9"
         inkscape:connector-curvature="0" /></clipPath></defs><sodipodi:namedview
     pagecolor="#ffffff"
     bordercolor="#666666"
     borderopacity="1"
     objecttolerance="10"
     gridtolerance="10"
     guidetolerance="10"
     inkscape:pageopacity="0"
     inkscape:pageshadow="2"
     inkscape:window-width="1855"
     inkscape:window-height="1056"
     id="namedview4285"
     showgrid="false"
     inkscape:zoom="1.077945"
     inkscape:cx="435.3902"
     inkscape:cy="163.63122"
     inkscape:window-x="65"
     inkscape:window-y="24"
     inkscape:window-maximized="1"
     inkscape:current-layer="g4291"
     fit-margin-top="0"
     fit-margin-left="0"
     fit-margin-right="0"
     fit-margin-bottom="0" /><g
     id="g4291"
     inkscape:groupmode="layer"
     inkscape:label="demo_threshold"
     transform="matrix(1.25,0,0,-1.25,-68.907885,475.2)"><path
       inkscape:connector-curvature="0"
       id="path4319"
       style="fill:#000000;fill-opacity:1;fill-rule:nonzero;stroke:#000000;stroke-width:1.60000002;stroke-linecap:butt;stroke-linejoin:round;stroke-miterlimit:9;stroke-dasharray:none;stroke-opacity:1"
       d="m 115.36364,54 0,-3.5" /><path
       inkscape:connector-curvature="0"
       id="path4359"
       style="fill:#000000;fill-opacity:1;fill-rule:nonzero;stroke:#000000;stroke-width:1.60000002;stroke-linecap:butt;stroke-linejoin:round;stroke-miterlimit:9;stroke-dasharray:none;stroke-opacity:1"
       d="m 242.18182,54 0,-3.5" /><path
       inkscape:connector-curvature="0"
       id="path4371"
       style="fill:#000000;fill-opacity:1;fill-rule:nonzero;stroke:#000000;stroke-width:1.60000002;stroke-linecap:butt;stroke-linejoin:round;stroke-miterlimit:9;stroke-dasharray:none;stroke-opacity:1"
       d="m 369,54 0,-3.5" /><path
       inkscape:connector-curvature="0"
       id="path4383"
       style="fill:#000000;fill-opacity:1;fill-rule:nonzero;stroke:#000000;stroke-width:1.60000002;stroke-linecap:butt;stroke-linejoin:round;stroke-miterlimit:9;stroke-dasharray:none;stroke-opacity:1"
       d="m 495.81818,54 0,-3.5" /><path
       inkscape:connector-curvature="0"
       id="path4395"
       style="fill:#000000;fill-opacity:1;fill-rule:nonzero;stroke:#000000;stroke-width:1.60000002;stroke-linecap:butt;stroke-linejoin:round;stroke-miterlimit:9;stroke-dasharray:none;stroke-opacity:1"
       d="m 622.63636,54 0,-3.5" /><path
       inkscape:connector-curvature="0"
       id="path4425"
       style="fill:#000000;fill-opacity:1;fill-rule:nonzero;stroke:#000000;stroke-width:1.60000002;stroke-linecap:butt;stroke-linejoin:round;stroke-miterlimit:8.5;stroke-dasharray:none;stroke-opacity:1"
       d="m 90,121.06279 -3.5,0" /><path
       inkscape:connector-curvature="0"
       id="path4451"
       style="fill:#000000;fill-opacity:1;fill-rule:nonzero;stroke:#000000;stroke-width:1.60000002;stroke-linecap:butt;stroke-linejoin:round;stroke-miterlimit:8.5;stroke-dasharray:none;stroke-opacity:1"
       d="m 90,226.918 -3.5,0" /><path
       inkscape:connector-curvature="0"
       id="path4463"
       style="fill:#000000;fill-opacity:1;fill-rule:nonzero;stroke:#000000;stroke-width:1.60000002;stroke-linecap:butt;stroke-linejoin:round;stroke-miterlimit:8.5;stroke-dasharray:none;stroke-opacity:1"
       d="m 90,332.77322 -3.5,0" /><g
       id="g4473"
       transform="matrix(0.99989553,-0.01445461,0.01445461,0.99989553,-3.2474495,5.3575005)"><g
         id="g4475"
         clip-path="url(#clipPath4477)"><path
           d="m 115.36364,225.45136 5.12396,0.038 5.12397,0.038 5.12397,0.038 5.12396,0.038 5.12397,0.038 5.12397,0.038 5.12396,0.038 5.12397,0.038 5.12397,0.038 5.12397,0.038 5.12396,0.038 5.12397,0.038 5.12397,0.038 5.12396,0.038 5.12397,0.038 5.12397,0.038 5.12396,0.038 5.12397,0.038 5.12397,0.038 5.12396,0.038 5.12397,0.038 5.12397,0.038 5.12397,0.038 5.12396,0.038 5.12397,0.038 5.12397,0.038 5.12396,0.038 5.12397,0.038 5.12397,0.038 5.12397,0.038 5.12396,0.038 5.12397,0.038 5.12396,0.038 5.12397,0.038 5.12397,0.038 5.12397,0.038 5.12396,0.038 5.12397,0.038 5.12397,0.038 5.12396,0.038 5.12397,0.038 5.12397,0.038 5.12396,0.038 5.12397,0.038 5.12397,0.038 5.12397,0.038 5.12396,0.038 5.12397,0.038 5.12397,0.038 5.12396,0.038 5.12397,0.038 5.12397,0.038 5.12396,0.038 5.12397,0.038 5.12397,0.038 5.12397,0.038 5.12396,0.038 5.12397,0.038 5.12397,0.038 5.12396,0.038 5.12397,0.038 5.12397,0.038 5.12396,0.038 5.12397,0.038 5.12397,0.038 5.12396,0.038 5.12397,0.038 5.12397,0.038 5.12396,0.038 5.12397,0.038 5.12397,0.038 5.12397,0.038 5.12396,0.038 5.12397,0.038 5.12397,0.038 5.12396,0.038 5.12397,0.038 5.12397,0.038 5.12396,0.038 5.12397,0.038 5.12397,0.038 5.12397,0.038 5.12396,0.038 5.12397,0.038 5.12397,0.038 5.12396,0.038 5.12397,0.038 5.12397,0.038 5.12396,0.038 5.12397,0.038 5.12397,0.038 5.12396,0.038 5.12397,0.038 5.12397,0.038 5.12397,0.038 5.12396,0.038 5.12397,0.038 5.12397,0.038 5.12396,0.038"
           style="fill:none;stroke:#000000;stroke-width:1.5;stroke-linecap:square;stroke-linejoin:round;stroke-miterlimit:10;stroke-dasharray:none;stroke-opacity:1"
           id="path4481"
           inkscape:connector-curvature="0" /></g></g><g
       id="g4483"><g
         id="g4485"
         clip-path="url(#clipPath4487)"><path
           d="m 115.36364,124.74044 5.12396,2.07947 5.12397,2.07948 5.12397,2.07947 5.12396,2.07948 5.12397,2.07947 5.12397,2.07948 5.12396,2.07947 5.12397,2.07947 5.12397,2.07948 5.12397,2.07947 5.12396,2.07948 5.12397,2.07947 5.12397,2.07948 5.12396,2.07947 5.12397,2.07948 5.12397,2.07947 5.12396,2.07948 5.12397,2.07947 5.12397,2.07948 5.12396,2.07947 5.12397,2.07948 5.12397,2.07947 5.12397,2.07948 5.12396,2.07947 5.12397,2.07948 5.12397,2.07947 5.12396,2.07947 5.12397,2.07948 5.12397,2.07947 5.12397,2.07948 5.12396,2.07947 5.12397,2.07948 5.12396,2.07947 5.12397,2.07948 5.12397,2.07947 5.12397,2.07948 5.12396,2.07947 5.12397,2.07948 5.12397,2.07947 5.12396,2.07948 5.12397,2.07947 5.12397,2.07948 5.12396,2.07947 5.12397,2.07948 5.12397,2.07947 5.12397,2.07947 5.12396,2.07948 5.12397,2.07947 5.12397,2.07948 5.12396,2.07947 5.12397,2.07948 5.12397,2.07947 5.12396,2.07948 5.12397,2.07947 5.12397,2.07948 5.12397,2.07947 5.12396,2.07948 5.12397,2.07947 5.12397,2.07948 5.12396,2.07947 5.12397,2.07948 5.12397,2.07947 5.12396,2.07948 5.12397,2.07947 5.12397,2.07947 5.12396,2.07948 5.12397,2.07947 5.12397,2.07948 5.12396,2.07947 5.12397,2.07948 5.12397,2.07947 5.12397,2.07948 5.12396,2.07947 5.12397,2.07948 5.12397,2.07947 5.12396,2.07948 5.12397,2.07947 5.12397,2.07948 5.12396,2.07947 5.12397,2.07948 5.12397,2.07947 5.12397,2.07948 5.12396,2.07947 5.12397,2.07947 5.12397,2.07948 5.12396,2.07947 5.12397,2.07948 5.12397,2.07947 5.12396,2.07948 5.12397,2.07947 5.12397,2.07948 5.12396,2.07947 5.12397,2.07948 5.12397,2.07947 5.12397,2.07948 5.12396,2.07947 5.12397,2.07948 5.12397,2.07947 5.12396,2.07948"
           style="fill:none;stroke:#000000;stroke-width:1.5;stroke-linecap:square;stroke-linejoin:round;stroke-miterlimit:10;stroke-dasharray:none;stroke-opacity:1"
           id="path4491"
           inkscape:connector-curvature="0" /></g></g><g
       id="g4493"><g
         id="g4495"
         clip-path="url(#clipPath4497)"><path
           d="m 369,54 0,326.16"
           style="fill:none;stroke:#1f77b4;stroke-width:1.5;stroke-linecap:square;stroke-linejoin:round;stroke-miterlimit:10;stroke-dasharray:none;stroke-opacity:1"
           id="path4501"
           inkscape:connector-curvature="0" /></g></g><path
       style="fill:none;fill-rule:evenodd;stroke:#000000;stroke-width:1.60000002;stroke-linecap:butt;stroke-linejoin:miter;stroke-miterlimit:8.5;stroke-dasharray:none;stroke-opacity:1"
       d="m 89.737608,120.69971 0,212.53644"
       id="path4582"
       inkscape:connector-curvature="0" /><text
       xml:space="preserve"
       style="font-style:normal;font-weight:normal;font-size:20.66767311px;line-height:125%;font-family:sans-serif;letter-spacing:0px;word-spacing:0px;fill:#000000;fill-opacity:1;stroke:none;stroke-width:1px;stroke-linecap:butt;stroke-linejoin:miter;stroke-opacity:1"
       x="191.52841"
       y="70.828896"
       id="text4584"
       sodipodi:linespacing="125%"
       transform="matrix(0,1,1,0,0,0)"><tspan
         sodipodi:role="line"
         id="tspan4586"
         x="191.52841"
         y="70.828896">reward</tspan></text>
<path
       style="fill:none;fill-rule:evenodd;stroke:#000000;stroke-width:1.60000002;stroke-linecap:butt;stroke-linejoin:miter;stroke-miterlimit:9;stroke-dasharray:none;stroke-opacity:1"
       d="m 115.4519,54.05248 507.98833,0"
       id="path4588"
       inkscape:connector-curvature="0" /><text
       xml:space="preserve"
       style="font-style:normal;font-weight:normal;font-size:13px;line-height:125%;font-family:sans-serif;letter-spacing:0px;word-spacing:0px;fill:#000000;fill-opacity:1;stroke:none;stroke-width:1px;stroke-linecap:butt;stroke-linejoin:miter;stroke-opacity:1"
       x="91.284805"
       y="-25.233208"
       id="text4590"
       sodipodi:linespacing="125%"
       transform="scale(1,-1)"><tspan
         sodipodi:role="line"
         id="tspan4592"
         x="91.284805"
         y="-25.233208"
         style="font-size:21px">-0.5</tspan></text>
<text
       xml:space="preserve"
       style="font-style:normal;font-weight:normal;font-size:13px;line-height:125%;font-family:sans-serif;letter-spacing:0px;word-spacing:0px;fill:#000000;fill-opacity:1;stroke:none;stroke-width:1px;stroke-linecap:butt;stroke-linejoin:miter;stroke-opacity:1"
       x="604.85443"
       y="-25.233208"
       id="text4590-3"
       sodipodi:linespacing="125%"
       transform="scale(1,-1)"><tspan
         sodipodi:role="line"
         id="tspan4592-6"
         x="604.85443"
         y="-25.233208"
         style="font-size:21px">1.5</tspan></text>
<text
       xml:space="preserve"
       style="font-style:normal;font-weight:normal;font-size:13px;line-height:125%;font-family:sans-serif;letter-spacing:0px;word-spacing:0px;fill:#000000;fill-opacity:1;stroke:none;stroke-width:1px;stroke-linecap:butt;stroke-linejoin:miter;stroke-opacity:1"
       x="477.78281"
       y="-25.233208"
       id="text4590-7"
       sodipodi:linespacing="125%"
       transform="scale(1,-1)"><tspan
         sodipodi:role="line"
         id="tspan4592-5"
         x="477.78281"
         y="-25.233208"
         style="font-size:21px">1.0</tspan></text>
<text
       xml:space="preserve"
       style="font-style:normal;font-weight:normal;font-size:13px;line-height:125%;font-family:sans-serif;letter-spacing:0px;word-spacing:0px;fill:#000000;fill-opacity:1;stroke:none;stroke-width:1px;stroke-linecap:butt;stroke-linejoin:miter;stroke-opacity:1"
       x="352.24329"
       y="-25.233208"
       id="text4590-35"
       sodipodi:linespacing="125%"
       transform="scale(1,-1)"><tspan
         sodipodi:role="line"
         id="tspan4592-62"
         x="352.24329"
         y="-25.233208"
         style="font-size:21px">0.5</tspan></text>
<text
       xml:space="preserve"
       style="font-style:normal;font-weight:normal;font-size:13px;line-height:125%;font-family:sans-serif;letter-spacing:0px;word-spacing:0px;fill:#000000;fill-opacity:1;stroke:none;stroke-width:1px;stroke-linecap:butt;stroke-linejoin:miter;stroke-opacity:1"
       x="235.05086"
       y="-25.233208"
       id="text4590-9"
       sodipodi:linespacing="125%"
       transform="scale(1,-1)"><tspan
         sodipodi:role="line"
         id="tspan4592-1"
         x="235.05086"
         y="-25.233208"
         style="font-size:21px">0</tspan></text>
<text
       xml:space="preserve"
       style="font-style:normal;font-weight:normal;font-size:13px;line-height:125%;font-family:sans-serif;letter-spacing:0px;word-spacing:0px;fill:#000000;fill-opacity:1;stroke:none;stroke-width:1px;stroke-linecap:butt;stroke-linejoin:miter;stroke-opacity:1"
       x="403.63901"
       y="-363.01047"
       id="text5236"
       sodipodi:linespacing="125%"
       transform="scale(1,-1)"><tspan
         sodipodi:role="line"
         id="tspan5238"
         x="403.63901"
         y="-363.01047"
         style="font-size:21px">P</tspan></text>
<text
       xml:space="preserve"
       style="font-style:normal;font-weight:normal;font-size:13px;line-height:125%;font-family:sans-serif;letter-spacing:0px;word-spacing:0px;fill:#000000;fill-opacity:1;stroke:none;stroke-width:1px;stroke-linecap:butt;stroke-linejoin:miter;stroke-opacity:1"
       x="340.55603"
       y="-363.01047"
       id="text5236-2"
       sodipodi:linespacing="125%"
       transform="scale(1,-1)"><tspan
         sodipodi:role="line"
         id="tspan5238-7"
         x="340.55603"
         y="-363.01047"
         style="font-size:21px">P*</tspan></text>
<path
       style="fill:none;fill-rule:evenodd;stroke:#1f77b4;stroke-width:1.6;stroke-linecap:butt;stroke-linejoin:miter;stroke-opacity:1;stroke-miterlimit:4;stroke-dasharray:1.6,3.2;stroke-dashoffset:0"
       d="m 420.37412,379.68804 0,-326.413992"
       id="path5285"
       inkscape:connector-curvature="0" /><path
       style="fill:none;fill-rule:evenodd;stroke:#000000;stroke-width:1.6;stroke-linecap:butt;stroke-linejoin:miter;stroke-opacity:1;stroke-miterlimit:4;stroke-dasharray:1.6,4.8;stroke-dashoffset:0"
       d="M 115.98284,140.7117 621.38896,265.39339"
       id="path5341"
       inkscape:connector-curvature="0" /><path
       style="fill:none;fill-rule:evenodd;stroke:#000000;stroke-width:1.6;stroke-linecap:butt;stroke-linejoin:miter;stroke-opacity:1;stroke-miterlimit:4;stroke-dasharray:1.6,4.8;stroke-dashoffset:0"
       d="m 116.725,219.37991 506.14827,-5.93722"
       id="path5343"
       inkscape:connector-curvature="0" /></g></svg>