<?xml version="1.0" encoding="UTF-8" standalone="no"?>
<svg
   xmlns:dc="http://purl.org/dc/elements/1.1/"
   xmlns:cc="http://creativecommons.org/ns#"
   xmlns:rdf="http://www.w3.org/1999/02/22-rdf-syntax-ns#"
   xmlns:svg="http://www.w3.org/2000/svg"
   xmlns="http://www.w3.org/2000/svg"
   xmlns:sodipodi="http://sodipodi.sourceforge.net/DTD/sodipodi-0.dtd"
   xmlns:inkscape="http://www.inkscape.org/namespaces/inkscape"
   inkscape:export-ydpi="300.08224"
   inkscape:export-xdpi="300.08224"
   inkscape:export-filename="/home/lansdell/projects/presentations/rddwatson/assets/fig1_schematic_np.png"
   sodipodi:docname="fig1_schematic_fa.svg"
   viewBox="0 0 311.33624 517.95801"
   height="517.95801"
   width="311.33624"
   xml:space="preserve"
   inkscape:version="1.0beta2 (2b71d25, 2019-12-03)"
   version="1.1"
   id="svg10853"><metadata
     id="metadata10859"><rdf:RDF><cc:Work
         rdf:about=""><dc:format>image/svg+xml</dc:format><dc:type
           rdf:resource="http://purl.org/dc/dcmitype/StillImage" /><dc:title /></cc:Work></rdf:RDF></metadata><defs
     id="defs10857" /><sodipodi:namedview
     inkscape:document-rotation="0"
     inkscape:current-layer="g10861"
     inkscape:window-maximized="1"
     inkscape:window-y="23"
     inkscape:window-x="0"
     inkscape:cy="185.66179"
     inkscape:cx="57.598003"
     inkscape:zoom="1.3023509"
     fit-margin-bottom="0"
     fit-margin-right="0"
     fit-margin-left="0"
     fit-margin-top="0"
     showgrid="false"
     id="namedview10855"
     inkscape:window-height="761"
     inkscape:window-width="1440"
     inkscape:pageshadow="2"
     inkscape:pageopacity="0"
     guidetolerance="10"
     gridtolerance="10"
     objecttolerance="10"
     borderopacity="1"
     bordercolor="#666666"
     pagecolor="#ffffff" /><g
     transform="matrix(1.25,0,0,-1.25,-513.94125,517.96013)"
     inkscape:label="fig1_schematic"
     inkscape:groupmode="layer"
     id="g10861"><g
   id="g10865"
   transform="matrix(1,0,0,-1,0,372.88769)"><path
     d="m 427.371,332.086 102.285,0 0,40 -102.285,0 0,-40 z"
     style="fill:none;stroke:#000000;stroke-width:1.60000002;stroke-linecap:butt;stroke-linejoin:miter;stroke-miterlimit:4;stroke-dasharray:none;stroke-opacity:1"
     id="path10867"
     inkscape:connector-curvature="0" /></g><g
   id="g10869"
   transform="matrix(1,0,0,-1,0,372.88769)"><path
     d="m 429.086,166.801 105.144,0 c 9.18,0 16.571,7.39 16.571,16.574 l 0,6.855 c 0,9.18 -7.391,16.571 -16.571,16.571 l -105.144,0 c -9.18,0 -16.57,-7.391 -16.57,-16.571 l 0,-6.855 c 0,-9.184 7.39,-16.574 16.57,-16.574 z"
     style="fill:none;stroke:#000000;stroke-width:1.60000002;stroke-linecap:butt;stroke-linejoin:miter;stroke-miterlimit:4;stroke-dasharray:none;stroke-opacity:1"
     id="path10871"
     inkscape:connector-curvature="0" /></g><g
   id="g10873"
   transform="matrix(1,0,0,-1,0,372.88769)"><path
     d="m 429.086,249.66 105.144,0 c 9.18,0 16.571,7.391 16.571,16.57 l 0,6.856 c 0,9.184 -7.391,16.574 -16.571,16.574 l -105.144,0 c -9.18,0 -16.57,-7.39 -16.57,-16.574 l 0,-6.856 c 0,-9.179 7.39,-16.57 16.57,-16.57 z"
     style="fill:none;stroke:#000000;stroke-width:1.60000002;stroke-linecap:butt;stroke-linejoin:miter;stroke-miterlimit:4;stroke-dasharray:none;stroke-opacity:1"
     id="path10875"
     inkscape:connector-curvature="0" /></g><g
   id="g10877"
   transform="matrix(1,0,0,-1,0,372.88769)"><path
     d="m 447.27,0.945 72.402,0 c 9.18,0 16.57,7.391 16.57,16.571 l 0,6.859 c 0,9.18 -7.39,16.57 -16.57,16.57 l -72.402,0 c -9.18,0 -16.571,-7.39 -16.571,-16.57 l 0,-6.859 c 0,-9.18 7.391,-16.571 16.571,-16.571 z"
     style="fill:none;stroke:#000000;stroke-width:1.60000002;stroke-linecap:butt;stroke-linejoin:miter;stroke-miterlimit:4;stroke-dasharray:none;stroke-opacity:1"
     id="path10879"
     inkscape:connector-curvature="0" /></g><g
   id="g10881"
   transform="matrix(1,0,0,-1,0,372.88769)"><path
     d="m 505.801,331.801 0,-42"
     style="fill:none;stroke:#000000;stroke-width:0.80000001;stroke-linecap:butt;stroke-linejoin:miter;stroke-miterlimit:4;stroke-dasharray:none;stroke-opacity:1"
     id="path10883"
     inkscape:connector-curvature="0" /></g><g
   id="g10885"
   transform="matrix(0,-1,-1,0,0,372.88769)"><path
     d="m 297.801,-505.801 3.203,-3.199 -11.203,3.199 11.203,3.199 -3.203,-3.199 z"
     style="fill:#000000;fill-opacity:1;fill-rule:evenodd;stroke:#000000;stroke-width:0.80000001;stroke-linecap:butt;stroke-linejoin:miter;stroke-miterlimit:4;stroke-dasharray:none;stroke-opacity:1"
     id="path10887"
     inkscape:connector-curvature="0" /></g><g
   id="g10889"
   transform="matrix(1,0,0,-1,0,372.88769)"><path
     d="m 505.801,250.184 0,-42"
     style="fill:none;stroke:#000000;stroke-width:0.80000001;stroke-linecap:butt;stroke-linejoin:miter;stroke-miterlimit:4;stroke-dasharray:none;stroke-opacity:1"
     id="path10891"
     inkscape:connector-curvature="0" /></g><g
   id="g10893"
   transform="matrix(0,-1,-1,0,0,372.88769)"><path
     d="m 216.184,-505.801 3.199,-3.199 -11.199,3.199 11.199,3.199 -3.199,-3.199 z"
     style="fill:#000000;fill-opacity:1;fill-rule:evenodd;stroke:#000000;stroke-width:0.80000001;stroke-linecap:butt;stroke-linejoin:miter;stroke-miterlimit:4;stroke-dasharray:none;stroke-opacity:1"
     id="path10895"
     inkscape:connector-curvature="0" /></g><g
   id="g10897"
   transform="matrix(1,0,0,-1,0,372.88769)"><path
     d="m 505.801,166.543 0,-42"
     style="fill:none;stroke:#000000;stroke-width:0.80000001;stroke-linecap:butt;stroke-linejoin:miter;stroke-miterlimit:4;stroke-dasharray:none;stroke-opacity:1"
     id="path10899"
     inkscape:connector-curvature="0" /></g><g
   id="g10901"
   transform="matrix(0,-1,-1,0,0,372.88769)"><path
     d="m 132.543,-505.801 3.199,-3.199 -11.199,3.199 11.199,3.199 -3.199,-3.199 z"
     style="fill:#000000;fill-opacity:1;fill-rule:evenodd;stroke:#000000;stroke-width:0.80000001;stroke-linecap:butt;stroke-linejoin:miter;stroke-miterlimit:4;stroke-dasharray:none;stroke-opacity:1"
     id="path10903"
     inkscape:connector-curvature="0" /></g><g
   id="g10905"
   transform="matrix(1,0,0,-1,0,372.88769)"><path
     d="m 609.016,332.719 0,-311.828 -72.61,0"
     style="fill:none;stroke:#000000;stroke-width:0.80000001;stroke-linecap:butt;stroke-linejoin:miter;stroke-miterlimit:4;stroke-dasharray:none;stroke-opacity:1"
     id="path10907"
     inkscape:connector-curvature="0" /></g><g
   id="g10909"
   transform="matrix(1,0,0,-1,0,372.88769)"><path
     d="m 544.406,20.891 3.199,-3.2 -11.199,3.2 11.199,3.199 -3.199,-3.199 z"
     style="fill:#000000;fill-opacity:1;fill-rule:evenodd;stroke:#000000;stroke-width:0.80000001;stroke-linecap:butt;stroke-linejoin:miter;stroke-miterlimit:4;stroke-dasharray:none;stroke-opacity:1"
     id="path10911"
     inkscape:connector-curvature="0" /></g><text
   y="-16.382414"
   x="472.22391"
   transform="scale(1,-1)"
   style="font-variant:normal;font-weight:normal;font-size:20.8104px;line-height:0%;font-family:Arial;-inkscape-font-specification:ArialMT;writing-mode:lr-tb;fill:#000000;fill-opacity:1;fill-rule:nonzero;stroke:none"
   id="text10913"><tspan
     x="472.22391"
     y="-16.382414"
     id="tspan10915">x</tspan></text>
<g
   id="g10917"
   transform="matrix(1,0,0,-1,0,372.88769)"><path
     d="m 557.137,332.086 102.285,0 0,40 -102.285,0 0,-40 z"
     style="fill:none;stroke:#000000;stroke-width:1.60000002;stroke-linecap:butt;stroke-linejoin:miter;stroke-miterlimit:4;stroke-dasharray:none;stroke-opacity:1"
     id="path10919"
     inkscape:connector-curvature="0" /></g><text
   y="-16.382433"
   x="604.22394"
   transform="scale(1,-1)"
   style="font-variant:normal;font-weight:normal;font-size:20.8104px;line-height:0%;font-family:Arial;-inkscape-font-specification:ArialMT;writing-mode:lr-tb;fill:#000000;fill-opacity:1;fill-rule:nonzero;stroke:none"
   id="text10921"><tspan
     x="604.22394"
     y="-16.382433"
     id="tspan10923">y</tspan></text>
<path
   d="m 489.328,364.247 -0.359,0.336 c 0,-0.016 -0.852,-1.07 -1.832,-1.07 -0.512,0 -1.075,0.336 -1.449,0.558 -0.602,0.36 -1.012,0.512 -1.391,0.512 -0.848,0 -1.277,-0.488 -2.414,-1.746 l 0.359,-0.336 c 0,0.027 0.848,1.074 1.832,1.074 0.512,0 1.074,-0.328 1.449,-0.554 0.602,-0.36 1.012,-0.52 1.387,-0.52 0.852,0 1.281,0.5 2.418,1.746 z"
   style="fill:#000000;fill-opacity:1;fill-rule:evenodd;stroke:none"
   id="path10925"
   inkscape:connector-curvature="0" /><path
   d="m 478.828,346.071 0.106,0.176 0.109,0.168 0.102,0.172 0.093,0.168 0.094,0.164 0.09,0.16 0.082,0.16 0.082,0.157 0.078,0.156 0.074,0.152 0.133,0.297 0.063,0.148 0.066,0.145 0.105,0.277 0.106,0.274 0.09,0.269 0.082,0.258 0.074,0.25 0.07,0.242 0.063,0.239 0.058,0.234 0.059,0.223 c 0.777,3.086 1.633,5.773 3.012,7.316 0.273,0.293 0.449,0.492 1.168,0.492 1.543,0 1.586,-1.547 1.586,-1.851 0,-0.407 -0.114,-0.719 -0.114,-0.832 0,-0.161 0.141,-0.161 0.161,-0.161 0.359,0 0.96,0.247 1.523,0.657 0.398,0.304 0.602,0.531 0.602,1.449 0,1.207 -0.629,2.125 -1.875,2.125 -0.719,0 -2.692,-0.18 -4.879,-2.391 -1.789,-1.84 -2.84,-5.867 -3.266,-7.539 -0.406,-1.547 -0.586,-2.242 -1.254,-3.578 -0.16,-0.266 -0.738,-1.258 -1.051,-1.547 -0.601,-0.558 -0.824,-0.961 -0.824,-1.07 0,-0.043 0.039,-0.133 0.203,-0.133 0.082,0 0.551,0.09 1.133,0.469 0.379,0.222 0.426,0.269 0.938,0.808 1.125,-0.027 1.906,-0.226 3.316,-0.632 1.144,-0.309 2.277,-0.645 3.418,-0.645 1.816,0 3.652,1.363 4.363,2.348 0.445,0.601 0.586,1.16 0.586,1.226 0,0.157 -0.141,0.157 -0.164,0.157 -0.355,0 -0.887,-0.247 -1.273,-0.512 -0.606,-0.379 -0.645,-0.512 -0.782,-0.899 -0.113,-0.355 -0.242,-0.531 -0.336,-0.668 -0.175,-0.265 -0.203,-0.265 -0.539,-0.265 -1.074,0 -2.191,0.328 -3.664,0.738 -0.629,0.176 -1.859,0.535 -2.98,0.535 -0.285,0 -0.602,-0.023 -0.887,-0.086 z"
   style="fill:#000000;fill-opacity:1;fill-rule:evenodd;stroke:none"
   id="path10927"
   inkscape:connector-curvature="0" /><g
   id="g10933"
   transform="matrix(1,0,0,-1,0,372.88769)"><path
     d="m 459.52,123.086 0,42"
     style="fill:none;stroke:#007c00;stroke-width:0.80000001;stroke-linecap:butt;stroke-linejoin:miter;stroke-miterlimit:4;stroke-dasharray:none;stroke-opacity:1"
     id="path10935"
     inkscape:connector-curvature="0" /></g><g
   id="g10937"
   transform="matrix(0,1,1,0,0,372.88769)"><path
     d="m -157.086,459.52 3.199,-3.2 -11.199,3.2 11.199,3.199 -3.199,-3.199 z"
     style="fill:#007c00;fill-opacity:1;fill-rule:evenodd;stroke:#007c00;stroke-width:0.80000001;stroke-linecap:butt;stroke-linejoin:miter;stroke-miterlimit:4;stroke-dasharray:none;stroke-opacity:1"
     id="path10939"
     inkscape:connector-curvature="0" /></g><g
   id="g10941"
   transform="matrix(1,0,0,-1,0,372.88769)"><path
     d="m 459.52,205.918 0,42"
     style="fill:none;stroke:#007c00;stroke-width:0.80000001;stroke-linecap:butt;stroke-linejoin:miter;stroke-miterlimit:4;stroke-dasharray:none;stroke-opacity:1"
     id="path10943"
     inkscape:connector-curvature="0" /></g><g
   id="g10945"
   transform="matrix(0,1,1,0,0,372.88769)"><path
     d="m -239.918,459.52 3.199,-3.2 -11.199,3.2 11.199,3.199 -3.199,-3.199 z"
     style="fill:#007c00;fill-opacity:1;fill-rule:evenodd;stroke:#007c00;stroke-width:0.80000001;stroke-linecap:butt;stroke-linejoin:miter;stroke-miterlimit:4;stroke-dasharray:none;stroke-opacity:1"
     id="path10947"
     inkscape:connector-curvature="0" /></g><text
   y="-227.37782"
   x="355.91293"
   transform="scale(1,-1)"
   style="font-variant:normal;font-weight:normal;font-size:20px;line-height:0%;font-family:Arial;-inkscape-font-specification:ArialMT;writing-mode:lr-tb;fill:#000000;fill-opacity:1;fill-rule:nonzero;stroke:none"
   id="text10989"><tspan
     x="432.66718"
     y="-226.85716"
     id="tspan10993">B</tspan></text>
<text
   y="-222.85716"
   x="446.02655"
   transform="scale(1,-1)"
   style="font-variant:normal;font-weight:normal;font-size:13px;line-height:0%;font-family:Arial;-inkscape-font-specification:ArialMT;writing-mode:lr-tb;fill:#000000;fill-opacity:1;fill-rule:nonzero;stroke:none"
   id="text10995"><tspan
     x="446.02655"
     y="-222.85716"
     id="tspan10997">2</tspan></text>
<text
   y="-143.57144"
   x="432.66718"
   transform="scale(1,-1)"
   style="font-variant:normal;font-weight:normal;font-size:20px;line-height:0%;font-family:Arial;-inkscape-font-specification:ArialMT;writing-mode:lr-tb;fill:#000000;fill-opacity:1;fill-rule:nonzero;stroke:none"
   id="text10999"><tspan
     x="432.66718"
     y="-143.57144"
     id="tspan11001">B</tspan></text>
<text
   y="-139.57144"
   x="446.02655"
   transform="scale(1,-1)"
   style="font-variant:normal;font-weight:normal;font-size:13px;line-height:0%;font-family:Arial;-inkscape-font-specification:ArialMT;writing-mode:lr-tb;fill:#000000;fill-opacity:1;fill-rule:nonzero;stroke:none"
   id="text11003"><tspan
     x="446.02655"
     y="-139.57144"
     id="tspan11005">1</tspan></text>
<text
   y="-97.679604"
   x="473.32599"
   transform="scale(1,-1)"
   style="font-variant:normal;font-weight:normal;font-size:20px;line-height:0%;font-family:Arial;-inkscape-font-specification:ArialMT;writing-mode:lr-tb;fill:#000000;fill-opacity:1;fill-rule:nonzero;stroke:none"
   id="text11155"><tspan
     x="473.32599"
     y="-97.679604"
     id="tspan11157">h</tspan></text>
<text
   y="-93.679604"
   x="484.4588"
   transform="scale(1,-1)"
   style="font-variant:normal;font-weight:normal;font-size:13px;line-height:0%;font-family:Arial;-inkscape-font-specification:ArialMT;writing-mode:lr-tb;fill:#000000;fill-opacity:1;fill-rule:nonzero;stroke:none"
   id="text11159"><tspan
     x="484.4588"
     y="-93.679604"
     id="tspan11161">1</tspan></text>
<text
   y="-180.10805"
   x="473.32599"
   transform="scale(1,-1)"
   style="font-variant:normal;font-weight:normal;font-size:20px;line-height:0%;font-family:Arial;-inkscape-font-specification:ArialMT;writing-mode:lr-tb;fill:#000000;fill-opacity:1;fill-rule:nonzero;stroke:none"
   id="text11163"><tspan
     x="473.32599"
     y="-180.10805"
     id="tspan11165">h</tspan></text>
<text
   y="-176.10805"
   x="484.4588"
   transform="scale(1,-1)"
   style="font-variant:normal;font-weight:normal;font-size:13px;line-height:0%;font-family:Arial;-inkscape-font-specification:ArialMT;writing-mode:lr-tb;fill:#000000;fill-opacity:1;fill-rule:nonzero;stroke:none"
   id="text11167"><tspan
     x="484.4588"
     y="-176.10805"
     id="tspan11169">2</tspan></text>
<g
   id="g11199"
   transform="matrix(1,0,0,-1,0,372.88769)"><path
     d="m 428.527,83.102 105.141,0 c 9.18,0 16.57,7.39 16.57,16.57 l 0,6.859 c 0,9.18 -7.39,16.571 -16.57,16.571 l -105.141,0 c -9.183,0 -16.574,-7.391 -16.574,-16.571 l 0,-6.859 c 0,-9.18 7.391,-16.57 16.574,-16.57 z"
     style="fill:none;stroke:#000000;stroke-width:1.60000002;stroke-linecap:butt;stroke-linejoin:miter;stroke-miterlimit:4;stroke-dasharray:none;stroke-opacity:1"
     id="path11201"
     inkscape:connector-curvature="0" /></g><g
   id="g11203"
   transform="matrix(1,0,0,-1,0,372.88769)"><path
     d="m 505.238,83.625 0,-42"
     style="fill:none;stroke:#000000;stroke-width:0.80000001;stroke-linecap:butt;stroke-linejoin:miter;stroke-miterlimit:4;stroke-dasharray:none;stroke-opacity:1"
     id="path11205"
     inkscape:connector-curvature="0" /></g><g
   id="g11207"
   transform="matrix(0,-1,-1,0,0,372.88769)"><path
     d="m 49.625,-505.238 3.203,-3.203 -11.203,3.203 11.203,3.199 -3.203,-3.199 z"
     style="fill:#000000;fill-opacity:1;fill-rule:evenodd;stroke:#000000;stroke-width:0.80000001;stroke-linecap:butt;stroke-linejoin:miter;stroke-miterlimit:4;stroke-dasharray:none;stroke-opacity:1"
     id="path11209"
     inkscape:connector-curvature="0" /></g><g
   id="g11211"
   transform="matrix(1,0,0,-1,0,372.88769)"><path
     d="m 458.961,40.172 0,42"
     style="fill:none;stroke:#007c00;stroke-width:0.80000001;stroke-linecap:butt;stroke-linejoin:miter;stroke-miterlimit:4;stroke-dasharray:none;stroke-opacity:1"
     id="path11213"
     inkscape:connector-curvature="0" /></g><g
   id="g11215"
   transform="matrix(0,1,1,0,0,372.88769)"><path
     d="m -74.172,458.961 3.199,-3.203 -11.199,3.203 11.199,3.199 -3.199,-3.199 z"
     style="fill:#007c00;fill-opacity:1;fill-rule:evenodd;stroke:#007c00;stroke-width:0.80000001;stroke-linecap:butt;stroke-linejoin:miter;stroke-miterlimit:4;stroke-dasharray:none;stroke-opacity:1"
     id="path11217"
     inkscape:connector-curvature="0" /></g><text
   y="-262.39374"
   x="471.62228"
   transform="scale(1,-1)"
   style="font-variant:normal;font-weight:normal;font-size:20px;line-height:0%;font-family:Arial;-inkscape-font-specification:ArialMT;writing-mode:lr-tb;fill:#000000;fill-opacity:1;fill-rule:nonzero;stroke:none"
   id="text11219"><tspan
     x="471.62228"
     y="-262.39374"
     id="tspan11221">o</tspan></text>
<text
   transform="scale(1,-1)"
   id="text11942-9"
   y="-396.13373"
   x="412.36453"
   style="font-style:normal;font-weight:normal;line-height:0%;font-family:sans-serif;letter-spacing:0px;word-spacing:0px;fill:#000000;fill-opacity:1;stroke:none;stroke-width:1px;stroke-linecap:butt;stroke-linejoin:miter;stroke-opacity:1"
   xml:space="preserve"><tspan
     style="font-size:24px;line-height:1.25"
     y="-396.13373"
     x="412.36453"
     id="tspan11944-8"
     sodipodi:role="line">feedback alignment</tspan></text>
<text
   transform="scale(1,-1)"
   y="-226.61803"
   x="519.71045"
   style="font-variant:normal;font-weight:normal;font-size:21.3334px;line-height:0%;font-family:Arial;-inkscape-font-specification:ArialMT;writing-mode:lr-tb;fill:#000000;fill-opacity:1;fill-rule:nonzero;stroke:none;stroke-width:0.853336"
   id="text11117-8"><tspan
     x="519.71045"
     y="-226.61803"
     id="tspan11119-3"
     style="stroke-width:0.853336">W</tspan></text><text
   transform="scale(1,-1)"
   y="-222.35136"
   x="539.83545"
   style="font-variant:normal;font-weight:normal;font-size:13.8666px;line-height:0%;font-family:Arial;-inkscape-font-specification:ArialMT;writing-mode:lr-tb;fill:#000000;fill-opacity:1;fill-rule:nonzero;stroke:none;stroke-width:0.853336"
   id="text11121-8"><tspan
     x="539.83545"
     y="-222.35136"
     id="tspan11123-1"
     style="stroke-width:0.853336">2</tspan></text><text
   transform="scale(1,-1)"
   y="-137.78001"
   x="519.71045"
   style="font-variant:normal;font-weight:normal;font-size:21.3334px;line-height:0%;font-family:Arial;-inkscape-font-specification:ArialMT;writing-mode:lr-tb;fill:#000000;fill-opacity:1;fill-rule:nonzero;stroke:none;stroke-width:0.853336"
   id="text11125-5"><tspan
     x="519.71045"
     y="-137.78001"
     id="tspan11127-3"
     style="stroke-width:0.853336">W</tspan></text><text
   transform="scale(1,-1)"
   y="-133.51326"
   x="539.83545"
   style="font-variant:normal;font-weight:normal;font-size:13.8666px;line-height:0%;font-family:Arial;-inkscape-font-specification:ArialMT;writing-mode:lr-tb;fill:#000000;fill-opacity:1;fill-rule:nonzero;stroke:none;stroke-width:0.853336"
   id="text11129-5"><tspan
     x="539.83545"
     y="-133.51326"
     id="tspan11131-4"
     style="stroke-width:0.853336">1</tspan></text><rect
   transform="scale(1,-1)"
   y="-368.29758"
   x="473.19464"
   height="6.7570114"
   width="23.956676"
   id="rect57170"
   style="fill:#fffff8;stroke-width:4;stop-color:#000000;fill-opacity:1" /></g></svg>
