<?xml version="1.0" encoding="UTF-8" standalone="no"?>
<svg
   xmlns:dc="http://purl.org/dc/elements/1.1/"
   xmlns:cc="http://creativecommons.org/ns#"
   xmlns:rdf="http://www.w3.org/1999/02/22-rdf-syntax-ns#"
   xmlns:svg="http://www.w3.org/2000/svg"
   xmlns="http://www.w3.org/2000/svg"
   xmlns:sodipodi="http://sodipodi.sourceforge.net/DTD/sodipodi-0.dtd"
   xmlns:inkscape="http://www.inkscape.org/namespaces/inkscape"
   inkscape:export-ydpi="300.08224"
   inkscape:export-xdpi="300.08224"
   inkscape:export-filename="/home/lansdell/projects/presentations/rddwatson/assets/fig1_schematic_np.png"
   sodipodi:docname="fig1_schematic_np.svg"
   viewBox="0 0 443.70373 517.95801"
   height="517.95801"
   width="443.70374"
   xml:space="preserve"
   inkscape:version="1.0beta2 (2b71d25, 2019-12-03)"
   version="1.1"
   id="svg10853"><metadata
     id="metadata10859"><rdf:RDF><cc:Work
         rdf:about=""><dc:format>image/svg+xml</dc:format><dc:type
           rdf:resource="http://purl.org/dc/dcmitype/StillImage" /><dc:title /></cc:Work></rdf:RDF></metadata><defs
     id="defs10857" /><sodipodi:namedview
     inkscape:document-rotation="0"
     inkscape:current-layer="g10861"
     inkscape:window-maximized="1"
     inkscape:window-y="23"
     inkscape:window-x="0"
     inkscape:cy="321.37386"
     inkscape:cx="176.53291"
     inkscape:zoom="0.92090117"
     fit-margin-bottom="0"
     fit-margin-right="0"
     fit-margin-left="0"
     fit-margin-top="0"
     showgrid="false"
     id="namedview10855"
     inkscape:window-height="761"
     inkscape:window-width="1440"
     inkscape:pageshadow="2"
     inkscape:pageopacity="0"
     guidetolerance="10"
     gridtolerance="10"
     objecttolerance="10"
     borderopacity="1"
     bordercolor="#666666"
     pagecolor="#ffffff" /><g
     transform="matrix(1.25,0,0,-1.25,-381.57375,517.96013)"
     inkscape:label="fig1_schematic"
     inkscape:groupmode="layer"
     id="g10861"><g
   id="g10865"
   transform="matrix(1,0,0,-1,0,372.88769)"><path
     d="m 427.371,332.086 102.285,0 0,40 -102.285,0 0,-40 z"
     style="fill:none;stroke:#000000;stroke-width:1.60000002;stroke-linecap:butt;stroke-linejoin:miter;stroke-miterlimit:4;stroke-dasharray:none;stroke-opacity:1"
     id="path10867"
     inkscape:connector-curvature="0" /></g><g
   id="g10869"
   transform="matrix(1,0,0,-1,0,372.88769)"><path
     d="m 429.086,166.801 105.144,0 c 9.18,0 16.571,7.39 16.571,16.574 l 0,6.855 c 0,9.18 -7.391,16.571 -16.571,16.571 l -105.144,0 c -9.18,0 -16.57,-7.391 -16.57,-16.571 l 0,-6.855 c 0,-9.184 7.39,-16.574 16.57,-16.574 z"
     style="fill:none;stroke:#000000;stroke-width:1.60000002;stroke-linecap:butt;stroke-linejoin:miter;stroke-miterlimit:4;stroke-dasharray:none;stroke-opacity:1"
     id="path10871"
     inkscape:connector-curvature="0" /></g><g
   id="g10873"
   transform="matrix(1,0,0,-1,0,372.88769)"><path
     d="m 429.086,249.66 105.144,0 c 9.18,0 16.571,7.391 16.571,16.57 l 0,6.856 c 0,9.184 -7.391,16.574 -16.571,16.574 l -105.144,0 c -9.18,0 -16.57,-7.39 -16.57,-16.574 l 0,-6.856 c 0,-9.179 7.39,-16.57 16.57,-16.57 z"
     style="fill:none;stroke:#000000;stroke-width:1.60000002;stroke-linecap:butt;stroke-linejoin:miter;stroke-miterlimit:4;stroke-dasharray:none;stroke-opacity:1"
     id="path10875"
     inkscape:connector-curvature="0" /></g><g
   id="g10877"
   transform="matrix(1,0,0,-1,0,372.88769)"><path
     d="m 447.27,0.945 72.402,0 c 9.18,0 16.57,7.391 16.57,16.571 l 0,6.859 c 0,9.18 -7.39,16.57 -16.57,16.57 l -72.402,0 c -9.18,0 -16.571,-7.39 -16.571,-16.57 l 0,-6.859 c 0,-9.18 7.391,-16.571 16.571,-16.571 z"
     style="fill:none;stroke:#000000;stroke-width:1.60000002;stroke-linecap:butt;stroke-linejoin:miter;stroke-miterlimit:4;stroke-dasharray:none;stroke-opacity:1"
     id="path10879"
     inkscape:connector-curvature="0" /></g><g
   id="g10881"
   transform="matrix(1,0,0,-1,0,372.88769)"><path
     d="m 505.801,331.801 0,-42"
     style="fill:none;stroke:#000000;stroke-width:0.80000001;stroke-linecap:butt;stroke-linejoin:miter;stroke-miterlimit:4;stroke-dasharray:none;stroke-opacity:1"
     id="path10883"
     inkscape:connector-curvature="0" /></g><g
   id="g10885"
   transform="matrix(0,-1,-1,0,0,372.88769)"><path
     d="m 297.801,-505.801 3.203,-3.199 -11.203,3.199 11.203,3.199 -3.203,-3.199 z"
     style="fill:#000000;fill-opacity:1;fill-rule:evenodd;stroke:#000000;stroke-width:0.80000001;stroke-linecap:butt;stroke-linejoin:miter;stroke-miterlimit:4;stroke-dasharray:none;stroke-opacity:1"
     id="path10887"
     inkscape:connector-curvature="0" /></g><g
   id="g10889"
   transform="matrix(1,0,0,-1,0,372.88769)"><path
     d="m 505.801,250.184 0,-42"
     style="fill:none;stroke:#000000;stroke-width:0.80000001;stroke-linecap:butt;stroke-linejoin:miter;stroke-miterlimit:4;stroke-dasharray:none;stroke-opacity:1"
     id="path10891"
     inkscape:connector-curvature="0" /></g><g
   id="g10893"
   transform="matrix(0,-1,-1,0,0,372.88769)"><path
     d="m 216.184,-505.801 3.199,-3.199 -11.199,3.199 11.199,3.199 -3.199,-3.199 z"
     style="fill:#000000;fill-opacity:1;fill-rule:evenodd;stroke:#000000;stroke-width:0.80000001;stroke-linecap:butt;stroke-linejoin:miter;stroke-miterlimit:4;stroke-dasharray:none;stroke-opacity:1"
     id="path10895"
     inkscape:connector-curvature="0" /></g><g
   id="g10897"
   transform="matrix(1,0,0,-1,0,372.88769)"><path
     d="m 505.801,166.543 0,-42"
     style="fill:none;stroke:#000000;stroke-width:0.80000001;stroke-linecap:butt;stroke-linejoin:miter;stroke-miterlimit:4;stroke-dasharray:none;stroke-opacity:1"
     id="path10899"
     inkscape:connector-curvature="0" /></g><g
   id="g10901"
   transform="matrix(0,-1,-1,0,0,372.88769)"><path
     d="m 132.543,-505.801 3.199,-3.199 -11.199,3.199 11.199,3.199 -3.199,-3.199 z"
     style="fill:#000000;fill-opacity:1;fill-rule:evenodd;stroke:#000000;stroke-width:0.80000001;stroke-linecap:butt;stroke-linejoin:miter;stroke-miterlimit:4;stroke-dasharray:none;stroke-opacity:1"
     id="path10903"
     inkscape:connector-curvature="0" /></g><g
   id="g10905"
   transform="matrix(1,0,0,-1,0,372.88769)"><path
     d="m 609.016,332.719 0,-311.828 -72.61,0"
     style="fill:none;stroke:#000000;stroke-width:0.80000001;stroke-linecap:butt;stroke-linejoin:miter;stroke-miterlimit:4;stroke-dasharray:none;stroke-opacity:1"
     id="path10907"
     inkscape:connector-curvature="0" /></g><g
   id="g10909"
   transform="matrix(1,0,0,-1,0,372.88769)"><path
     d="m 544.406,20.891 3.199,-3.2 -11.199,3.2 11.199,3.199 -3.199,-3.199 z"
     style="fill:#000000;fill-opacity:1;fill-rule:evenodd;stroke:#000000;stroke-width:0.80000001;stroke-linecap:butt;stroke-linejoin:miter;stroke-miterlimit:4;stroke-dasharray:none;stroke-opacity:1"
     id="path10911"
     inkscape:connector-curvature="0" /></g><text
   y="-16.382414"
   x="472.22391"
   transform="scale(1,-1)"
   style="font-variant:normal;font-weight:normal;font-size:20.8104px;line-height:0%;font-family:Arial;-inkscape-font-specification:ArialMT;writing-mode:lr-tb;fill:#000000;fill-opacity:1;fill-rule:nonzero;stroke:none"
   id="text10913"><tspan
     x="472.22391"
     y="-16.382414"
     id="tspan10915">x</tspan></text>
<g
   id="g10917"
   transform="matrix(1,0,0,-1,0,372.88769)"><path
     d="m 557.137,332.086 102.285,0 0,40 -102.285,0 0,-40 z"
     style="fill:none;stroke:#000000;stroke-width:1.60000002;stroke-linecap:butt;stroke-linejoin:miter;stroke-miterlimit:4;stroke-dasharray:none;stroke-opacity:1"
     id="path10919"
     inkscape:connector-curvature="0" /></g><text
   y="-16.382433"
   x="604.22394"
   transform="scale(1,-1)"
   style="font-variant:normal;font-weight:normal;font-size:20.8104px;line-height:0%;font-family:Arial;-inkscape-font-specification:ArialMT;writing-mode:lr-tb;fill:#000000;fill-opacity:1;fill-rule:nonzero;stroke:none"
   id="text10921"><tspan
     x="604.22394"
     y="-16.382433"
     id="tspan10923">y</tspan></text>
<path
   d="m 489.328,364.247 -0.359,0.336 c 0,-0.016 -0.852,-1.07 -1.832,-1.07 -0.512,0 -1.075,0.336 -1.449,0.558 -0.602,0.36 -1.012,0.512 -1.391,0.512 -0.848,0 -1.277,-0.488 -2.414,-1.746 l 0.359,-0.336 c 0,0.027 0.848,1.074 1.832,1.074 0.512,0 1.074,-0.328 1.449,-0.554 0.602,-0.36 1.012,-0.52 1.387,-0.52 0.852,0 1.281,0.5 2.418,1.746 z"
   style="fill:#000000;fill-opacity:1;fill-rule:evenodd;stroke:none"
   id="path10925"
   inkscape:connector-curvature="0" /><path
   d="m 478.828,346.071 0.106,0.176 0.109,0.168 0.102,0.172 0.093,0.168 0.094,0.164 0.09,0.16 0.082,0.16 0.082,0.157 0.078,0.156 0.074,0.152 0.133,0.297 0.063,0.148 0.066,0.145 0.105,0.277 0.106,0.274 0.09,0.269 0.082,0.258 0.074,0.25 0.07,0.242 0.063,0.239 0.058,0.234 0.059,0.223 c 0.777,3.086 1.633,5.773 3.012,7.316 0.273,0.293 0.449,0.492 1.168,0.492 1.543,0 1.586,-1.547 1.586,-1.851 0,-0.407 -0.114,-0.719 -0.114,-0.832 0,-0.161 0.141,-0.161 0.161,-0.161 0.359,0 0.96,0.247 1.523,0.657 0.398,0.304 0.602,0.531 0.602,1.449 0,1.207 -0.629,2.125 -1.875,2.125 -0.719,0 -2.692,-0.18 -4.879,-2.391 -1.789,-1.84 -2.84,-5.867 -3.266,-7.539 -0.406,-1.547 -0.586,-2.242 -1.254,-3.578 -0.16,-0.266 -0.738,-1.258 -1.051,-1.547 -0.601,-0.558 -0.824,-0.961 -0.824,-1.07 0,-0.043 0.039,-0.133 0.203,-0.133 0.082,0 0.551,0.09 1.133,0.469 0.379,0.222 0.426,0.269 0.938,0.808 1.125,-0.027 1.906,-0.226 3.316,-0.632 1.144,-0.309 2.277,-0.645 3.418,-0.645 1.816,0 3.652,1.363 4.363,2.348 0.445,0.601 0.586,1.16 0.586,1.226 0,0.157 -0.141,0.157 -0.164,0.157 -0.355,0 -0.887,-0.247 -1.273,-0.512 -0.606,-0.379 -0.645,-0.512 -0.782,-0.899 -0.113,-0.355 -0.242,-0.531 -0.336,-0.668 -0.175,-0.265 -0.203,-0.265 -0.539,-0.265 -1.074,0 -2.191,0.328 -3.664,0.738 -0.629,0.176 -1.859,0.535 -2.98,0.535 -0.285,0 -0.602,-0.023 -0.887,-0.086 z"
   style="fill:#000000;fill-opacity:1;fill-rule:evenodd;stroke:none"
   id="path10927"
   inkscape:connector-curvature="0" /><g
   id="g10929"
   transform="matrix(1,0,0,-1,0,372.88769)"><path
     d="m 342.223,235.676 163.242,0"
     style="fill:none;stroke:#000000;stroke-width:0.80000001;stroke-linecap:butt;stroke-linejoin:miter;stroke-miterlimit:4;stroke-dasharray:none;stroke-opacity:1"
     id="path10931"
     inkscape:connector-curvature="0" /></g><g
   id="g10933"
   transform="matrix(1,0,0,-1,0,372.88769)"><path
     d="m 459.52,123.086 0,42"
     style="fill:none;stroke:#007c00;stroke-width:0.80000001;stroke-linecap:butt;stroke-linejoin:miter;stroke-miterlimit:4;stroke-dasharray:none;stroke-opacity:1"
     id="path10935"
     inkscape:connector-curvature="0" /></g><g
   id="g10937"
   transform="matrix(0,1,1,0,0,372.88769)"><path
     d="m -157.086,459.52 3.199,-3.2 -11.199,3.2 11.199,3.199 -3.199,-3.199 z"
     style="fill:#007c00;fill-opacity:1;fill-rule:evenodd;stroke:#007c00;stroke-width:0.80000001;stroke-linecap:butt;stroke-linejoin:miter;stroke-miterlimit:4;stroke-dasharray:none;stroke-opacity:1"
     id="path10939"
     inkscape:connector-curvature="0" /></g><g
   id="g10941"
   transform="matrix(1,0,0,-1,0,372.88769)"><path
     d="m 459.52,205.918 0,42"
     style="fill:none;stroke:#007c00;stroke-width:0.80000001;stroke-linecap:butt;stroke-linejoin:miter;stroke-miterlimit:4;stroke-dasharray:none;stroke-opacity:1"
     id="path10943"
     inkscape:connector-curvature="0" /></g><g
   id="g10945"
   transform="matrix(0,1,1,0,0,372.88769)"><path
     d="m -239.918,459.52 3.199,-3.2 -11.199,3.2 11.199,3.199 -3.199,-3.199 z"
     style="fill:#007c00;fill-opacity:1;fill-rule:evenodd;stroke:#007c00;stroke-width:0.80000001;stroke-linecap:butt;stroke-linejoin:miter;stroke-miterlimit:4;stroke-dasharray:none;stroke-opacity:1"
     id="path10947"
     inkscape:connector-curvature="0" /></g><g
   id="g10949"
   transform="matrix(1,0,0,-1,0,372.88769)"><path
     d="m 429.926,20.801 -55.676,0 0,202.988 55.246,0"
     style="fill:none;stroke:#000000;stroke-width:0.80000001;stroke-linecap:butt;stroke-linejoin:miter;stroke-miterlimit:4;stroke-dasharray:none;stroke-opacity:1"
     id="path10951"
     inkscape:connector-curvature="0" /></g><g
   id="g10953"
   transform="matrix(-1,0,0,1,0,372.88769)"><path
     d="m -421.496,-223.789 3.199,-3.199 -11.199,3.199 11.199,3.203 -3.199,-3.203 z"
     style="fill:#000000;fill-opacity:1;fill-rule:evenodd;stroke:#000000;stroke-width:0.80000001;stroke-linecap:butt;stroke-linejoin:miter;stroke-miterlimit:4;stroke-dasharray:none;stroke-opacity:1"
     id="path10955"
     inkscape:connector-curvature="0" /></g><g
   id="g10957"
   transform="matrix(1,0,0,-1,0,372.88769)"><path
     d="m 370.031,140.309 59.321,0"
     style="fill:none;stroke:#000000;stroke-width:0.80000001;stroke-linecap:butt;stroke-linejoin:miter;stroke-miterlimit:4;stroke-dasharray:none;stroke-opacity:1"
     id="path10959"
     inkscape:connector-curvature="0" /></g><g
   id="g10961"
   transform="matrix(-1,0,0,1,0,372.88769)"><path
     d="m -421.352,-140.309 3.2,-3.199 -11.2,3.199 11.2,3.204 -3.2,-3.204 z"
     style="fill:#000000;fill-opacity:1;fill-rule:evenodd;stroke:#000000;stroke-width:0.80000001;stroke-linecap:butt;stroke-linejoin:miter;stroke-miterlimit:4;stroke-dasharray:none;stroke-opacity:1"
     id="path10963"
     inkscape:connector-curvature="0" /></g><g
   id="g10965"
   transform="matrix(1,0,0,-1,0,372.88769)"><path
     d="m 514.727,234.902 c 0,4.965 -4.024,8.989 -8.989,8.989 -4.965,0 -8.992,-4.024 -8.992,-8.989 0,-4.964 4.027,-8.992 8.992,-8.992 4.965,0 8.989,4.028 8.989,8.992 z"
     style="fill:#ffffff;fill-opacity:1;fill-rule:evenodd;stroke:#000000;stroke-width:0.80000001;stroke-linecap:butt;stroke-linejoin:miter;stroke-miterlimit:4;stroke-dasharray:none;stroke-opacity:1"
     id="path10967"
     inkscape:connector-curvature="0" /></g><text
   y="-130.58824"
   x="499.96695"
   transform="scale(1,-1)"
   style="font-variant:normal;font-weight:normal;font-size:20px;line-height:0%;font-family:Arial;-inkscape-font-specification:ArialMT;writing-mode:lr-tb;fill:#000000;fill-opacity:1;fill-rule:nonzero;stroke:none"
   id="text10969"><tspan
     x="499.96695"
     y="-130.58824"
     id="tspan10971">+</tspan></text>
<g
   id="g10973"
   transform="matrix(1,0,0,-1,0,372.88769)"><path
     d="m 341.164,152.531 164.301,0"
     style="fill:none;stroke:#000000;stroke-width:0.80000001;stroke-linecap:butt;stroke-linejoin:miter;stroke-miterlimit:4;stroke-dasharray:none;stroke-opacity:1"
     id="path10975"
     inkscape:connector-curvature="0" /></g><g
   id="g10977"
   transform="matrix(1,0,0,-1,0,372.88769)"><path
     d="m 514.727,151.758 c 0,4.965 -4.024,8.992 -8.989,8.992 -4.965,0 -8.992,-4.027 -8.992,-8.992 0,-4.965 4.027,-8.988 8.992,-8.988 4.965,0 8.989,4.023 8.989,8.988 z"
     style="fill:#ffffff;fill-opacity:1;fill-rule:evenodd;stroke:#000000;stroke-width:0.80000001;stroke-linecap:butt;stroke-linejoin:miter;stroke-miterlimit:4;stroke-dasharray:none;stroke-opacity:1"
     id="path10979"
     inkscape:connector-curvature="0" /></g><text
   y="-213.83209"
   x="499.96695"
   transform="scale(1,-1)"
   style="font-variant:normal;font-weight:normal;font-size:20px;line-height:0%;font-family:Arial;-inkscape-font-specification:ArialMT;writing-mode:lr-tb;fill:#000000;fill-opacity:1;fill-rule:nonzero;stroke:none"
   id="text10981"><tspan
     x="499.96695"
     y="-213.83209"
     id="tspan10983">+</tspan></text>
<g
   id="g10985"
   transform="matrix(1,0,0,-1,0,372.88769)"><path
     d="m 369.867,140.031 c 0,4.965 -4.027,8.989 -8.992,8.989 -4.965,0 -8.992,-4.024 -8.992,-8.989 0,-4.965 4.027,-8.992 8.992,-8.992 4.965,0 8.992,4.027 8.992,8.992 z"
     style="fill:#ffffff;fill-opacity:1;fill-rule:evenodd;stroke:#000000;stroke-width:0.80000001;stroke-linecap:butt;stroke-linejoin:miter;stroke-miterlimit:4;stroke-dasharray:none;stroke-opacity:1"
     id="path10987"
     inkscape:connector-curvature="0" /></g><text
   y="-227.37782"
   x="355.91293"
   transform="scale(1,-1)"
   style="font-variant:normal;font-weight:normal;font-size:20px;line-height:0%;font-family:Arial;-inkscape-font-specification:ArialMT;writing-mode:lr-tb;fill:#000000;fill-opacity:1;fill-rule:nonzero;stroke:none"
   id="text10989"><tspan
     x="355.91293"
     y="-227.37782"
     id="tspan10991">x</tspan><tspan
     x="432.66718"
     y="-226.85716"
     id="tspan10993">B</tspan></text>
<text
   y="-222.85716"
   x="446.02655"
   transform="scale(1,-1)"
   style="font-variant:normal;font-weight:normal;font-size:13px;line-height:0%;font-family:Arial;-inkscape-font-specification:ArialMT;writing-mode:lr-tb;fill:#000000;fill-opacity:1;fill-rule:nonzero;stroke:none"
   id="text10995"><tspan
     x="446.02655"
     y="-222.85716"
     id="tspan10997">2</tspan></text>
<text
   y="-143.57144"
   x="432.66718"
   transform="scale(1,-1)"
   style="font-variant:normal;font-weight:normal;font-size:20px;line-height:0%;font-family:Arial;-inkscape-font-specification:ArialMT;writing-mode:lr-tb;fill:#000000;fill-opacity:1;fill-rule:nonzero;stroke:none"
   id="text10999"><tspan
     x="432.66718"
     y="-143.57144"
     id="tspan11001">B</tspan></text>
<text
   y="-139.57144"
   x="446.02655"
   transform="scale(1,-1)"
   style="font-variant:normal;font-weight:normal;font-size:13px;line-height:0%;font-family:Arial;-inkscape-font-specification:ArialMT;writing-mode:lr-tb;fill:#000000;fill-opacity:1;fill-rule:nonzero;stroke:none"
   id="text11003"><tspan
     x="446.02655"
     y="-139.57144"
     id="tspan11005">1</tspan></text>
<path
   d="m 320.293,227.872 -0.231,-0.156 -0.214,-0.16 -0.207,-0.16 -0.192,-0.161 -0.183,-0.164 -0.176,-0.168 -0.164,-0.164 -0.153,-0.172 -0.148,-0.164 -0.133,-0.168 -0.129,-0.168 -0.113,-0.164 -0.109,-0.164 -0.102,-0.168 -0.098,-0.16 -0.082,-0.16 -0.078,-0.156 -0.074,-0.157 -0.062,-0.152 -0.063,-0.144 -0.047,-0.149 -0.047,-0.137 -0.043,-0.14 -0.031,-0.125 -0.031,-0.129 -0.024,-0.121 -0.023,-0.113 -0.016,-0.114 -0.011,-0.097 -0.008,-0.098 -0.008,-0.086 0,-0.078 c 0,-1.098 0.617,-1.746 0.668,-1.813 0.734,-0.761 0.941,-0.843 2.652,-1.492 l 2.766,-1.07 c 0.344,-0.164 0.805,-0.32 0.805,-0.992 0,-0.524 -0.411,-1.211 -1.122,-1.211 -1,0 -1.761,0.554 -2.015,0.738 -0.133,0.09 -0.156,0.109 -0.246,0.109 -0.188,0 -0.231,-0.16 -0.231,-0.25 0,-0.273 1.211,-1.097 2.492,-1.097 1.426,0 2.376,1.328 2.376,2.453 0,1.098 -0.844,1.508 -1.098,1.625 -0.313,0.113 -1.098,0.406 -1.391,0.523 -0.461,0.184 -0.918,0.364 -1.398,0.528 l -1.371,0.547 c -1.024,0.418 -1.715,1.074 -1.715,2.039 0,0.937 0.887,2.925 2.812,3.89 0.848,-0.304 1.539,-0.304 2.016,-0.304 0.684,0 2.125,0 2.125,0.714 0,0.575 -0.98,0.614 -1.871,0.614 l -0.024,-0.5 c 0.797,0 0.891,-0.024 1.297,-0.137 -0.175,-0.094 -0.406,-0.18 -1.465,-0.18 -0.523,0 -0.73,0 -1.136,0.18 0.523,0.137 1.023,0.137 1.304,0.137 l 0.024,0.5 c -0.418,0 -1.074,0 -1.926,-0.27 -0.594,0.59 -0.687,1.344 -0.687,1.785 0,1.278 0.824,3.039 2.539,3.891 0.418,-0.504 0.941,-0.504 1.465,-0.504 l 0.027,0.504 c -0.438,0 -0.707,0 -0.961,0.207 0.367,0.113 0.848,0.113 1.098,0.113 0.777,0 0.867,-0.027 1.277,-0.14 -0.18,-0.067 -0.41,-0.18 -1.414,-0.18 l -0.027,-0.504 c 0.574,0 2.039,0 2.039,0.711 0,0.598 -1.008,0.613 -1.903,0.613 -0.293,0 -0.847,0 -1.437,-0.113 -0.067,0.203 -0.114,0.367 -0.114,0.754 0,0.324 0.114,0.805 0.114,0.848 0,0.179 -0.114,0.296 -0.282,0.296 -0.406,0 -0.406,-1.046 -0.406,-1.121 0,-0.461 0.137,-0.797 0.16,-0.89 -2.449,-0.692 -4.004,-2.52 -4.004,-4.278 0,-0.843 0.411,-1.808 1.481,-2.425 l -0.293,-0.231 z"
   style="fill:#000000;fill-opacity:1;fill-rule:evenodd;stroke:none"
   id="path11007"
   inkscape:connector-curvature="0" /><g
   id="g11009"
   transform="matrix(1,0,0,-1,0,372.88769)"><path
     d="m 321.496,127.598 4.09,0 c 8.555,0 15.437,6.882 15.437,15.437 l 0,6.387 c 0,8.551 -6.882,15.437 -15.437,15.437 l -4.09,0 c -8.551,0 -15.437,-6.886 -15.437,-15.437 l 0,-6.387 c 0,-8.555 6.886,-15.437 15.437,-15.437 z"
     style="fill:none;stroke:#000000;stroke-width:1.60000002;stroke-linecap:butt;stroke-linejoin:miter;stroke-miterlimit:4;stroke-dasharray:none;stroke-opacity:1"
     id="path11011"
     inkscape:connector-curvature="0" /></g><path
   d="m 321.508,145.962 -0.231,-0.156 -0.218,-0.16 -0.204,-0.161 -0.195,-0.16 -0.183,-0.164 -0.176,-0.168 -0.164,-0.164 -0.153,-0.172 -0.144,-0.164 -0.133,-0.168 -0.129,-0.168 -0.117,-0.164 -0.109,-0.164 -0.102,-0.168 -0.094,-0.16 -0.086,-0.16 -0.078,-0.156 -0.07,-0.157 -0.067,-0.152 -0.058,-0.145 -0.051,-0.148 -0.047,-0.137 -0.039,-0.14 -0.035,-0.125 -0.031,-0.129 -0.024,-0.121 -0.023,-0.114 -0.012,-0.113 -0.015,-0.098 -0.008,-0.097 -0.004,-0.086 0,-0.078 c 0,-1.098 0.613,-1.746 0.664,-1.813 0.734,-0.761 0.941,-0.844 2.656,-1.492 l 2.766,-1.07 c 0.344,-0.164 0.801,-0.321 0.801,-0.992 0,-0.524 -0.407,-1.211 -1.122,-1.211 -1,0 -1.761,0.554 -2.015,0.738 -0.133,0.086 -0.156,0.109 -0.246,0.109 -0.184,0 -0.231,-0.16 -0.231,-0.25 0,-0.273 1.211,-1.097 2.492,-1.097 1.426,0 2.375,1.324 2.375,2.453 0,1.097 -0.843,1.508 -1.097,1.625 -0.313,0.113 -1.098,0.406 -1.391,0.523 -0.457,0.184 -0.918,0.363 -1.394,0.528 l -1.375,0.546 c -1.024,0.418 -1.711,1.075 -1.711,2.039 0,0.938 0.882,2.926 2.808,3.891 0.852,-0.305 1.539,-0.305 2.016,-0.305 0.684,0 2.129,0 2.129,0.711 0,0.575 -0.985,0.618 -1.875,0.618 l -0.024,-0.5 c 0.801,0 0.891,-0.024 1.301,-0.137 -0.18,-0.094 -0.41,-0.18 -1.465,-0.18 -0.523,0 -0.73,0 -1.14,0.18 0.523,0.137 1.023,0.137 1.304,0.137 l 0.024,0.5 c -0.418,0 -1.074,0 -1.926,-0.27 -0.59,0.59 -0.687,1.344 -0.687,1.785 0,1.277 0.828,3.039 2.539,3.891 0.418,-0.504 0.941,-0.504 1.464,-0.504 l 0.028,0.504 c -0.434,0 -0.707,0 -0.957,0.207 0.367,0.113 0.843,0.113 1.097,0.113 0.774,0 0.868,-0.027 1.274,-0.141 -0.176,-0.066 -0.406,-0.179 -1.414,-0.179 l -0.028,-0.504 c 0.575,0 2.04,0 2.04,0.711 0,0.597 -1.004,0.613 -1.903,0.613 -0.293,0 -0.847,0 -1.437,-0.113 -0.067,0.203 -0.114,0.367 -0.114,0.754 0,0.324 0.114,0.804 0.114,0.847 0,0.18 -0.114,0.297 -0.278,0.297 -0.41,0 -0.41,-1.051 -0.41,-1.121 0,-0.461 0.137,-0.797 0.16,-0.89 -2.445,-0.692 -4.004,-2.52 -4.004,-4.278 0,-0.844 0.414,-1.808 1.485,-2.426 l -0.293,-0.23 z"
   style="fill:#000000;fill-opacity:1;fill-rule:evenodd;stroke:none"
   id="path11013"
   inkscape:connector-curvature="0" /><g
   id="g11015"
   transform="matrix(1,0,0,-1,0,372.88769)"><path
     d="m 322.707,209.508 4.094,0 c 8.551,0 15.437,6.887 15.437,15.437 l 0,6.387 c 0,8.551 -6.886,15.438 -15.437,15.438 l -4.094,0 c -8.551,0 -15.437,-6.887 -15.437,-15.438 l 0,-6.387 c 0,-8.55 6.886,-15.437 15.437,-15.437 z"
     style="fill:none;stroke:#000000;stroke-width:1.60000002;stroke-linecap:butt;stroke-linejoin:miter;stroke-miterlimit:4;stroke-dasharray:none;stroke-opacity:1"
     id="path11017"
     inkscape:connector-curvature="0" /></g><g
   id="g11019"
   transform="matrix(1,0,0,-1,0,372.88769)"><path
     d="m 374.555,20.746 -13.332,0 0,110.293"
     style="fill:none;stroke:#000000;stroke-width:0.80000001;stroke-linecap:butt;stroke-linejoin:miter;stroke-miterlimit:4;stroke-dasharray:none;stroke-opacity:1"
     id="path11021"
     inkscape:connector-curvature="0" /></g><g
   id="g11023"
   transform="matrix(1,0,0,-1,0,372.88769)"><path
     d="m 352.043,139.781 -10.895,0"
     style="fill:none;stroke:#000000;stroke-width:0.80000001;stroke-linecap:butt;stroke-linejoin:miter;stroke-miterlimit:4;stroke-dasharray:none;stroke-opacity:1"
     id="path11025"
     inkscape:connector-curvature="0" /></g><g
   id="g11027"
   transform="matrix(1,0,0,-1,0,372.88769)"><path
     d="m 383.031,222.172 c 0,4.965 -4.023,8.992 -8.988,8.992 -4.965,0 -8.992,-4.027 -8.992,-8.992 0,-4.965 4.027,-8.988 8.992,-8.988 4.965,0 8.988,4.023 8.988,8.988 z"
     style="fill:#ffffff;fill-opacity:1;fill-rule:evenodd;stroke:#000000;stroke-width:0.80000001;stroke-linecap:butt;stroke-linejoin:miter;stroke-miterlimit:4;stroke-dasharray:none;stroke-opacity:1"
     id="path11029"
     inkscape:connector-curvature="0" /></g><text
   y="-145.23499"
   x="369.08075"
   transform="scale(1,-1)"
   style="font-variant:normal;font-weight:normal;font-size:20px;line-height:0%;font-family:Arial;-inkscape-font-specification:ArialMT;writing-mode:lr-tb;fill:#000000;fill-opacity:1;fill-rule:nonzero;stroke:none"
   id="text11031"><tspan
     x="369.08075"
     y="-145.23499"
     id="tspan11033">x</tspan></text>
<g
   id="g11035"
   transform="matrix(1,0,0,-1,0,372.88769)"><path
     d="m 365.262,223.035 -23.184,0"
     style="fill:none;stroke:#000000;stroke-width:0.80000001;stroke-linecap:butt;stroke-linejoin:miter;stroke-miterlimit:4;stroke-dasharray:none;stroke-opacity:1"
     id="path11037"
     inkscape:connector-curvature="0" /></g><text
   y="-214.45537"
   x="326.06827"
   transform="scale(1,-1)"
   style="font-variant:normal;font-weight:normal;font-size:13px;line-height:0%;font-family:'DejaVu Sans';-inkscape-font-specification:DejaVuSans;writing-mode:lr-tb;fill:#000000;fill-opacity:1;fill-rule:nonzero;stroke:none"
   id="text11039"><tspan
     x="326.06827"
     y="-214.45537"
     id="tspan11041">2</tspan><tspan
     x="327.17944"
     y="-131.42085"
     id="tspan11043">1</tspan></text>
<text
   y="-97.679604"
   x="473.32599"
   transform="scale(1,-1)"
   style="font-variant:normal;font-weight:normal;font-size:20px;line-height:0%;font-family:Arial;-inkscape-font-specification:ArialMT;writing-mode:lr-tb;fill:#000000;fill-opacity:1;fill-rule:nonzero;stroke:none"
   id="text11155"><tspan
     x="473.32599"
     y="-97.679604"
     id="tspan11157">h</tspan></text>
<text
   y="-93.679604"
   x="484.4588"
   transform="scale(1,-1)"
   style="font-variant:normal;font-weight:normal;font-size:13px;line-height:0%;font-family:Arial;-inkscape-font-specification:ArialMT;writing-mode:lr-tb;fill:#000000;fill-opacity:1;fill-rule:nonzero;stroke:none"
   id="text11159"><tspan
     x="484.4588"
     y="-93.679604"
     id="tspan11161">1</tspan></text>
<text
   y="-180.10805"
   x="473.32599"
   transform="scale(1,-1)"
   style="font-variant:normal;font-weight:normal;font-size:20px;line-height:0%;font-family:Arial;-inkscape-font-specification:ArialMT;writing-mode:lr-tb;fill:#000000;fill-opacity:1;fill-rule:nonzero;stroke:none"
   id="text11163"><tspan
     x="473.32599"
     y="-180.10805"
     id="tspan11165">h</tspan></text>
<text
   y="-176.10805"
   x="484.4588"
   transform="scale(1,-1)"
   style="font-variant:normal;font-weight:normal;font-size:13px;line-height:0%;font-family:Arial;-inkscape-font-specification:ArialMT;writing-mode:lr-tb;fill:#000000;fill-opacity:1;fill-rule:nonzero;stroke:none"
   id="text11167"><tspan
     x="484.4588"
     y="-176.10805"
     id="tspan11169">2</tspan></text>
<g
   id="g11199"
   transform="matrix(1,0,0,-1,0,372.88769)"><path
     d="m 428.527,83.102 105.141,0 c 9.18,0 16.57,7.39 16.57,16.57 l 0,6.859 c 0,9.18 -7.39,16.571 -16.57,16.571 l -105.141,0 c -9.183,0 -16.574,-7.391 -16.574,-16.571 l 0,-6.859 c 0,-9.18 7.391,-16.57 16.574,-16.57 z"
     style="fill:none;stroke:#000000;stroke-width:1.60000002;stroke-linecap:butt;stroke-linejoin:miter;stroke-miterlimit:4;stroke-dasharray:none;stroke-opacity:1"
     id="path11201"
     inkscape:connector-curvature="0" /></g><g
   id="g11203"
   transform="matrix(1,0,0,-1,0,372.88769)"><path
     d="m 505.238,83.625 0,-42"
     style="fill:none;stroke:#000000;stroke-width:0.80000001;stroke-linecap:butt;stroke-linejoin:miter;stroke-miterlimit:4;stroke-dasharray:none;stroke-opacity:1"
     id="path11205"
     inkscape:connector-curvature="0" /></g><g
   id="g11207"
   transform="matrix(0,-1,-1,0,0,372.88769)"><path
     d="m 49.625,-505.238 3.203,-3.203 -11.203,3.203 11.203,3.199 -3.203,-3.199 z"
     style="fill:#000000;fill-opacity:1;fill-rule:evenodd;stroke:#000000;stroke-width:0.80000001;stroke-linecap:butt;stroke-linejoin:miter;stroke-miterlimit:4;stroke-dasharray:none;stroke-opacity:1"
     id="path11209"
     inkscape:connector-curvature="0" /></g><g
   id="g11211"
   transform="matrix(1,0,0,-1,0,372.88769)"><path
     d="m 458.961,40.172 0,42"
     style="fill:none;stroke:#007c00;stroke-width:0.80000001;stroke-linecap:butt;stroke-linejoin:miter;stroke-miterlimit:4;stroke-dasharray:none;stroke-opacity:1"
     id="path11213"
     inkscape:connector-curvature="0" /></g><g
   id="g11215"
   transform="matrix(0,1,1,0,0,372.88769)"><path
     d="m -74.172,458.961 3.199,-3.203 -11.199,3.203 11.199,3.199 -3.199,-3.199 z"
     style="fill:#007c00;fill-opacity:1;fill-rule:evenodd;stroke:#007c00;stroke-width:0.80000001;stroke-linecap:butt;stroke-linejoin:miter;stroke-miterlimit:4;stroke-dasharray:none;stroke-opacity:1"
     id="path11217"
     inkscape:connector-curvature="0" /></g><text
   y="-262.39374"
   x="471.62228"
   transform="scale(1,-1)"
   style="font-variant:normal;font-weight:normal;font-size:20px;line-height:0%;font-family:Arial;-inkscape-font-specification:ArialMT;writing-mode:lr-tb;fill:#000000;fill-opacity:1;fill-rule:nonzero;stroke:none"
   id="text11219"><tspan
     x="471.62228"
     y="-262.39374"
     id="tspan11221">o</tspan></text>
<text
   transform="scale(1,-1)"
   id="text11942-9"
   y="-396.13373"
   x="386.76443"
   style="font-style:normal;font-weight:normal;line-height:0%;font-family:sans-serif;letter-spacing:0px;word-spacing:0px;fill:#000000;fill-opacity:1;stroke:none;stroke-width:1px;stroke-linecap:butt;stroke-linejoin:miter;stroke-opacity:1"
   xml:space="preserve"><tspan
     style="font-size:24px;line-height:1.25"
     y="-396.13373"
     x="386.76443"
     id="tspan11944-8"
     sodipodi:role="line">node perturbation</tspan></text>
<text
   transform="scale(1,-1)"
   xml:space="preserve"
   style="font-style:normal;font-weight:normal;font-size:25.5172px;line-height:1.25;font-family:sans-serif;fill:#000000;fill-opacity:1;stroke:none;stroke-width:0.63793"
   x="522.76465"
   y="-48.890076"
   id="text1359"><tspan
     sodipodi:role="line"
     id="tspan1357"
     x="522.76465"
     y="-48.890076"
     style="stroke-width:0.63793">W<tspan
   style="font-size:16.5862px;baseline-shift:super;stroke-width:0.63793"
   id="tspan1361">0</tspan></tspan></text><text
   transform="scale(1,-1)"
   id="text1359-0"
   y="-134.69817"
   x="522.76465"
   style="font-style:normal;font-weight:normal;font-size:25.5172px;line-height:1.25;font-family:sans-serif;fill:#000000;fill-opacity:1;stroke:none;stroke-width:0.63793"
   xml:space="preserve"><tspan
     style="stroke-width:0.63793"
     y="-134.69817"
     x="522.76465"
     id="tspan1357-2"
     sodipodi:role="line">W<tspan
   id="tspan1361-3"
   style="font-size:16.5862px;baseline-shift:super;stroke-width:0.63793">1</tspan></tspan></text><text
   transform="scale(1,-1)"
   id="text1359-9"
   y="-223.9386"
   x="522.76465"
   style="font-style:normal;font-weight:normal;font-size:25.5172px;line-height:1.25;font-family:sans-serif;fill:#000000;fill-opacity:1;stroke:none;stroke-width:0.63793"
   xml:space="preserve"><tspan
     style="stroke-width:0.63793"
     y="-223.9386"
     x="522.76465"
     id="tspan1357-9"
     sodipodi:role="line">W<tspan
   id="tspan1361-7"
   style="font-size:16.5862px;baseline-shift:super;stroke-width:0.63793">2</tspan></tspan></text></g></svg>
