<?xml version="1.0" encoding="UTF-8" standalone="no"?>
<!-- Created with Inkscape (http://www.inkscape.org/) -->

<svg
   xmlns:dc="http://purl.org/dc/elements/1.1/"
   xmlns:cc="http://creativecommons.org/ns#"
   xmlns:rdf="http://www.w3.org/1999/02/22-rdf-syntax-ns#"
   xmlns:svg="http://www.w3.org/2000/svg"
   xmlns="http://www.w3.org/2000/svg"
   xmlns:sodipodi="http://sodipodi.sourceforge.net/DTD/sodipodi-0.dtd"
   xmlns:inkscape="http://www.inkscape.org/namespaces/inkscape"
   id="svg10853"
   version="1.1"
   inkscape:version="0.91 r13725"
   xml:space="preserve"
   width="311.33624"
   height="517.95801"
   viewBox="0 0 311.33624 517.95801"
   sodipodi:docname="fig1_schematic_fa.svg"
   inkscape:export-filename="/home/lansdell/projects/presentations/rddwatson/assets/fig1_schematic_np.png"
   inkscape:export-xdpi="300.08224"
   inkscape:export-ydpi="300.08224"><metadata
     id="metadata10859"><rdf:RDF><cc:Work
         rdf:about=""><dc:format>image/svg+xml</dc:format><dc:type
           rdf:resource="http://purl.org/dc/dcmitype/StillImage" /><dc:title></dc:title></cc:Work></rdf:RDF></metadata><defs
     id="defs10857" /><sodipodi:namedview
     pagecolor="#ffffff"
     bordercolor="#666666"
     borderopacity="1"
     objecttolerance="10"
     gridtolerance="10"
     guidetolerance="10"
     inkscape:pageopacity="0"
     inkscape:pageshadow="2"
     inkscape:window-width="1855"
     inkscape:window-height="1056"
     id="namedview10855"
     showgrid="false"
     fit-margin-top="0"
     fit-margin-left="0"
     fit-margin-right="0"
     fit-margin-bottom="0"
     inkscape:zoom="1.3023509"
     inkscape:cx="41.473316"
     inkscape:cy="224.0539"
     inkscape:window-x="65"
     inkscape:window-y="24"
     inkscape:window-maximized="1"
     inkscape:current-layer="g10861" /><g
     id="g10861"
     inkscape:groupmode="layer"
     inkscape:label="fig1_schematic"
     transform="matrix(1.25,0,0,-1.25,-513.94125,517.96013)"><g
       transform="matrix(1,0,0,-1,0,372.88769)"
       id="g10865"><path
         inkscape:connector-curvature="0"
         id="path10867"
         style="fill:none;stroke:#000000;stroke-width:1.60000002;stroke-linecap:butt;stroke-linejoin:miter;stroke-miterlimit:4;stroke-dasharray:none;stroke-opacity:1"
         d="m 427.371,332.086 102.285,0 0,40 -102.285,0 0,-40 z" /></g><g
       transform="matrix(1,0,0,-1,0,372.88769)"
       id="g10869"><path
         inkscape:connector-curvature="0"
         id="path10871"
         style="fill:none;stroke:#000000;stroke-width:1.60000002;stroke-linecap:butt;stroke-linejoin:miter;stroke-miterlimit:4;stroke-dasharray:none;stroke-opacity:1"
         d="m 429.086,166.801 105.144,0 c 9.18,0 16.571,7.39 16.571,16.574 l 0,6.855 c 0,9.18 -7.391,16.571 -16.571,16.571 l -105.144,0 c -9.18,0 -16.57,-7.391 -16.57,-16.571 l 0,-6.855 c 0,-9.184 7.39,-16.574 16.57,-16.574 z" /></g><g
       transform="matrix(1,0,0,-1,0,372.88769)"
       id="g10873"><path
         inkscape:connector-curvature="0"
         id="path10875"
         style="fill:none;stroke:#000000;stroke-width:1.60000002;stroke-linecap:butt;stroke-linejoin:miter;stroke-miterlimit:4;stroke-dasharray:none;stroke-opacity:1"
         d="m 429.086,249.66 105.144,0 c 9.18,0 16.571,7.391 16.571,16.57 l 0,6.856 c 0,9.184 -7.391,16.574 -16.571,16.574 l -105.144,0 c -9.18,0 -16.57,-7.39 -16.57,-16.574 l 0,-6.856 c 0,-9.179 7.39,-16.57 16.57,-16.57 z" /></g><g
       transform="matrix(1,0,0,-1,0,372.88769)"
       id="g10877"><path
         inkscape:connector-curvature="0"
         id="path10879"
         style="fill:none;stroke:#000000;stroke-width:1.60000002;stroke-linecap:butt;stroke-linejoin:miter;stroke-miterlimit:4;stroke-dasharray:none;stroke-opacity:1"
         d="m 447.27,0.945 72.402,0 c 9.18,0 16.57,7.391 16.57,16.571 l 0,6.859 c 0,9.18 -7.39,16.57 -16.57,16.57 l -72.402,0 c -9.18,0 -16.571,-7.39 -16.571,-16.57 l 0,-6.859 c 0,-9.18 7.391,-16.571 16.571,-16.571 z" /></g><g
       transform="matrix(1,0,0,-1,0,372.88769)"
       id="g10881"><path
         inkscape:connector-curvature="0"
         id="path10883"
         style="fill:none;stroke:#000000;stroke-width:0.80000001;stroke-linecap:butt;stroke-linejoin:miter;stroke-miterlimit:4;stroke-dasharray:none;stroke-opacity:1"
         d="m 505.801,331.801 0,-42" /></g><g
       transform="matrix(0,-1,-1,0,0,372.88769)"
       id="g10885"><path
         inkscape:connector-curvature="0"
         id="path10887"
         style="fill:#000000;fill-opacity:1;fill-rule:evenodd;stroke:#000000;stroke-width:0.80000001;stroke-linecap:butt;stroke-linejoin:miter;stroke-miterlimit:4;stroke-dasharray:none;stroke-opacity:1"
         d="m 297.801,-505.801 3.203,-3.199 -11.203,3.199 11.203,3.199 -3.203,-3.199 z" /></g><g
       transform="matrix(1,0,0,-1,0,372.88769)"
       id="g10889"><path
         inkscape:connector-curvature="0"
         id="path10891"
         style="fill:none;stroke:#000000;stroke-width:0.80000001;stroke-linecap:butt;stroke-linejoin:miter;stroke-miterlimit:4;stroke-dasharray:none;stroke-opacity:1"
         d="m 505.801,250.184 0,-42" /></g><g
       transform="matrix(0,-1,-1,0,0,372.88769)"
       id="g10893"><path
         inkscape:connector-curvature="0"
         id="path10895"
         style="fill:#000000;fill-opacity:1;fill-rule:evenodd;stroke:#000000;stroke-width:0.80000001;stroke-linecap:butt;stroke-linejoin:miter;stroke-miterlimit:4;stroke-dasharray:none;stroke-opacity:1"
         d="m 216.184,-505.801 3.199,-3.199 -11.199,3.199 11.199,3.199 -3.199,-3.199 z" /></g><g
       transform="matrix(1,0,0,-1,0,372.88769)"
       id="g10897"><path
         inkscape:connector-curvature="0"
         id="path10899"
         style="fill:none;stroke:#000000;stroke-width:0.80000001;stroke-linecap:butt;stroke-linejoin:miter;stroke-miterlimit:4;stroke-dasharray:none;stroke-opacity:1"
         d="m 505.801,166.543 0,-42" /></g><g
       transform="matrix(0,-1,-1,0,0,372.88769)"
       id="g10901"><path
         inkscape:connector-curvature="0"
         id="path10903"
         style="fill:#000000;fill-opacity:1;fill-rule:evenodd;stroke:#000000;stroke-width:0.80000001;stroke-linecap:butt;stroke-linejoin:miter;stroke-miterlimit:4;stroke-dasharray:none;stroke-opacity:1"
         d="m 132.543,-505.801 3.199,-3.199 -11.199,3.199 11.199,3.199 -3.199,-3.199 z" /></g><g
       transform="matrix(1,0,0,-1,0,372.88769)"
       id="g10905"><path
         inkscape:connector-curvature="0"
         id="path10907"
         style="fill:none;stroke:#000000;stroke-width:0.80000001;stroke-linecap:butt;stroke-linejoin:miter;stroke-miterlimit:4;stroke-dasharray:none;stroke-opacity:1"
         d="m 609.016,332.719 0,-311.828 -72.61,0" /></g><g
       transform="matrix(1,0,0,-1,0,372.88769)"
       id="g10909"><path
         inkscape:connector-curvature="0"
         id="path10911"
         style="fill:#000000;fill-opacity:1;fill-rule:evenodd;stroke:#000000;stroke-width:0.80000001;stroke-linecap:butt;stroke-linejoin:miter;stroke-miterlimit:4;stroke-dasharray:none;stroke-opacity:1"
         d="m 544.406,20.891 3.199,-3.2 -11.199,3.2 11.199,3.199 -3.199,-3.199 z" /></g><text
       id="text10913"
       style="font-variant:normal;font-weight:normal;font-size:20.81035614px;font-family:Arial;-inkscape-font-specification:ArialMT;writing-mode:lr-tb;fill:#000000;fill-opacity:1;fill-rule:nonzero;stroke:none"
       transform="scale(1,-1)"
       x="472.22391"
       y="-16.382414"><tspan
         id="tspan10915"
         y="-16.382414"
         x="472.22391">x</tspan></text>
<g
       transform="matrix(1,0,0,-1,0,372.88769)"
       id="g10917"><path
         inkscape:connector-curvature="0"
         id="path10919"
         style="fill:none;stroke:#000000;stroke-width:1.60000002;stroke-linecap:butt;stroke-linejoin:miter;stroke-miterlimit:4;stroke-dasharray:none;stroke-opacity:1"
         d="m 557.137,332.086 102.285,0 0,40 -102.285,0 0,-40 z" /></g><text
       id="text10921"
       style="font-variant:normal;font-weight:normal;font-size:20.81035614px;font-family:Arial;-inkscape-font-specification:ArialMT;writing-mode:lr-tb;fill:#000000;fill-opacity:1;fill-rule:nonzero;stroke:none"
       transform="scale(1,-1)"
       x="604.22394"
       y="-16.382433"><tspan
         id="tspan10923"
         y="-16.382433"
         x="604.22394">y</tspan></text>
<path
       inkscape:connector-curvature="0"
       id="path10925"
       style="fill:#000000;fill-opacity:1;fill-rule:evenodd;stroke:none"
       d="m 489.328,364.247 -0.359,0.336 c 0,-0.016 -0.852,-1.07 -1.832,-1.07 -0.512,0 -1.075,0.336 -1.449,0.558 -0.602,0.36 -1.012,0.512 -1.391,0.512 -0.848,0 -1.277,-0.488 -2.414,-1.746 l 0.359,-0.336 c 0,0.027 0.848,1.074 1.832,1.074 0.512,0 1.074,-0.328 1.449,-0.554 0.602,-0.36 1.012,-0.52 1.387,-0.52 0.852,0 1.281,0.5 2.418,1.746 z" /><path
       inkscape:connector-curvature="0"
       id="path10927"
       style="fill:#000000;fill-opacity:1;fill-rule:evenodd;stroke:none"
       d="m 478.828,346.071 0.106,0.176 0.109,0.168 0.102,0.172 0.093,0.168 0.094,0.164 0.09,0.16 0.082,0.16 0.082,0.157 0.078,0.156 0.074,0.152 0.133,0.297 0.063,0.148 0.066,0.145 0.105,0.277 0.106,0.274 0.09,0.269 0.082,0.258 0.074,0.25 0.07,0.242 0.063,0.239 0.058,0.234 0.059,0.223 c 0.777,3.086 1.633,5.773 3.012,7.316 0.273,0.293 0.449,0.492 1.168,0.492 1.543,0 1.586,-1.547 1.586,-1.851 0,-0.407 -0.114,-0.719 -0.114,-0.832 0,-0.161 0.141,-0.161 0.161,-0.161 0.359,0 0.96,0.247 1.523,0.657 0.398,0.304 0.602,0.531 0.602,1.449 0,1.207 -0.629,2.125 -1.875,2.125 -0.719,0 -2.692,-0.18 -4.879,-2.391 -1.789,-1.84 -2.84,-5.867 -3.266,-7.539 -0.406,-1.547 -0.586,-2.242 -1.254,-3.578 -0.16,-0.266 -0.738,-1.258 -1.051,-1.547 -0.601,-0.558 -0.824,-0.961 -0.824,-1.07 0,-0.043 0.039,-0.133 0.203,-0.133 0.082,0 0.551,0.09 1.133,0.469 0.379,0.222 0.426,0.269 0.938,0.808 1.125,-0.027 1.906,-0.226 3.316,-0.632 1.144,-0.309 2.277,-0.645 3.418,-0.645 1.816,0 3.652,1.363 4.363,2.348 0.445,0.601 0.586,1.16 0.586,1.226 0,0.157 -0.141,0.157 -0.164,0.157 -0.355,0 -0.887,-0.247 -1.273,-0.512 -0.606,-0.379 -0.645,-0.512 -0.782,-0.899 -0.113,-0.355 -0.242,-0.531 -0.336,-0.668 -0.175,-0.265 -0.203,-0.265 -0.539,-0.265 -1.074,0 -2.191,0.328 -3.664,0.738 -0.629,0.176 -1.859,0.535 -2.98,0.535 -0.285,0 -0.602,-0.023 -0.887,-0.086 z" /><g
       transform="matrix(1,0,0,-1,0,372.88769)"
       id="g10933"><path
         inkscape:connector-curvature="0"
         id="path10935"
         style="fill:none;stroke:#007c00;stroke-width:0.80000001;stroke-linecap:butt;stroke-linejoin:miter;stroke-miterlimit:4;stroke-dasharray:none;stroke-opacity:1"
         d="m 459.52,123.086 0,42" /></g><g
       transform="matrix(0,1,1,0,0,372.88769)"
       id="g10937"><path
         inkscape:connector-curvature="0"
         id="path10939"
         style="fill:#007c00;fill-opacity:1;fill-rule:evenodd;stroke:#007c00;stroke-width:0.80000001;stroke-linecap:butt;stroke-linejoin:miter;stroke-miterlimit:4;stroke-dasharray:none;stroke-opacity:1"
         d="m -157.086,459.52 3.199,-3.2 -11.199,3.2 11.199,3.199 -3.199,-3.199 z" /></g><g
       transform="matrix(1,0,0,-1,0,372.88769)"
       id="g10941"><path
         inkscape:connector-curvature="0"
         id="path10943"
         style="fill:none;stroke:#007c00;stroke-width:0.80000001;stroke-linecap:butt;stroke-linejoin:miter;stroke-miterlimit:4;stroke-dasharray:none;stroke-opacity:1"
         d="m 459.52,205.918 0,42" /></g><g
       transform="matrix(0,1,1,0,0,372.88769)"
       id="g10945"><path
         inkscape:connector-curvature="0"
         id="path10947"
         style="fill:#007c00;fill-opacity:1;fill-rule:evenodd;stroke:#007c00;stroke-width:0.80000001;stroke-linecap:butt;stroke-linejoin:miter;stroke-miterlimit:4;stroke-dasharray:none;stroke-opacity:1"
         d="m -239.918,459.52 3.199,-3.2 -11.199,3.2 11.199,3.199 -3.199,-3.199 z" /></g><text
       id="text10989"
       style="font-variant:normal;font-weight:normal;font-size:19.99999809px;font-family:Arial;-inkscape-font-specification:ArialMT;writing-mode:lr-tb;fill:#000000;fill-opacity:1;fill-rule:nonzero;stroke:none"
       transform="scale(1,-1)"
       x="355.91293"
       y="-227.37782"><tspan
         id="tspan10993"
         y="-226.85716"
         x="432.66718">B</tspan></text>
<text
       id="text10995"
       style="font-variant:normal;font-weight:normal;font-size:12.99999905px;font-family:Arial;-inkscape-font-specification:ArialMT;writing-mode:lr-tb;fill:#000000;fill-opacity:1;fill-rule:nonzero;stroke:none"
       transform="scale(1,-1)"
       x="446.02655"
       y="-222.85716"><tspan
         id="tspan10997"
         y="-222.85716"
         x="446.02655">2</tspan></text>
<text
       id="text10999"
       style="font-variant:normal;font-weight:normal;font-size:19.99999809px;font-family:Arial;-inkscape-font-specification:ArialMT;writing-mode:lr-tb;fill:#000000;fill-opacity:1;fill-rule:nonzero;stroke:none"
       transform="scale(1,-1)"
       x="432.66718"
       y="-143.57144"><tspan
         id="tspan11001"
         y="-143.57144"
         x="432.66718">B</tspan></text>
<text
       id="text11003"
       style="font-variant:normal;font-weight:normal;font-size:12.99999905px;font-family:Arial;-inkscape-font-specification:ArialMT;writing-mode:lr-tb;fill:#000000;fill-opacity:1;fill-rule:nonzero;stroke:none"
       transform="scale(1,-1)"
       x="446.02655"
       y="-139.57144"><tspan
         id="tspan11005"
         y="-139.57144"
         x="446.02655">1</tspan></text>
<text
       id="text11155"
       style="font-variant:normal;font-weight:normal;font-size:19.99999809px;font-family:Arial;-inkscape-font-specification:ArialMT;writing-mode:lr-tb;fill:#000000;fill-opacity:1;fill-rule:nonzero;stroke:none"
       transform="scale(1,-1)"
       x="473.32599"
       y="-97.679604"><tspan
         id="tspan11157"
         y="-97.679604"
         x="473.32599">h</tspan></text>
<text
       id="text11159"
       style="font-variant:normal;font-weight:normal;font-size:12.99999905px;font-family:Arial;-inkscape-font-specification:ArialMT;writing-mode:lr-tb;fill:#000000;fill-opacity:1;fill-rule:nonzero;stroke:none"
       transform="scale(1,-1)"
       x="484.4588"
       y="-93.679604"><tspan
         id="tspan11161"
         y="-93.679604"
         x="484.4588">1</tspan></text>
<text
       id="text11163"
       style="font-variant:normal;font-weight:normal;font-size:19.99999809px;font-family:Arial;-inkscape-font-specification:ArialMT;writing-mode:lr-tb;fill:#000000;fill-opacity:1;fill-rule:nonzero;stroke:none"
       transform="scale(1,-1)"
       x="473.32599"
       y="-180.10805"><tspan
         id="tspan11165"
         y="-180.10805"
         x="473.32599">h</tspan></text>
<text
       id="text11167"
       style="font-variant:normal;font-weight:normal;font-size:12.99999905px;font-family:Arial;-inkscape-font-specification:ArialMT;writing-mode:lr-tb;fill:#000000;fill-opacity:1;fill-rule:nonzero;stroke:none"
       transform="scale(1,-1)"
       x="484.4588"
       y="-176.10805"><tspan
         id="tspan11169"
         y="-176.10805"
         x="484.4588">2</tspan></text>
<g
       transform="matrix(1,0,0,-1,0,372.88769)"
       id="g11199"><path
         inkscape:connector-curvature="0"
         id="path11201"
         style="fill:none;stroke:#000000;stroke-width:1.60000002;stroke-linecap:butt;stroke-linejoin:miter;stroke-miterlimit:4;stroke-dasharray:none;stroke-opacity:1"
         d="m 428.527,83.102 105.141,0 c 9.18,0 16.57,7.39 16.57,16.57 l 0,6.859 c 0,9.18 -7.39,16.571 -16.57,16.571 l -105.141,0 c -9.183,0 -16.574,-7.391 -16.574,-16.571 l 0,-6.859 c 0,-9.18 7.391,-16.57 16.574,-16.57 z" /></g><g
       transform="matrix(1,0,0,-1,0,372.88769)"
       id="g11203"><path
         inkscape:connector-curvature="0"
         id="path11205"
         style="fill:none;stroke:#000000;stroke-width:0.80000001;stroke-linecap:butt;stroke-linejoin:miter;stroke-miterlimit:4;stroke-dasharray:none;stroke-opacity:1"
         d="m 505.238,83.625 0,-42" /></g><g
       transform="matrix(0,-1,-1,0,0,372.88769)"
       id="g11207"><path
         inkscape:connector-curvature="0"
         id="path11209"
         style="fill:#000000;fill-opacity:1;fill-rule:evenodd;stroke:#000000;stroke-width:0.80000001;stroke-linecap:butt;stroke-linejoin:miter;stroke-miterlimit:4;stroke-dasharray:none;stroke-opacity:1"
         d="m 49.625,-505.238 3.203,-3.203 -11.203,3.203 11.203,3.199 -3.203,-3.199 z" /></g><g
       transform="matrix(1,0,0,-1,0,372.88769)"
       id="g11211"><path
         inkscape:connector-curvature="0"
         id="path11213"
         style="fill:none;stroke:#007c00;stroke-width:0.80000001;stroke-linecap:butt;stroke-linejoin:miter;stroke-miterlimit:4;stroke-dasharray:none;stroke-opacity:1"
         d="m 458.961,40.172 0,42" /></g><g
       transform="matrix(0,1,1,0,0,372.88769)"
       id="g11215"><path
         inkscape:connector-curvature="0"
         id="path11217"
         style="fill:#007c00;fill-opacity:1;fill-rule:evenodd;stroke:#007c00;stroke-width:0.80000001;stroke-linecap:butt;stroke-linejoin:miter;stroke-miterlimit:4;stroke-dasharray:none;stroke-opacity:1"
         d="m -74.172,458.961 3.199,-3.203 -11.199,3.203 11.199,3.199 -3.199,-3.199 z" /></g><text
       id="text11219"
       style="font-variant:normal;font-weight:normal;font-size:19.99999809px;font-family:Arial;-inkscape-font-specification:ArialMT;writing-mode:lr-tb;fill:#000000;fill-opacity:1;fill-rule:nonzero;stroke:none"
       transform="scale(1,-1)"
       x="471.62228"
       y="-262.39374"><tspan
         id="tspan11221"
         y="-262.39374"
         x="471.62228">o</tspan></text>
<text
       xml:space="preserve"
       style="font-style:normal;font-weight:normal;font-size:48px;line-height:125%;font-family:sans-serif;letter-spacing:0px;word-spacing:0px;fill:#000000;fill-opacity:1;stroke:none;stroke-width:1px;stroke-linecap:butt;stroke-linejoin:miter;stroke-opacity:1"
       x="412.36453"
       y="-396.13373"
       id="text11942-9"
       sodipodi:linespacing="125%"
       transform="scale(1,-1)"><tspan
         sodipodi:role="line"
         id="tspan11944-8"
         x="412.36453"
         y="-396.13373"
         style="font-size:24px">feedback alignment</tspan></text>
</g></svg>