<?xml version="1.0" encoding="UTF-8" standalone="no"?>
<svg
   xmlns:dc="http://purl.org/dc/elements/1.1/"
   xmlns:cc="http://creativecommons.org/ns#"
   xmlns:rdf="http://www.w3.org/1999/02/22-rdf-syntax-ns#"
   xmlns:svg="http://www.w3.org/2000/svg"
   xmlns="http://www.w3.org/2000/svg"
   xmlns:sodipodi="http://sodipodi.sourceforge.net/DTD/sodipodi-0.dtd"
   xmlns:inkscape="http://www.inkscape.org/namespaces/inkscape"
   sodipodi:docname="fig1_schematic_bp.svg"
   inkscape:version="1.0beta2 (2b71d25, 2019-12-03)"
   version="1.1"
   id="svg5993"
   viewBox="0 0 325.81502 517.95806"
   height="146.17928mm"
   width="91.95224mm">
  <defs
     id="defs5995" />
  <sodipodi:namedview
     inkscape:document-rotation="0"
     inkscape:window-maximized="1"
     inkscape:window-y="23"
     inkscape:window-x="0"
     inkscape:window-height="761"
     inkscape:window-width="1440"
     fit-margin-bottom="0"
     fit-margin-right="0"
     fit-margin-left="0"
     fit-margin-top="0"
     showgrid="false"
     inkscape:current-layer="layer1"
     inkscape:document-units="px"
     inkscape:cy="259.04772"
     inkscape:cx="-88.780211"
     inkscape:zoom="0.83401582"
     inkscape:pageshadow="2"
     inkscape:pageopacity="0.0"
     borderopacity="1.0"
     bordercolor="#666666"
     pagecolor="#ffffff"
     id="base" />
  <metadata
     id="metadata5998">
    <rdf:RDF>
      <cc:Work
         rdf:about="">
        <dc:format>image/svg+xml</dc:format>
        <dc:type
           rdf:resource="http://purl.org/dc/dcmitype/StillImage" />
        <dc:title />
      </cc:Work>
    </rdf:RDF>
  </metadata>
  <g
     transform="translate(211.47894,-993.38312)"
     id="layer1"
     inkscape:groupmode="layer"
     inkscape:label="Layer 1">
    <g
       id="g11045"
       transform="matrix(1.25,0,0,1.25,-224.72516,1045.2337)">
      <path
         d="m 38.398,332.086 102.285,0 0,40 -102.285,0 0,-40 z"
         style="fill:none;stroke:#000000;stroke-width:1.60000002;stroke-linecap:butt;stroke-linejoin:miter;stroke-miterlimit:4;stroke-dasharray:none;stroke-opacity:1"
         id="path11047"
         inkscape:connector-curvature="0" />
    </g>
    <g
       id="g11049"
       transform="matrix(1.25,0,0,1.25,-224.72516,1045.2337)">
      <path
         d="m 40.113,166.801 105.145,0 c 9.18,0 16.57,7.39 16.57,16.574 l 0,6.855 c 0,9.18 -7.39,16.571 -16.57,16.571 l -105.145,0 c -9.179,0 -16.57,-7.391 -16.57,-16.571 l 0,-6.855 c 0,-9.184 7.391,-16.574 16.57,-16.574 z"
         style="fill:none;stroke:#000000;stroke-width:1.60000002;stroke-linecap:butt;stroke-linejoin:miter;stroke-miterlimit:4;stroke-dasharray:none;stroke-opacity:1"
         id="path11051"
         inkscape:connector-curvature="0" />
    </g>
    <g
       id="g11053"
       transform="matrix(1.25,0,0,1.25,-224.72516,1045.2337)">
      <path
         d="m 40.113,249.66 105.145,0 c 9.18,0 16.57,7.391 16.57,16.57 l 0,6.856 c 0,9.184 -7.39,16.574 -16.57,16.574 l -105.145,0 c -9.179,0 -16.57,-7.39 -16.57,-16.574 l 0,-6.856 c 0,-9.179 7.391,-16.57 16.57,-16.57 z"
         style="fill:none;stroke:#000000;stroke-width:1.60000002;stroke-linecap:butt;stroke-linejoin:miter;stroke-miterlimit:4;stroke-dasharray:none;stroke-opacity:1"
         id="path11055"
         inkscape:connector-curvature="0" />
    </g>
    <g
       id="g11057"
       transform="matrix(1.25,0,0,1.25,-224.72516,1045.2337)">
      <path
         d="m 116.828,331.801 0,-42"
         style="fill:none;stroke:#000000;stroke-width:0.80000001;stroke-linecap:butt;stroke-linejoin:miter;stroke-miterlimit:4;stroke-dasharray:none;stroke-opacity:1"
         id="path11059"
         inkscape:connector-curvature="0" />
    </g>
    <g
       id="g11061"
       transform="matrix(0,1.25,-1.25,0,-224.72516,1045.2337)">
      <path
         d="m 297.801,-116.828 3.203,-3.199 -11.203,3.199 11.203,3.199 -3.203,-3.199 z"
         style="fill:#000000;fill-opacity:1;fill-rule:evenodd;stroke:#000000;stroke-width:0.80000001;stroke-linecap:butt;stroke-linejoin:miter;stroke-miterlimit:4;stroke-dasharray:none;stroke-opacity:1"
         id="path11063"
         inkscape:connector-curvature="0" />
    </g>
    <g
       id="g11065"
       transform="matrix(1.25,0,0,1.25,-224.72516,1045.2337)">
      <path
         d="m 116.828,250.184 0,-42"
         style="fill:none;stroke:#000000;stroke-width:0.80000001;stroke-linecap:butt;stroke-linejoin:miter;stroke-miterlimit:4;stroke-dasharray:none;stroke-opacity:1"
         id="path11067"
         inkscape:connector-curvature="0" />
    </g>
    <g
       id="g11069"
       transform="matrix(0,1.25,-1.25,0,-224.72516,1045.2337)">
      <path
         d="m 216.184,-116.828 3.199,-3.199 -11.199,3.199 11.199,3.199 -3.199,-3.199 z"
         style="fill:#000000;fill-opacity:1;fill-rule:evenodd;stroke:#000000;stroke-width:0.80000001;stroke-linecap:butt;stroke-linejoin:miter;stroke-miterlimit:4;stroke-dasharray:none;stroke-opacity:1"
         id="path11071"
         inkscape:connector-curvature="0" />
    </g>
    <g
       id="g11073"
       transform="matrix(1.25,0,0,1.25,-224.72516,1045.2337)">
      <path
         d="m 116.828,166.543 0,-42"
         style="fill:none;stroke:#000000;stroke-width:0.80000001;stroke-linecap:butt;stroke-linejoin:miter;stroke-miterlimit:4;stroke-dasharray:none;stroke-opacity:1"
         id="path11075"
         inkscape:connector-curvature="0" />
    </g>
    <g
       id="g11077"
       transform="matrix(0,1.25,-1.25,0,-224.72516,1045.2337)">
      <path
         d="m 132.543,-116.828 3.199,-3.199 -11.199,3.199 11.199,3.199 -3.199,-3.199 z"
         style="fill:#000000;fill-opacity:1;fill-rule:evenodd;stroke:#000000;stroke-width:0.80000001;stroke-linecap:butt;stroke-linejoin:miter;stroke-miterlimit:4;stroke-dasharray:none;stroke-opacity:1"
         id="path11079"
         inkscape:connector-curvature="0" />
    </g>
    <g
       id="g11081"
       transform="matrix(1.25,0,0,1.25,-224.72516,1045.2337)">
      <path
         d="m 220.043,332.719 0,-311.824 -72.609,0"
         style="fill:none;stroke:#000000;stroke-width:0.80000001;stroke-linecap:butt;stroke-linejoin:miter;stroke-miterlimit:4;stroke-dasharray:none;stroke-opacity:1"
         id="path11083"
         inkscape:connector-curvature="0" />
    </g>
    <g
       id="g11085"
       transform="matrix(1.25,0,0,1.25,-224.72516,1045.2337)">
      <path
         d="m 155.434,20.895 3.199,-3.2 -11.199,3.2 11.199,3.199 -3.199,-3.199 z"
         style="fill:#000000;fill-opacity:1;fill-rule:evenodd;stroke:#000000;stroke-width:0.80000001;stroke-linecap:butt;stroke-linejoin:miter;stroke-miterlimit:4;stroke-dasharray:none;stroke-opacity:1"
         id="path11087"
         inkscape:connector-curvature="0" />
    </g>
    <text
       y="1490.8654"
       x="-120.66202"
       style="font-variant:normal;font-weight:normal;font-size:26.0129px;line-height:0%;font-family:Arial;-inkscape-font-specification:ArialMT;writing-mode:lr-tb;fill:#000000;fill-opacity:1;fill-rule:nonzero;stroke:none"
       id="text11089"><tspan
         x="-120.66202"
         y="1490.8654"
         id="tspan11091">x</tspan></text>
    <g
       id="g11093"
       transform="matrix(1.25,0,0,1.25,-224.72516,1045.2337)">
      <path
         d="m 168.164,332.086 102.285,0 0,40 -102.285,0 0,-40 z"
         style="fill:none;stroke:#000000;stroke-width:1.60000002;stroke-linecap:butt;stroke-linejoin:miter;stroke-miterlimit:4;stroke-dasharray:none;stroke-opacity:1"
         id="path11095"
         inkscape:connector-curvature="0" />
    </g>
    <text
       y="1490.8652"
       x="44.337963"
       style="font-variant:normal;font-weight:normal;font-size:26.0129px;line-height:0%;font-family:Arial;-inkscape-font-specification:ArialMT;writing-mode:lr-tb;fill:#000000;fill-opacity:1;fill-rule:nonzero;stroke:none"
       id="text11097"><tspan
         x="44.337963"
         y="1490.8652"
         id="tspan11099">y</tspan></text>
    <g
       id="g11101"
       transform="matrix(1.25,0,0,1.25,-224.72516,1045.2337)">
      <path
         d="m 70.547,123.086 0,42"
         style="fill:none;stroke:#007c00;stroke-width:0.80000001;stroke-linecap:butt;stroke-linejoin:miter;stroke-miterlimit:4;stroke-dasharray:none;stroke-opacity:1"
         id="path11103"
         inkscape:connector-curvature="0" />
    </g>
    <g
       id="g11105"
       transform="matrix(0,-1.25,1.25,0,-224.72516,1045.2337)">
      <path
         d="m -157.086,70.547 3.199,-3.199 -11.199,3.199 11.199,3.199 -3.199,-3.199 z"
         style="fill:#007c00;fill-opacity:1;fill-rule:evenodd;stroke:#007c00;stroke-width:0.80000001;stroke-linecap:butt;stroke-linejoin:miter;stroke-miterlimit:4;stroke-dasharray:none;stroke-opacity:1"
         id="path11107"
         inkscape:connector-curvature="0" />
    </g>
    <g
       id="g11109"
       transform="matrix(1.25,0,0,1.25,-224.72516,1045.2337)">
      <path
         d="m 70.547,205.918 0,42"
         style="fill:none;stroke:#007c00;stroke-width:0.80000001;stroke-linecap:butt;stroke-linejoin:miter;stroke-miterlimit:4;stroke-dasharray:none;stroke-opacity:1"
         id="path11111"
         inkscape:connector-curvature="0" />
    </g>
    <g
       id="g11113"
       transform="matrix(0,-1.25,1.25,0,-224.72516,1045.2337)">
      <path
         d="m -239.918,70.547 3.199,-3.199 -11.199,3.199 11.199,3.199 -3.199,-3.199 z"
         style="fill:#007c00;fill-opacity:1;fill-rule:evenodd;stroke:#007c00;stroke-width:0.80000001;stroke-linecap:butt;stroke-linejoin:miter;stroke-miterlimit:4;stroke-dasharray:none;stroke-opacity:1"
         id="path11115"
         inkscape:connector-curvature="0" />
    </g>
    <text
       y="1227.7719"
       x="-176.16888"
       style="font-variant:normal;font-weight:normal;font-size:25px;line-height:0%;font-family:Arial;-inkscape-font-specification:ArialMT;writing-mode:lr-tb;fill:#000000;fill-opacity:1;fill-rule:nonzero;stroke:none"
       id="text11117"><tspan
         x="-176.16888"
         y="1227.7719"
         id="tspan11119">W</tspan></text>
    <text
       y="1232.7719"
       x="-152.5849"
       style="font-variant:normal;font-weight:normal;font-size:16.25px;line-height:0%;font-family:Arial;-inkscape-font-specification:ArialMT;writing-mode:lr-tb;fill:#000000;fill-opacity:1;fill-rule:nonzero;stroke:none"
       id="text11121"><tspan
         x="-152.5849"
         y="1232.7719"
         id="tspan11123">2</tspan></text>
    <text
       y="1331.879"
       x="-176.16888"
       style="font-variant:normal;font-weight:normal;font-size:25px;line-height:0%;font-family:Arial;-inkscape-font-specification:ArialMT;writing-mode:lr-tb;fill:#000000;fill-opacity:1;fill-rule:nonzero;stroke:none"
       id="text11125"><tspan
         x="-176.16888"
         y="1331.879"
         id="tspan11127">W</tspan></text>
    <text
       y="1336.879"
       x="-152.5849"
       style="font-variant:normal;font-weight:normal;font-size:16.25px;line-height:0%;font-family:Arial;-inkscape-font-specification:ArialMT;writing-mode:lr-tb;fill:#000000;fill-opacity:1;fill-rule:nonzero;stroke:none"
       id="text11129"><tspan
         x="-152.5849"
         y="1336.879"
         id="tspan11131">1</tspan></text>
    <path
       d="m -112.56641,1078.7396 0.13625,-0.225 0.13625,-0.215 0.1275,-0.2138 0.1225,-0.21 0.11625,-0.205 0.1125,-0.2062 0.1025,-0.2 0.1025,-0.195 0.1025,-0.2 0.0888,-0.19 0.0875,-0.1863 0.0825,-0.19 0.0787,-0.1862 0.0775,-0.18 0.1375,-0.3513 0.13125,-0.3425 0.1125,-0.3412 0.1075,-0.3225 0.0925,-0.3175 0.0875,-0.3025 0.0787,-0.3025 0.0725,-0.2938 0.0738,-0.2825 c 0.98125,-3.8825 2.06125,-7.2712 3.79875,-9.2187 0.3425,-0.3663 0.56125,-0.6163 1.47,-0.6163 1.94375,0 1.9975,1.9488 1.9975,2.33 0,0.5175 -0.1425,0.9075 -0.1425,1.05 0,0.2 0.17125,0.2 0.2,0.2 0.455,0 1.21125,-0.3075 1.92,-0.825 0.5025,-0.3862 0.75625,-0.665 0.75625,-1.8262 0,-1.5188 -0.79125,-2.6763 -2.36375,-2.6763 -0.9025,0 -3.3875,0.23 -6.1425,3.0075 -2.255,2.32 -3.57876,7.3925 -4.11626,9.5025 -0.5075,1.9475 -0.73625,2.8225 -1.57625,4.5063 -0.205,0.3375 -0.9325,1.5875 -1.32375,1.9487 -0.75625,0.7075 -1.04,1.2113 -1.04,1.3525 0,0.049 0.0487,0.1613 0.25375,0.1613 0.1075,0 0.69375,-0.1125 1.43125,-0.5863 0.47375,-0.2825 0.53625,-0.3412 1.18125,-1.02 1.41625,0.034 2.3975,0.2825 4.17501,0.8 1.44,0.3813 2.87125,0.8063 4.30625,0.8063 2.285,0 4.6,-1.7138 5.498749,-2.9588 0.56125,-0.7575 0.7375,-1.455 0.7375,-1.5437 0,-0.195 -0.17625,-0.195 -0.20625,-0.195 -0.45375,0 -1.117499,0.3075 -1.606249,0.645 -0.76125,0.4775 -0.815,0.6437 -0.98625,1.1275 -0.14125,0.4537 -0.3025,0.6737 -0.42,0.845 -0.22375,0.3312 -0.25875,0.3312 -0.67875,0.3312 -1.3525,0 -2.76375,-0.41 -4.61375,-0.9275 -0.79625,-0.22 -2.34375,-0.6687 -3.76,-0.6687 -0.36126,0 -0.75626,0.025 -1.11751,0.1075 z"
       style="fill:#000000;fill-opacity:1;fill-rule:evenodd;stroke:none"
       id="path11137"
       inkscape:connector-curvature="0" />
    <text
       y="1389.2438"
       x="-120.71302"
       style="font-variant:normal;font-weight:normal;font-size:25px;line-height:0%;font-family:Arial;-inkscape-font-specification:ArialMT;writing-mode:lr-tb;fill:#000000;fill-opacity:1;fill-rule:nonzero;stroke:none"
       id="text11139"><tspan
         x="-120.71302"
         y="1389.2438"
         id="tspan11141">h</tspan></text>
    <text
       y="1394.2438"
       x="-106.797"
       style="font-variant:normal;font-weight:normal;font-size:16.25px;line-height:0%;font-family:Arial;-inkscape-font-specification:ArialMT;writing-mode:lr-tb;fill:#000000;fill-opacity:1;fill-rule:nonzero;stroke:none"
       id="text11143"><tspan
         x="-106.797"
         y="1394.2438"
         id="tspan11145">1</tspan></text>
    <text
       y="1286.2083"
       x="-120.71302"
       style="font-variant:normal;font-weight:normal;font-size:25px;line-height:0%;font-family:Arial;-inkscape-font-specification:ArialMT;writing-mode:lr-tb;fill:#000000;fill-opacity:1;fill-rule:nonzero;stroke:none"
       id="text11147"><tspan
         x="-120.71302"
         y="1286.2083"
         id="tspan11149">h</tspan></text>
    <text
       y="1291.2083"
       x="-106.797"
       style="font-variant:normal;font-weight:normal;font-size:16.25px;line-height:0%;font-family:Arial;-inkscape-font-specification:ArialMT;writing-mode:lr-tb;fill:#000000;fill-opacity:1;fill-rule:nonzero;stroke:none"
       id="text11151"><tspan
         x="-106.797"
         y="1291.2083"
         id="tspan11153">2</tspan></text>
    <g
       id="g11171"
       transform="matrix(1.25,0,0,1.25,-224.72516,1045.2337)">
      <path
         d="m 40.113,83.102 105.145,0 c 9.18,0 16.57,7.39 16.57,16.57 l 0,6.859 c 0,9.18 -7.39,16.571 -16.57,16.571 l -105.145,0 c -9.179,0 -16.57,-7.391 -16.57,-16.571 l 0,-6.859 c 0,-9.18 7.391,-16.57 16.57,-16.57 z"
         style="fill:none;stroke:#000000;stroke-width:1.60000002;stroke-linecap:butt;stroke-linejoin:miter;stroke-miterlimit:4;stroke-dasharray:none;stroke-opacity:1"
         id="path11173"
         inkscape:connector-curvature="0" />
    </g>
    <g
       id="g11175"
       transform="matrix(1.25,0,0,1.25,-224.72516,1045.2337)">
      <path
         d="m 116.828,83.625 0,-42"
         style="fill:none;stroke:#000000;stroke-width:0.80000001;stroke-linecap:butt;stroke-linejoin:miter;stroke-miterlimit:4;stroke-dasharray:none;stroke-opacity:1"
         id="path11177"
         inkscape:connector-curvature="0" />
    </g>
    <g
       id="g11179"
       transform="matrix(0,1.25,-1.25,0,-224.72516,1045.2337)">
      <path
         d="m 49.625,-116.828 3.203,-3.199 -11.203,3.199 11.203,3.199 -3.203,-3.199 z"
         style="fill:#000000;fill-opacity:1;fill-rule:evenodd;stroke:#000000;stroke-width:0.80000001;stroke-linecap:butt;stroke-linejoin:miter;stroke-miterlimit:4;stroke-dasharray:none;stroke-opacity:1"
         id="path11181"
         inkscape:connector-curvature="0" />
    </g>
    <g
       id="g11183"
       transform="matrix(1.25,0,0,1.25,-224.72516,1045.2337)">
      <path
         d="m 70.547,40.172 0,42"
         style="fill:none;stroke:#007c00;stroke-width:0.80000001;stroke-linecap:butt;stroke-linejoin:miter;stroke-miterlimit:4;stroke-dasharray:none;stroke-opacity:1"
         id="path11185"
         inkscape:connector-curvature="0" />
    </g>
    <g
       id="g11187"
       transform="matrix(0,-1.25,1.25,0,-224.72516,1045.2337)">
      <path
         d="m -74.172,70.547 3.199,-3.199 -11.199,3.199 11.199,3.199 -3.199,-3.199 z"
         style="fill:#007c00;fill-opacity:1;fill-rule:evenodd;stroke:#007c00;stroke-width:0.80000001;stroke-linecap:butt;stroke-linejoin:miter;stroke-miterlimit:4;stroke-dasharray:none;stroke-opacity:1"
         id="path11189"
         inkscape:connector-curvature="0" />
    </g>
    <text
       y="1183.3512"
       x="-120.71302"
       style="font-variant:normal;font-weight:normal;font-size:25px;line-height:0%;font-family:Arial;-inkscape-font-specification:ArialMT;writing-mode:lr-tb;fill:#000000;fill-opacity:1;fill-rule:nonzero;stroke:none"
       id="text11191"><tspan
         x="-120.71302"
         y="1183.3512"
         id="tspan11193">o</tspan></text>
    <g
       id="g11195"
       transform="matrix(1.25,0,0,1.25,-224.72516,1045.2337)">
      <path
         d="m 58.297,0.945 72.402,0 c 9.18,0 16.571,7.391 16.571,16.571 l 0,6.859 c 0,9.18 -7.391,16.57 -16.571,16.57 l -72.402,0 c -9.184,0 -16.574,-7.39 -16.574,-16.57 l 0,-6.859 c 0,-9.18 7.39,-16.571 16.574,-16.571 z"
         style="fill:none;stroke:#000000;stroke-width:1.60000002;stroke-linecap:butt;stroke-linejoin:miter;stroke-miterlimit:4;stroke-dasharray:none;stroke-opacity:1"
         id="path11197"
         inkscape:connector-curvature="0" />
    </g>
    <text
       id="text11942"
       y="1016.1761"
       x="-172.20355"
       style="font-style:normal;font-weight:normal;line-height:0%;font-family:sans-serif;letter-spacing:0px;word-spacing:0px;fill:#000000;fill-opacity:1;stroke:none;stroke-width:1px;stroke-linecap:butt;stroke-linejoin:miter;stroke-opacity:1"
       xml:space="preserve"><tspan
         style="font-size:30px;line-height:1.25"
         y="1016.1761"
         x="-172.20355"
         id="tspan11944"
         sodipodi:role="line">backpropagation</tspan></text>
    <text
       id="text11117-8"
       style="font-variant:normal;font-weight:normal;font-size:25px;line-height:0%;font-family:Arial;-inkscape-font-specification:ArialMT;writing-mode:lr-tb;fill:#000000;fill-opacity:1;fill-rule:nonzero;stroke:none;stroke-width:1"
       x="-58.140545"
       y="1227.7719"><tspan
         style="stroke-width:1"
         id="tspan11119-3"
         y="1227.7719"
         x="-58.140545">W</tspan></text>
    <text
       id="text11121-8"
       style="font-variant:normal;font-weight:normal;font-size:16.25px;line-height:0%;font-family:Arial;-inkscape-font-specification:ArialMT;writing-mode:lr-tb;fill:#000000;fill-opacity:1;fill-rule:nonzero;stroke:none;stroke-width:1"
       x="-34.556561"
       y="1232.7719"><tspan
         style="stroke-width:1"
         id="tspan11123-1"
         y="1232.7719"
         x="-34.556561">2</tspan></text>
    <text
       id="text11125-5"
       style="font-variant:normal;font-weight:normal;font-size:25px;line-height:0%;font-family:Arial;-inkscape-font-specification:ArialMT;writing-mode:lr-tb;fill:#000000;fill-opacity:1;fill-rule:nonzero;stroke:none;stroke-width:1"
       x="-58.140545"
       y="1331.8789"><tspan
         style="stroke-width:1"
         id="tspan11127-3"
         y="1331.8789"
         x="-58.140545">W</tspan></text>
    <text
       id="text11129-5"
       style="font-variant:normal;font-weight:normal;font-size:16.25px;line-height:0%;font-family:Arial;-inkscape-font-specification:ArialMT;writing-mode:lr-tb;fill:#000000;fill-opacity:1;fill-rule:nonzero;stroke:none;stroke-width:1"
       x="-34.556561"
       y="1336.879"><tspan
         style="stroke-width:1"
         id="tspan11131-4"
         y="1336.879"
         x="-34.556561">1</tspan></text>
  </g>
</svg>
