<?xml version="1.0" encoding="UTF-8" standalone="no"?>
<svg
   xmlns:dc="http://purl.org/dc/elements/1.1/"
   xmlns:cc="http://creativecommons.org/ns#"
   xmlns:rdf="http://www.w3.org/1999/02/22-rdf-syntax-ns#"
   xmlns:svg="http://www.w3.org/2000/svg"
   xmlns="http://www.w3.org/2000/svg"
   xmlns:sodipodi="http://sodipodi.sourceforge.net/DTD/sodipodi-0.dtd"
   xmlns:inkscape="http://www.inkscape.org/namespaces/inkscape"
   inkscape:version="1.0beta2 (2b71d25, 2019-12-03)"
   sodipodi:docname="policy.svg"
   viewBox="0 0 784.83368 770.2674"
   height="770.2674"
   width="784.83368"
   xml:space="preserve"
   id="svg833"
   version="1.1"><metadata
     id="metadata839"><rdf:RDF><cc:Work
         rdf:about=""><dc:format>image/svg+xml</dc:format><dc:type
           rdf:resource="http://purl.org/dc/dcmitype/StillImage" /><dc:title></dc:title></cc:Work></rdf:RDF></metadata><defs
     id="defs837" /><sodipodi:namedview
     inkscape:current-layer="g841"
     inkscape:window-maximized="0"
     inkscape:window-y="25"
     inkscape:window-x="0"
     inkscape:cy="385.1337"
     inkscape:cx="392.41684"
     inkscape:zoom="0.7179325"
     showgrid="false"
     id="namedview835"
     inkscape:window-height="875"
     inkscape:window-width="1440"
     inkscape:pageshadow="2"
     inkscape:pageopacity="0"
     guidetolerance="10"
     gridtolerance="10"
     objecttolerance="10"
     borderopacity="1"
     inkscape:document-rotation="0"
     bordercolor="#666666"
     pagecolor="#ffffff" /><g
     transform="matrix(1.3333333,0,0,-1.3333333,0,770.26742)"
     inkscape:label="policy"
     inkscape:groupmode="layer"
     id="g841"><g
       id="g843"><path
         inkscape:connector-curvature="0"
         id="path845"
         style="fill:#d0d0d0;fill-opacity:0.860696;fill-rule:evenodd;stroke:none"
         d="m 456.977,143.427 c 0,0 88.449,49.934 96.773,18.184 5.828,-22.227 6.105,-28.625 -1.008,-57.782 -8.191,-33.554 -95.765,39.598 -95.765,39.598 z" /><path
         inkscape:connector-curvature="0"
         id="path847"
         style="fill:#d0d0d0;fill-opacity:0.860696;fill-rule:evenodd;stroke:none"
         d="m 456.777,142.622 c 0,0 -70.16,-71.875 -41.418,-84.25 25.192,-10.843 29.879,-13.925 66.973,-15.3 8.125,-0.305 -25.555,99.55 -25.555,99.55 z" /><path
         inkscape:connector-curvature="0"
         id="path849"
         style="fill:#d0d0d0;fill-opacity:0.860696;fill-rule:evenodd;stroke:none"
         d="m 456.574,143.025 c 0,0 -10.297,99.179 -40.004,87.277 -16.332,-6.547 -24.73,-11.133 -37.98,-22.828 -25.414,-22.441 78.187,-65.055 78.187,-65.055" /><path
         inkscape:connector-curvature="0"
         id="path851"
         style="fill:#9dc7e3;fill-opacity:1;fill-rule:evenodd;stroke:none"
         d="m 266.465,205.415 c 0,-18.019 -15.602,-32.629 -34.852,-32.629 -19.25,0 -34.855,14.61 -34.855,32.629 0,18.02 15.605,32.629 34.855,32.629 19.25,0 34.852,-14.609 34.852,-32.629 z" /><path
         inkscape:connector-curvature="0"
         id="path853"
         style="fill:#d4acac;fill-opacity:1;fill-rule:evenodd;stroke:none"
         d="M 79.121,32.63 C 79.121,14.607 63.52,0.001 44.27,0.001 25.02,0.001 9.414,14.607 9.414,32.63 c 0,18.02 15.606,32.629 34.856,32.629 19.25,0 34.851,-14.609 34.851,-32.629 z" /><path
         inkscape:connector-curvature="0"
         id="path855"
         style="fill:#ead7b6;fill-opacity:0.860696;fill-rule:evenodd;stroke:none"
         d="m 241.566,36.138 c 0,-18.019 -15.605,-32.629 -34.851,-32.629 -19.25,0 -34.856,14.61 -34.856,32.629 0,18.023 15.606,32.629 34.856,32.629 19.246,0 34.851,-14.606 34.851,-32.629 z" /><path
         inkscape:connector-curvature="0"
         id="path857"
         style="fill:#ead7b6;fill-opacity:0.860696;fill-rule:evenodd;stroke:none"
         d="m 464.137,440.181 98.996,-3.637 c 0,0 -0.856,-30.703 -7.477,-44.043 -7.176,-14.468 -20.277,-25.574 -33.133,-35.355 -9.804,-7.461 -20.742,-14.328 -32.726,-17.172 -11.34,-2.691 -34.953,0.605 -34.953,0.605 z" /><path
         inkscape:connector-curvature="0"
         id="path859"
         style="fill:#d4acac;fill-opacity:1;fill-rule:evenodd;stroke:none"
         d="m 394.422,512.611 c 0,0 -27.152,-24.52 -27.734,-49.727 -0.59,-25.418 4.441,-66.808 21.355,-85.789 15.273,-17.133 66.234,-36.269 66.234,-36.269 l 9.285,99.5 z" /><path
         inkscape:connector-curvature="0"
         id="path861"
         style="fill:#767676;fill-opacity:0.303483;fill-rule:evenodd;stroke:none"
         d="M 227.824,553.173 219.945,347.806 30.238,365.638 Z" /><g
         transform="matrix(1,0,0,-1,0,577.70056)"
         id="g863"><path
           inkscape:connector-curvature="0"
           id="path865"
           style="fill:none;stroke:#000000;stroke-width:1.6;stroke-linecap:butt;stroke-linejoin:miter;stroke-miterlimit:4;stroke-dasharray:none;stroke-opacity:1"
           d="m 227.926,24.629 -69.5,120.41 61.418,84.856" /></g><path
         inkscape:connector-curvature="0"
         id="path867"
         style="fill:#000000;fill-opacity:1;fill-rule:evenodd;stroke:none"
         d="m 247.723,555.208 v 0.18 l -0.004,0.195 -0.024,0.422 -0.015,0.227 -0.024,0.222 -0.023,0.239 -0.035,0.234 -0.039,0.246 -0.043,0.246 -0.051,0.242 -0.059,0.25 -0.066,0.243 -0.07,0.242 -0.082,0.234 -0.09,0.239 -0.102,0.23 -0.101,0.219 -0.118,0.211 -0.125,0.211 -0.132,0.195 -0.145,0.184 -0.16,0.171 -0.168,0.157 -0.18,0.144 -0.094,0.07 -0.097,0.059 -0.098,0.055 -0.101,0.058 -0.106,0.047 -0.109,0.047 -0.11,0.039 -0.117,0.035 -0.121,0.028 -0.121,0.031 -0.125,0.016 -0.129,0.011 -0.133,0.012 h -0.133 l -0.027,-0.629 c 1.406,0 1.574,-1.84 1.574,-3.476 0,-1.411 -0.222,-2.879 -0.918,-5.723 h -6.004 c 0.493,1.844 1.067,4.14 2.211,6.183 0.786,1.403 1.84,3.016 3.137,3.016 l 0.027,0.629 c -3.988,0 -8.418,-8.098 -8.418,-14.68 0,-2.703 0.829,-5.894 3.454,-5.894 v 0.633 c -0.957,0 -1.563,0.839 -1.563,3.503 0,1.211 0.172,2.879 0.922,5.688 h 5.98 c -0.308,-1.316 -0.914,-3.758 -2.015,-5.832 -1,-1.957 -2.09,-3.359 -3.324,-3.359 v -0.633 c 4.043,0 8.414,8.25 8.414,14.683 z" /><path
         inkscape:connector-curvature="0"
         id="path869"
         style="fill:#000000;fill-opacity:1;fill-rule:evenodd;stroke:none"
         d="m 255.707,564.005 v 0.18 l -0.004,0.023 v 0.071 l -0.008,0.015 v 0.028 l -0.004,0.019 v 0.012 l -0.007,0.012 v 0.015 l -0.012,0.024 -0.004,0.023 -0.012,0.016 -0.011,0.019 -0.012,0.016 -0.012,0.019 -0.019,0.012 -0.016,0.012 -0.016,0.004 -0.023,0.011 -0.024,0.008 -0.031,0.004 -0.012,0.008 h -0.007 l -0.02,0.004 h -0.027 l -0.02,0.008 h -0.074 l -0.016,0.004 h -0.214 c -1.286,-1.27 -3.11,-1.286 -3.934,-1.286 v -0.722 c 0.484,0 1.812,0 2.906,0.555 v -10.247 c 0,-0.668 0,-0.925 -2.008,-0.925 h -0.754 v -0.723 c 0.356,0.02 2.825,0.082 3.575,0.082 0.625,0 3.156,-0.062 3.593,-0.082 v 0.723 h -0.761 c -2.012,0 -2.012,0.257 -2.012,0.925 z" /><g
         transform="matrix(1,0,0,-1,0,577.70056)"
         id="g871"><path
           inkscape:connector-curvature="0"
           id="path873"
           style="fill:none;stroke:#000000;stroke-width:1.6;stroke-linecap:butt;stroke-linejoin:miter;stroke-miterlimit:4;stroke-dasharray:none;stroke-opacity:1"
           d="M 30.16,212.016 158.125,144.938" /></g><path
         inkscape:connector-curvature="0"
         id="path875"
         style="fill:#000000;fill-opacity:1;fill-rule:evenodd;stroke:none"
         d="m 233.055,337.255 v 0.18 l -0.004,0.195 -0.012,0.207 -0.012,0.211 -0.015,0.227 -0.024,0.226 -0.023,0.235 -0.035,0.238 -0.039,0.242 -0.043,0.246 -0.051,0.242 -0.059,0.25 -0.07,0.243 -0.066,0.242 -0.082,0.234 -0.094,0.238 -0.098,0.231 -0.101,0.219 -0.118,0.215 -0.125,0.207 -0.132,0.195 -0.145,0.183 -0.164,0.176 -0.164,0.153 -0.18,0.144 -0.094,0.07 -0.195,0.118 -0.105,0.054 -0.102,0.047 -0.109,0.047 -0.11,0.039 -0.117,0.035 -0.121,0.032 -0.121,0.027 -0.125,0.016 -0.129,0.011 -0.133,0.012 h -0.133 l -0.027,-0.629 c 1.406,0 1.574,-1.84 1.574,-3.477 0,-1.406 -0.226,-2.878 -0.918,-5.722 h -6.004 c 0.493,1.847 1.067,4.14 2.211,6.183 0.782,1.403 1.84,3.016 3.137,3.016 l 0.027,0.629 c -3.988,0 -8.417,-8.098 -8.417,-14.68 0,-2.703 0.828,-5.894 3.453,-5.894 v 0.636 c -0.957,0 -1.563,0.836 -1.563,3.5 0,1.211 0.172,2.879 0.922,5.688 h 5.98 c -0.308,-1.316 -0.914,-3.754 -2.015,-5.832 -1,-1.953 -2.09,-3.356 -3.324,-3.356 v -0.636 c 4.043,0 8.414,8.25 8.414,14.687 z" /><path
         inkscape:connector-curvature="0"
         id="path877"
         style="fill:#000000;fill-opacity:1;fill-rule:evenodd;stroke:none"
         d="m 244.453,336.927 h -0.68 c -0.058,-0.441 -0.265,-1.633 -0.527,-1.832 -0.152,-0.113 -1.699,-0.113 -1.98,-0.113 h -3.704 c 2.11,1.863 2.813,2.422 4.02,3.367 1.488,1.187 2.871,2.434 2.871,4.344 0,2.433 -2.121,3.922 -4.699,3.922 -2.492,0 -4.184,-1.746 -4.184,-3.594 0,-1.031 0.868,-1.129 1.075,-1.129 0.472,0 1.058,0.348 1.058,1.066 0,0.36 -0.141,1.063 -1.187,1.063 0.625,1.422 1.992,1.863 2.937,1.863 2.012,0 3.055,-1.558 3.055,-3.191 0,-1.746 -1.242,-3.133 -1.891,-3.852 l -4.84,-4.789 c -0.207,-0.18 -0.207,-0.223 -0.207,-0.785 h 8.285 z" /><path
         inkscape:connector-curvature="0"
         id="path879"
         style="fill:#000000;fill-opacity:1;fill-rule:evenodd;stroke:none"
         d="m 19.656,345.611 v 0.179 l -0.004,0.196 -0.011,0.207 -0.012,0.215 -0.02,0.222 -0.019,0.227 -0.024,0.234 -0.035,0.238 -0.043,0.243 -0.039,0.25 -0.051,0.242 -0.058,0.246 -0.07,0.242 -0.067,0.242 -0.082,0.239 -0.094,0.234 -0.097,0.23 -0.102,0.219 -0.117,0.215 -0.125,0.207 -0.133,0.195 -0.144,0.188 -0.164,0.172 -0.165,0.156 -0.179,0.145 -0.094,0.066 -0.195,0.117 -0.106,0.059 -0.101,0.047 -0.219,0.086 -0.117,0.035 -0.242,0.054 -0.125,0.02 -0.129,0.012 -0.133,0.011 h -0.133 l -0.027,-0.629 c 1.406,0 1.574,-1.839 1.574,-3.48 0,-1.406 -0.227,-2.879 -0.918,-5.719 h -6.004 c 0.492,1.844 1.066,4.141 2.211,6.18 0.781,1.402 1.84,3.019 3.137,3.019 l 0.027,0.629 c -3.992,0 -8.422,-8.101 -8.422,-14.679 0,-2.707 0.832,-5.895 3.457,-5.895 v 0.633 c -0.957,0 -1.562,0.836 -1.562,3.5 0,1.211 0.172,2.879 0.922,5.687 h 5.98 c -0.309,-1.312 -0.918,-3.753 -2.02,-5.832 -0.996,-1.953 -2.085,-3.355 -3.32,-3.355 v -0.633 c 4.043,0 8.414,8.246 8.414,14.684 z" /><path
         inkscape:connector-curvature="0"
         id="path881"
         style="fill:#000000;fill-opacity:1;fill-rule:evenodd;stroke:none"
         d="m 26.398,348.337 0.145,-0.004 0.145,-0.007 0.14,-0.016 0.137,-0.024 0.133,-0.027 0.132,-0.035 0.129,-0.039 0.121,-0.047 0.122,-0.059 0.113,-0.058 0.117,-0.067 0.109,-0.07 0.102,-0.082 0.098,-0.086 0.097,-0.094 0.094,-0.097 0.086,-0.102 0.082,-0.109 0.082,-0.121 0.074,-0.121 0.125,-0.266 0.059,-0.145 0.051,-0.144 0.047,-0.156 0.039,-0.16 0.035,-0.168 0.031,-0.172 0.023,-0.18 0.012,-0.187 0.012,-0.196 0.004,-0.195 c 0,-2.496 -1.453,-3.234 -2.614,-3.234 -0.808,0 -2.578,0.218 -3.421,1.406 0.941,0.035 1.168,0.703 1.168,1.125 0,0.64 -0.485,1.101 -1.11,1.101 -0.558,0 -1.129,-0.347 -1.129,-1.164 0,-1.894 2.094,-3.117 4.528,-3.117 2.793,0 4.722,1.875 4.722,3.883 0,1.57 -1.281,3.137 -3.5,3.594 2.11,0.765 2.879,2.273 2.879,3.5 0,1.586 -1.828,2.777 -4.055,2.777 -2.238,0 -3.941,-1.094 -3.941,-2.695 0,-0.688 0.438,-1.067 1.047,-1.067 0.621,0 1.02,0.461 1.02,1.02 0,0.59 -0.399,1.012 -1.02,1.043 0.703,0.894 2.082,1.109 2.832,1.109 0.898,0 2.168,-0.437 2.168,-2.187 0,-0.848 -0.277,-1.77 -0.805,-2.387 -0.66,-0.766 -1.222,-0.813 -2.23,-0.867 -0.508,-0.043 -0.543,-0.043 -0.641,-0.063 -0.047,0 -0.207,-0.039 -0.207,-0.265 0,-0.278 0.18,-0.278 0.52,-0.278 z" /><g
         transform="matrix(1,0,0,-1,0,577.70056)"
         id="g883"><path
           inkscape:connector-curvature="0"
           id="path885"
           style="fill:none;stroke:#000000;stroke-width:0.8;stroke-linecap:butt;stroke-linejoin:miter;stroke-miterlimit:4;stroke-dasharray:2.4, 0.8;stroke-dashoffset:0;stroke-opacity:1"
           d="M 130.348,117.203 91.422,76.133" /></g><g
         transform="matrix(0.947826,-1,-1,-0.947826,0,577.70056)"
         id="g887"><path
           inkscape:connector-curvature="0"
           id="path889"
           style="fill:#000000;fill-opacity:1;fill-rule:evenodd;stroke:#000000;stroke-width:0.290315;stroke-linecap:butt;stroke-linejoin:miter;stroke-miterlimit:4;stroke-dasharray:none;stroke-opacity:1"
           d="m 88.07,-10.146 1.162,-1.16 -4.064,1.159 4.064,1.161 z" /></g><g
         transform="matrix(1,0,0,-1,0,577.70056)"
         id="g891"><path
           inkscape:connector-curvature="0"
           id="path893"
           style="fill:none;stroke:#000000;stroke-width:0.8;stroke-linecap:butt;stroke-linejoin:miter;stroke-miterlimit:4;stroke-dasharray:2.4, 0.8;stroke-dashoffset:0;stroke-opacity:1"
           d="m 223.602,132.992 56.265,1.918" /></g><g
         transform="matrix(-1,0.0341113,0.0341113,1,0,577.70056)"
         id="g895"><path
           inkscape:connector-curvature="0"
           id="path897"
           style="fill:#000000;fill-opacity:1;fill-rule:evenodd;stroke:#000000;stroke-width:0.399767;stroke-linecap:butt;stroke-linejoin:miter;stroke-miterlimit:4;stroke-dasharray:none;stroke-opacity:1"
           d="m -280.943,-125.217 1.601,-1.602 -5.597,1.601 5.597,1.598 z" /></g><g
         transform="matrix(1,0,0,-1,0,577.70056)"
         id="g899"><path
           inkscape:connector-curvature="0"
           id="path901"
           style="fill:none;stroke:#000000;stroke-width:0.8;stroke-linecap:butt;stroke-linejoin:miter;stroke-miterlimit:4;stroke-dasharray:2.4, 0.8;stroke-dashoffset:0;stroke-opacity:1"
           d="m 131.133,221.562 -5.285,56.141" /></g><g
         transform="matrix(0.0941477,1,1,-0.0941477,0,577.70056)"
         id="g903"><path
           inkscape:connector-curvature="0"
           id="path905"
           style="fill:#000000;fill-opacity:1;fill-rule:evenodd;stroke:#000000;stroke-width:0.398239;stroke-linecap:butt;stroke-linejoin:miter;stroke-miterlimit:4;stroke-dasharray:none;stroke-opacity:1"
           d="m -260.332,150.658 1.593,-1.591 -5.577,1.591 5.576,1.592 z" /></g><text
         id="text911"
         style="font-variant:normal;font-weight:normal;font-size:20px;font-family:Arial;-inkscape-font-specification:ArialMT;writing-mode:lr-tb;fill:#000000;fill-opacity:1;fill-rule:nonzero;stroke:none"
         transform="matrix(1,0,0,-1,-0.722656,563.14001)"><tspan
           id="tspan907"
           sodipodi:role="line"
           y="0"
           x="0 11.12 17.780001 22.24 35.560001 42.220001 58.939999 64.480003 75.599998 86.720001 93.379997 104.5 121.22 132.34 137.88 149 155.66">a) Arm parameters</tspan><tspan
           id="tspan909"
           sodipodi:role="line"
           y="0.571428"
           x="305.14285 316.26285 322.92285 328.46286 341.78287 352.90286 357.40286 361.84286 371.84286">b) Policy</tspan></text><path
         inkscape:connector-curvature="0"
         id="path913"
         style="fill:#9dc7e3;fill-opacity:1;fill-rule:evenodd;stroke:none"
         d="m 464.422,440.04 -69.43,72.856 c 0,0 41.926,26.531 73.602,21.973 24.902,-3.586 64.949,-21.645 80.004,-41.805 11.023,-14.766 14.894,-56.598 14.894,-56.598 z" /><g
         transform="matrix(1,0,0,-1,0,577.70056)"
         id="g915"><path
           inkscape:connector-curvature="0"
           id="path917"
           style="fill:none;stroke:#000000;stroke-width:1.2;stroke-linecap:butt;stroke-linejoin:miter;stroke-miterlimit:4;stroke-dasharray:none;stroke-opacity:1"
           d="M 463.656,137.551 394.496,64.59" /></g><g
         transform="matrix(1,0,0,-1,0,577.70056)"
         id="g919"><path
           inkscape:connector-curvature="0"
           id="path921"
           style="fill:none;stroke:#000000;stroke-width:1.2;stroke-linecap:butt;stroke-linejoin:miter;stroke-miterlimit:4;stroke-dasharray:none;stroke-opacity:1"
           d="m 463.719,137.766 99.957,3.406" /></g><g
         transform="matrix(1,0,0,-1,0,577.70056)"
         id="g923"><path
           inkscape:connector-curvature="0"
           id="path925"
           style="fill:none;stroke:#000000;stroke-width:1.2;stroke-linecap:butt;stroke-linejoin:miter;stroke-miterlimit:4;stroke-dasharray:none;stroke-opacity:1"
           d="m 463.859,137.539 -9.386,99.734" /></g><text
         id="text937"
         style="font-variant:normal;font-weight:normal;font-size:20px;font-family:Arial;-inkscape-font-specification:ArialMT;writing-mode:lr-tb;fill:#000000;fill-opacity:1;fill-rule:nonzero;stroke:none"
         transform="matrix(1,0,0,-1,493.65428,537.99301)"><tspan
           id="tspan927"
           sodipodi:role="line"
           y="0"
           x="0 13.32 19.98 36.700001 42.240002">Arm 1</tspan><tspan
           id="tspan929"
           sodipodi:role="line"
           y="135.60471"
           x="-185.85362 -172.53362 -165.87363 -149.15363 -143.61362">Arm 3</tspan><tspan
           id="tspan931"
           sodipodi:role="line"
           y="189.87068"
           x="42.636959 55.956959 62.616959 79.33696 84.876961">Arm 2</tspan><tspan
           id="tspan933"
           sodipodi:role="line"
           y="261.37747"
           x="-492.61032 -482.61032 -475.95032 -471.49033 -458.17032 -451.51031 -434.79031 -429.25031 -418.13031 -407.01031 -400.35031 -389.23032 -372.51031 -361.39032 -355.85031 -344.73032 -338.07031 -332.53033 -321.41031 -310.29031 -300.29031 -289.17032 -282.45032 -276.91031 -265.79031 -261.35031 -250.23032 -244.69032">c) Arm parameter uncertainty</tspan><tspan
           id="tspan935"
           sodipodi:role="line"
           y="261.94888"
           x="-187.46748 -176.34747 -164.10748 -150.78748 -139.66748 -135.22748 -130.78748 -120.78748 -110.78748 -105.24748 -94.12748 -82.947479 -72.947479 -61.82748 -55.16748 -49.62748 -38.507481 -34.067478 -22.947479 -17.40748">d)Policy uncertainty</tspan></text><g
         transform="matrix(1,0,0,-1,0,577.70056)"
         id="g939"><path
           inkscape:connector-curvature="0"
           id="path941"
           style="fill:none;stroke:#000000;stroke-width:1.6;stroke-linecap:butt;stroke-linejoin:miter;stroke-miterlimit:4;stroke-dasharray:none;stroke-opacity:1"
           d="m 224.82,365.168 -63.773,110.496 56.359,77.863" /></g><path
         inkscape:connector-curvature="0"
         id="path943"
         style="fill:#000000;fill-opacity:1;fill-rule:evenodd;stroke:none"
         d="m 244.152,211.806 v 0.18 l -0.004,0.195 -0.011,0.207 -0.012,0.215 -0.02,0.226 -0.023,0.223 -0.02,0.238 -0.035,0.235 -0.043,0.242 -0.039,0.25 -0.05,0.242 -0.059,0.246 -0.141,0.485 -0.078,0.238 -0.094,0.234 -0.097,0.231 -0.102,0.222 -0.117,0.211 -0.129,0.207 -0.129,0.2 -0.144,0.183 -0.164,0.172 -0.168,0.156 -0.176,0.145 -0.094,0.07 -0.098,0.055 -0.097,0.058 -0.106,0.059 -0.101,0.047 -0.11,0.047 -0.109,0.039 -0.117,0.035 -0.121,0.027 -0.121,0.032 -0.125,0.015 -0.129,0.012 -0.133,0.012 h -0.133 l -0.027,-0.629 c 1.406,0 1.574,-1.84 1.574,-3.477 0,-1.41 -0.227,-2.879 -0.918,-5.722 h -6.004 c 0.488,1.843 1.067,4.14 2.207,6.183 0.785,1.399 1.844,3.016 3.141,3.016 l 0.027,0.629 c -3.992,0 -8.422,-8.098 -8.422,-14.68 0,-2.707 0.832,-5.895 3.457,-5.895 v 0.633 c -0.957,0 -1.562,0.836 -1.562,3.504 0,1.211 0.172,2.875 0.922,5.688 h 5.98 c -0.312,-1.317 -0.918,-3.758 -2.019,-5.832 -0.997,-1.957 -2.086,-3.36 -3.321,-3.36 v -0.633 c 4.043,0 8.414,8.247 8.414,14.684 z" /><path
         inkscape:connector-curvature="0"
         id="path945"
         style="fill:#000000;fill-opacity:1;fill-rule:evenodd;stroke:none"
         d="m 252.137,220.603 v 0.18 l -0.008,0.023 v 0.066 l -0.004,0.02 v 0.027 l -0.008,0.02 v 0.012 l -0.004,0.011 v 0.016 l -0.011,0.023 -0.008,0.024 -0.012,0.015 -0.012,0.02 -0.008,0.016 -0.011,0.019 -0.02,0.012 -0.015,0.008 -0.02,0.007 -0.023,0.012 -0.024,0.004 -0.027,0.008 -0.012,0.004 h -0.012 l -0.015,0.008 h -0.031 l -0.016,0.003 h -0.074 l -0.02,0.008 h -0.211 c -1.289,-1.269 -3.109,-1.285 -3.933,-1.285 v -0.723 c 0.484,0 1.808,0 2.906,0.555 V 209.47 c 0,-0.668 0,-0.926 -2.008,-0.926 h -0.754 v -0.722 c 0.356,0.015 2.824,0.082 3.574,0.082 0.625,0 3.157,-0.067 3.594,-0.082 v 0.722 h -0.762 c -2.011,0 -2.011,0.258 -2.011,0.926 z" /><g
         transform="matrix(1,0,0,-1,0,577.70056)"
         id="g947"><path
           inkscape:connector-curvature="0"
           id="path949"
           style="fill:none;stroke:#000000;stroke-width:1.6;stroke-linecap:butt;stroke-linejoin:miter;stroke-miterlimit:4;stroke-dasharray:none;stroke-opacity:1"
           d="M 43.34,537.121 160.77,475.57" /></g><path
         inkscape:connector-curvature="0"
         id="path951"
         style="fill:#000000;fill-opacity:1;fill-rule:evenodd;stroke:none"
         d="m 237.77,33.044 v 0.18 l -0.008,0.195 -0.012,0.207 -0.012,0.215 -0.015,0.227 -0.024,0.222 -0.023,0.239 -0.035,0.234 -0.039,0.242 -0.043,0.25 -0.051,0.242 -0.059,0.247 -0.066,0.242 -0.071,0.242 -0.082,0.238 -0.089,0.235 -0.102,0.23 -0.101,0.223 -0.118,0.211 -0.125,0.207 -0.133,0.199 -0.144,0.183 -0.16,0.172 -0.168,0.157 -0.18,0.144 -0.094,0.07 -0.097,0.055 -0.098,0.059 -0.101,0.058 -0.106,0.047 -0.219,0.086 -0.117,0.035 -0.242,0.055 -0.125,0.019 -0.129,0.012 -0.133,0.012 h -0.129 l -0.031,-0.629 c 1.406,0 1.574,-1.84 1.574,-3.48 0,-1.407 -0.222,-2.875 -0.918,-5.719 h -6.004 c 0.493,1.844 1.071,4.14 2.211,6.183 0.786,1.399 1.84,3.016 3.137,3.016 l 0.031,0.629 c -3.992,0 -8.422,-8.098 -8.422,-14.68 0,-2.707 0.829,-5.894 3.454,-5.894 v 0.633 c -0.957,0 -1.563,0.835 -1.563,3.5 0,1.214 0.172,2.878 0.922,5.687 h 5.98 c -0.308,-1.312 -0.914,-3.754 -2.015,-5.828 -1,-1.957 -2.09,-3.359 -3.324,-3.359 v -0.633 c 4.043,0 8.418,8.246 8.418,14.683 z" /><path
         inkscape:connector-curvature="0"
         id="path953"
         style="fill:#000000;fill-opacity:1;fill-rule:evenodd;stroke:none"
         d="m 249.164,32.716 h -0.68 c -0.058,-0.437 -0.265,-1.633 -0.523,-1.828 -0.156,-0.117 -1.703,-0.117 -1.984,-0.117 h -3.704 c 2.11,1.863 2.813,2.426 4.02,3.371 1.488,1.187 2.871,2.434 2.871,4.344 0,2.433 -2.121,3.922 -4.699,3.922 -2.492,0 -4.184,-1.75 -4.184,-3.594 0,-1.035 0.867,-1.133 1.074,-1.133 0.473,0 1.063,0.348 1.063,1.07 0,0.356 -0.145,1.059 -1.191,1.059 0.625,1.426 1.992,1.863 2.937,1.863 2.012,0 3.059,-1.558 3.059,-3.187 0,-1.75 -1.246,-3.133 -1.895,-3.856 l -4.84,-4.785 c -0.207,-0.18 -0.207,-0.226 -0.207,-0.785 h 8.285 z" /><path
         inkscape:connector-curvature="0"
         id="path955"
         style="fill:#000000;fill-opacity:1;fill-rule:evenodd;stroke:none"
         d="m 49.219,26.247 v 0.18 l -0.004,0.195 -0.024,0.422 -0.019,0.227 -0.024,0.223 -0.023,0.238 -0.031,0.234 -0.043,0.246 -0.039,0.246 -0.051,0.243 -0.059,0.25 -0.14,0.484 -0.078,0.234 -0.094,0.239 -0.098,0.23 -0.105,0.219 -0.114,0.211 -0.128,0.211 -0.133,0.195 -0.141,0.184 -0.164,0.171 -0.168,0.157 -0.176,0.144 -0.093,0.071 -0.098,0.058 -0.098,0.055 -0.105,0.058 -0.102,0.047 -0.109,0.047 -0.113,0.039 -0.114,0.035 -0.121,0.028 -0.121,0.031 -0.129,0.016 -0.125,0.011 -0.133,0.012 H 45.77 l -0.028,-0.629 c 1.406,0 1.574,-1.84 1.574,-3.476 0,-1.411 -0.226,-2.879 -0.918,-5.723 h -6.003 c 0.488,1.844 1.066,4.141 2.207,6.184 0.785,1.402 1.839,3.015 3.14,3.015 l 0.028,0.629 c -3.993,0 -8.422,-8.098 -8.422,-14.68 0,-2.703 0.832,-5.894 3.457,-5.894 v 0.633 c -0.957,0 -1.563,0.839 -1.563,3.504 0,1.21 0.172,2.878 0.922,5.687 h 5.981 c -0.313,-1.316 -0.918,-3.758 -2.02,-5.832 -0.996,-1.957 -2.086,-3.359 -3.32,-3.359 v -0.633 c 4.043,0 8.414,8.25 8.414,14.683 z" /><path
         inkscape:connector-curvature="0"
         id="path957"
         style="fill:#000000;fill-opacity:1;fill-rule:evenodd;stroke:none"
         d="m 55.961,28.978 0.144,-0.008 0.145,-0.004 0.137,-0.015 0.14,-0.024 0.133,-0.031 0.133,-0.035 0.125,-0.039 0.121,-0.047 0.121,-0.059 0.117,-0.055 0.114,-0.07 0.109,-0.07 0.105,-0.078 0.196,-0.18 0.094,-0.098 0.085,-0.105 0.082,-0.109 0.157,-0.243 0.125,-0.265 0.058,-0.145 0.051,-0.144 0.047,-0.157 0.039,-0.16 0.035,-0.168 0.028,-0.172 0.023,-0.179 0.012,-0.184 0.011,-0.195 0.008,-0.195 c 0,-2.5 -1.453,-3.239 -2.613,-3.239 -0.809,0 -2.578,0.219 -3.422,1.406 0.941,0.036 1.164,0.708 1.164,1.125 0,0.641 -0.484,1.102 -1.105,1.102 -0.559,0 -1.129,-0.344 -1.129,-1.164 0,-1.891 2.094,-3.113 4.527,-3.113 2.789,0 4.723,1.875 4.723,3.883 0,1.566 -1.281,3.136 -3.5,3.589 2.109,0.77 2.879,2.274 2.879,3.504 0,1.586 -1.832,2.774 -4.055,2.774 -2.238,0 -3.941,-1.09 -3.941,-2.696 0,-0.683 0.437,-1.066 1.043,-1.066 0.625,0 1.023,0.461 1.023,1.023 0,0.586 -0.398,1.008 -1.023,1.043 0.703,0.895 2.082,1.106 2.832,1.106 0.902,0 2.168,-0.438 2.168,-2.184 0,-0.847 -0.274,-1.773 -0.801,-2.39 -0.664,-0.766 -1.223,-0.813 -2.231,-0.864 -0.507,-0.047 -0.543,-0.047 -0.64,-0.062 -0.047,0 -0.207,-0.043 -0.207,-0.266 0,-0.277 0.175,-0.277 0.519,-0.277 z" /><path
         inkscape:connector-curvature="0"
         id="path959"
         style="fill:#ead7b6;fill-opacity:1;fill-rule:evenodd;stroke:none"
         d="m 457.281,143.24 95.864,-39.7 c 0,0 2.273,5.36 -4.344,-7.98 C 541.621,81.091 528.52,69.986 515.668,60.204 497,46.818 507.789,50.771 482.453,43.083 Z" /><path
         inkscape:connector-curvature="0"
         id="path961"
         style="fill:#d4acac;fill-opacity:1;fill-rule:evenodd;stroke:none"
         d="m 378.672,207.185 c 0,0 -18.258,-16.031 -18.844,-41.242 -0.59,-25.418 4.445,-66.805 21.36,-85.785 15.269,-17.137 34.714,-22.129 34.714,-22.129 l 40.805,85.355 z" /><path
         inkscape:connector-curvature="0"
         id="path963"
         style="fill:#9dc7e3;fill-opacity:1;fill-rule:evenodd;stroke:none"
         d="m 457.562,143.099 -40.941,87.402 c 0,0 11.418,6.328 45.113,7.426 25.149,0.82 64.95,-21.644 80.004,-41.805 11.028,-14.765 12.168,-34.371 12.168,-34.371 z" /><g
         transform="matrix(1,0,0,-1,0,577.70056)"
         id="g965"><path
           inkscape:connector-curvature="0"
           id="path967"
           style="fill:none;stroke:#000000;stroke-width:1.2;stroke-linecap:butt;stroke-linejoin:miter;stroke-miterlimit:4;stroke-dasharray:none;stroke-opacity:1"
           d="M 456.797,434.488 378.75,370.418" /></g><g
         transform="matrix(1,0,0,-1,0,577.70056)"
         id="g969"><path
           inkscape:connector-curvature="0"
           id="path971"
           style="fill:none;stroke:#000000;stroke-width:1.2;stroke-linecap:butt;stroke-linejoin:miter;stroke-miterlimit:4;stroke-dasharray:none;stroke-opacity:1"
           d="m 456.863,434.703 97.098,-18.875" /></g><g
         transform="matrix(1,0,0,-1,0,577.70056)"
         id="g973"><path
           inkscape:connector-curvature="0"
           id="path975"
           style="fill:none;stroke:#000000;stroke-width:1.2;stroke-linecap:butt;stroke-linejoin:miter;stroke-miterlimit:4;stroke-dasharray:none;stroke-opacity:1"
           d="m 457.004,434.48 -41.391,84.875" /></g><g
         transform="matrix(1,0,0,-1,0,577.70056)"
         id="g977"><path
           inkscape:connector-curvature="0"
           id="path979"
           style="fill:none;stroke:#000000;stroke-width:1.2;stroke-linecap:butt;stroke-linejoin:miter;stroke-miterlimit:4;stroke-dasharray:none;stroke-opacity:1"
           d="M 456.797,434.488 416.328,347.387" /></g><g
         transform="matrix(1,0,0,-1,0,577.70056)"
         id="g981"><path
           inkscape:connector-curvature="0"
           id="path983"
           style="fill:none;stroke:#000000;stroke-width:1.2;stroke-linecap:butt;stroke-linejoin:miter;stroke-miterlimit:4;stroke-dasharray:none;stroke-opacity:1"
           d="m 456.863,434.703 96.555,39.684" /></g><g
         transform="matrix(1,0,0,-1,0,577.70056)"
         id="g985"><path
           inkscape:connector-curvature="0"
           id="path987"
           style="fill:none;stroke:#000000;stroke-width:1.2;stroke-linecap:butt;stroke-linejoin:miter;stroke-miterlimit:4;stroke-dasharray:none;stroke-opacity:1"
           d="m 457.004,434.48 25.469,100.305" /></g><text
         id="text995"
         style="font-variant:normal;font-weight:normal;font-size:20px;font-family:Arial;-inkscape-font-specification:ArialMT;writing-mode:lr-tb;fill:#000000;fill-opacity:1;fill-rule:nonzero;stroke:none"
         transform="matrix(1,0,0,-1,510.2327,226.91153)"><tspan
           id="tspan989"
           sodipodi:role="line"
           y="0"
           x="0 13.32 19.98 36.700001 42.240002">Arm 1</tspan><tspan
           id="tspan991"
           sodipodi:role="line"
           y="119.03818"
           x="-209.28918 -195.96918 -189.30917 -172.58919 -167.04918">Arm 3</tspan><tspan
           id="tspan993"
           sodipodi:role="line"
           y="175.72852"
           x="19.20142 32.52142 39.181419 55.901421 61.441422">Arm 2</tspan></text><path
         inkscape:connector-curvature="0"
         id="path997"
         style="fill:#000000;fill-opacity:1;fill-rule:evenodd;stroke:none"
         d="m 199.02,243.095 v 0.027 l -0.008,0.004 v 0.02 l -0.004,0.008 v 0.004 l -0.004,0.011 -0.008,0.008 v 0.012 l -0.008,0.004 -0.004,0.011 -0.007,0.004 -0.004,0.012 -0.012,0.004 -0.004,0.004 -0.012,0.008 -0.007,0.004 -0.012,0.004 -0.004,0.007 h -0.012 l -0.008,0.004 -0.011,0.004 h -0.016 l -0.012,0.004 h -0.031 l -0.016,0.008 h -0.054 c -0.442,0 -1.051,-0.387 -1.078,-0.387 -0.512,-0.328 -0.614,-0.512 -0.918,-0.941 -0.793,-1.207 -1.918,-2.071 -3.575,-2.071 -2.304,0 -4.375,1.661 -4.375,5.493 0,2.296 0.918,5.343 2.278,7.363 1.117,1.637 2.508,2.965 5.133,2.965 0.972,0 1.585,-0.36 1.585,-1.305 0,-0.898 -0.945,-2.711 -1.257,-3.223 -0.153,-0.281 -0.153,-0.328 -0.153,-0.386 0,-0.172 0.129,-0.172 0.282,-0.172 0.515,0 1.461,0.558 1.765,0.969 0.055,0.101 1.539,2.605 1.539,3.91 0,1.402 -1.156,1.609 -2.078,1.609 -3.703,0 -6.738,-2.426 -7.922,-3.863 -3.035,-3.68 -3.347,-7.637 -3.347,-8.965 0,-3.731 1.894,-5.805 4.859,-5.805 4.113,0 7.52,3.992 7.52,4.633 z" /><path
         inkscape:connector-curvature="0"
         id="path999"
         style="fill:#000000;fill-opacity:1;fill-rule:evenodd;stroke:none"
         d="m 207.281,259.681 v 0.18 l -0.004,0.015 v 0.043 l -0.004,0.016 v 0.027 l -0.007,0.016 v 0.012 l -0.004,0.007 v 0.016 l -0.012,0.02 -0.004,0.023 -0.012,0.016 -0.007,0.011 -0.012,0.016 -0.008,0.016 -0.031,0.023 -0.016,0.004 -0.019,0.012 -0.071,0.011 -0.015,0.008 h -0.024 l -0.015,0.004 h -0.067 l -0.015,0.004 h -0.192 c -1.14,-1.125 -2.762,-1.141 -3.496,-1.141 v -0.644 c 0.43,0 1.609,0 2.586,0.496 v -9.113 c 0,-0.594 0,-0.825 -1.785,-0.825 h -0.672 v -0.64 c 0.316,0.015 2.512,0.07 3.18,0.07 0.554,0 2.804,-0.055 3.195,-0.07 v 0.64 h -0.676 c -1.793,0 -1.793,0.231 -1.793,0.825 z" /><path
         inkscape:connector-curvature="0"
         id="path1001"
         style="fill:#000000;fill-opacity:1;fill-rule:evenodd;stroke:none"
         d="m 204.219,239.802 h 1.82 c 0.336,0 0.57,0 0.57,0.391 0,0.25 -0.234,0.25 -0.531,0.25 h -1.699 l 0.656,2.644 c 0.016,0.086 0.059,0.176 0.059,0.25 0,0.328 -0.246,0.574 -0.614,0.574 -0.445,0 -0.71,-0.304 -0.839,-0.769 -0.118,-0.445 0.113,0.41 -0.676,-2.699 h -1.824 c -0.336,0 -0.567,0 -0.567,-0.395 0,-0.246 0.207,-0.246 0.535,-0.246 h 1.692 l -1.047,-4.215 c -0.113,-0.453 -0.274,-1.093 -0.274,-1.324 0,-1.059 0.899,-1.699 1.915,-1.699 1.984,0 3.109,2.5 3.109,2.73 0,0.235 -0.231,0.235 -0.289,0.235 -0.211,0 -0.231,-0.039 -0.367,-0.336 -0.504,-1.129 -1.418,-2.137 -2.399,-2.137 -0.379,0 -0.625,0.238 -0.625,0.879 0,0.184 0.071,0.559 0.102,0.738 z" /><path
         inkscape:connector-curvature="0"
         id="path1003"
         style="fill:#000000;fill-opacity:1;fill-rule:evenodd;stroke:none"
         d="m 221.625,79.251 v 0.024 l -0.008,0.008 v 0.019 l -0.004,0.004 v 0.008 l -0.004,0.008 -0.007,0.011 v 0.012 l -0.008,0.004 -0.008,0.008 -0.008,0.015 -0.012,0.008 -0.004,0.004 -0.011,0.004 -0.008,0.008 -0.012,0.004 -0.004,0.004 h -0.011 l -0.012,0.007 -0.008,0.004 h -0.016 l -0.011,0.004 h -0.031 l -0.016,0.008 h -0.055 c -0.441,0 -1.051,-0.387 -1.078,-0.387 -0.512,-0.328 -0.613,-0.511 -0.918,-0.945 -0.793,-1.203 -1.918,-2.066 -3.574,-2.066 -2.305,0 -4.375,1.656 -4.375,5.488 0,2.301 0.918,5.348 2.277,7.367 1.117,1.637 2.508,2.965 5.133,2.965 0.969,0 1.586,-0.359 1.586,-1.309 0,-0.898 -0.945,-2.707 -1.258,-3.218 -0.152,-0.286 -0.152,-0.328 -0.152,-0.387 0,-0.176 0.129,-0.176 0.281,-0.176 0.512,0 1.461,0.563 1.766,0.973 0.054,0.101 1.539,2.605 1.539,3.906 0,1.406 -1.156,1.613 -2.078,1.613 -3.704,0 -6.743,-2.429 -7.922,-3.863 -3.035,-3.68 -3.348,-7.641 -3.348,-8.969 0,-3.726 1.891,-5.8 4.856,-5.8 4.117,0 7.523,3.992 7.523,4.632 z" /><path
         inkscape:connector-curvature="0"
         id="path1005"
         style="fill:#000000;fill-opacity:1;fill-rule:evenodd;stroke:none"
         d="m 232.926,87.72 h -0.606 c -0.054,-0.391 -0.238,-1.453 -0.468,-1.625 -0.137,-0.105 -1.512,-0.105 -1.766,-0.105 h -3.293 c 1.879,1.66 2.504,2.156 3.578,2.996 1.32,1.058 2.555,2.168 2.555,3.863 0,2.164 -1.891,3.488 -4.184,3.488 -2.215,0 -3.719,-1.554 -3.719,-3.195 0,-0.918 0.77,-1.004 0.954,-1.004 0.421,0 0.945,0.305 0.945,0.949 0,0.317 -0.129,0.942 -1.055,0.942 0.551,1.269 1.77,1.656 2.61,1.656 1.789,0 2.718,-1.383 2.718,-2.836 0,-1.555 -1.109,-2.785 -1.683,-3.426 l -4.305,-4.258 c -0.184,-0.16 -0.184,-0.199 -0.184,-0.699 h 7.368 z" /><path
         inkscape:connector-curvature="0"
         id="path1007"
         style="fill:#000000;fill-opacity:1;fill-rule:evenodd;stroke:none"
         d="m 226.824,75.958 h 1.821 c 0.335,0 0.57,0 0.57,0.391 0,0.25 -0.235,0.25 -0.531,0.25 h -1.7 l 0.657,2.641 c 0.015,0.089 0.054,0.179 0.054,0.254 0,0.328 -0.246,0.574 -0.609,0.574 -0.445,0 -0.711,-0.305 -0.84,-0.77 -0.117,-0.449 0.113,0.41 -0.68,-2.699 h -1.82 c -0.336,0 -0.57,0 -0.57,-0.395 0,-0.246 0.211,-0.246 0.539,-0.246 h 1.687 l -1.047,-4.218 c -0.109,-0.45 -0.269,-1.09 -0.269,-1.321 0,-1.058 0.898,-1.699 1.914,-1.699 1.984,0 3.109,2.496 3.109,2.731 0,0.234 -0.234,0.234 -0.289,0.234 -0.211,0 -0.23,-0.043 -0.371,-0.34 -0.5,-1.129 -1.414,-2.133 -2.394,-2.133 -0.379,0 -0.625,0.235 -0.625,0.879 0,0.184 0.07,0.559 0.101,0.738 z" /><path
         inkscape:connector-curvature="0"
         id="path1009"
         style="fill:#000000;fill-opacity:1;fill-rule:evenodd;stroke:none"
         d="m 40.781,80.81 v 0.023 l -0.008,0.008 v 0.02 l -0.003,0.004 v 0.004 l -0.004,0.011 -0.008,0.012 V 80.9 l -0.016,0.015 -0.008,0.016 -0.011,0.008 -0.004,0.004 -0.012,0.004 -0.008,0.004 -0.011,0.007 -0.004,0.004 h -0.012 l -0.012,0.004 -0.008,0.008 h -0.015 l -0.012,0.004 h -0.031 l -0.016,0.004 h -0.055 c -0.441,0 -1.05,-0.383 -1.078,-0.383 -0.511,-0.328 -0.613,-0.512 -0.918,-0.945 -0.793,-1.203 -1.918,-2.067 -3.574,-2.067 -2.305,0 -4.375,1.657 -4.375,5.489 0,2.296 0.918,5.343 2.277,7.367 1.118,1.636 2.508,2.965 5.133,2.965 0.969,0 1.586,-0.36 1.586,-1.309 0,-0.898 -0.945,-2.707 -1.258,-3.223 -0.152,-0.281 -0.152,-0.328 -0.152,-0.382 0,-0.176 0.129,-0.176 0.281,-0.176 0.512,0 1.461,0.558 1.766,0.968 0.055,0.106 1.539,2.61 1.539,3.911 0,1.406 -1.156,1.609 -2.078,1.609 -3.703,0 -6.742,-2.426 -7.922,-3.859 -3.035,-3.68 -3.348,-7.641 -3.348,-8.969 0,-3.731 1.891,-5.801 4.856,-5.801 4.117,0 7.523,3.992 7.523,4.633 z" /><path
         inkscape:connector-curvature="0"
         id="path1011"
         style="fill:#000000;fill-opacity:1;fill-rule:evenodd;stroke:none"
         d="m 47.941,91.997 0.129,-0.007 0.125,-0.004 0.125,-0.016 0.121,-0.019 0.121,-0.028 0.118,-0.027 0.113,-0.039 0.105,-0.039 0.11,-0.051 0.101,-0.051 0.102,-0.062 0.098,-0.063 0.093,-0.07 0.086,-0.078 0.09,-0.082 0.082,-0.086 0.074,-0.094 0.075,-0.098 0.07,-0.109 0.066,-0.105 0.059,-0.118 0.055,-0.121 0.05,-0.125 0.047,-0.129 0.043,-0.14 0.035,-0.141 0.032,-0.152 0.023,-0.153 0.023,-0.16 0.008,-0.164 0.012,-0.172 0.004,-0.175 c 0,-2.223 -1.293,-2.879 -2.324,-2.879 -0.711,0 -2.293,0.195 -3.043,1.254 0.84,0.031 1.039,0.625 1.039,1 0,0.57 -0.434,0.98 -0.985,0.98 -0.5,0 -1.007,-0.309 -1.007,-1.039 0,-1.68 1.863,-2.77 4.027,-2.77 2.484,0 4.203,1.668 4.203,3.454 0,1.394 -1.141,2.789 -3.117,3.195 1.879,0.683 2.562,2.023 2.562,3.113 0,1.41 -1.629,2.469 -3.605,2.469 -1.992,0 -3.504,-0.969 -3.504,-2.395 0,-0.613 0.387,-0.949 0.926,-0.949 0.554,0 0.91,0.41 0.91,0.906 0,0.524 -0.356,0.899 -0.91,0.93 0.629,0.793 1.851,0.984 2.519,0.984 0.801,0 1.93,-0.39 1.93,-1.945 0,-0.754 -0.246,-1.574 -0.715,-2.121 -0.59,-0.684 -1.086,-0.727 -1.984,-0.77 -0.449,-0.042 -0.481,-0.042 -0.57,-0.058 -0.04,0 -0.184,-0.035 -0.184,-0.234 0,-0.247 0.16,-0.247 0.461,-0.247 z" /><path
         inkscape:connector-curvature="0"
         id="path1013"
         style="fill:#000000;fill-opacity:1;fill-rule:evenodd;stroke:none"
         d="m 45.98,77.517 h 1.821 c 0.336,0 0.57,0 0.57,0.387 0,0.254 -0.234,0.254 -0.531,0.254 h -1.699 l 0.656,2.64 c 0.015,0.086 0.055,0.18 0.055,0.25 0,0.328 -0.247,0.574 -0.61,0.574 -0.445,0 -0.711,-0.3 -0.84,-0.769 -0.117,-0.445 0.114,0.414 -0.679,-2.695 h -1.821 c -0.336,0 -0.57,0 -0.57,-0.395 0,-0.246 0.211,-0.246 0.539,-0.246 h 1.688 l -1.043,-4.219 c -0.114,-0.449 -0.274,-1.094 -0.274,-1.324 0,-1.055 0.899,-1.695 1.914,-1.695 1.985,0 3.11,2.496 3.11,2.726 0,0.239 -0.235,0.239 -0.289,0.239 -0.211,0 -0.231,-0.043 -0.372,-0.34 -0.5,-1.129 -1.414,-2.133 -2.394,-2.133 -0.379,0 -0.625,0.234 -0.625,0.875 0,0.187 0.07,0.558 0.102,0.738 z" /><g
         transform="matrix(1,0,0,-1,0,577.70056)"
         id="g1015"><path
           inkscape:connector-curvature="0"
           id="path1017"
           style="fill:#ff6600;fill-opacity:1;fill-rule:evenodd;stroke:#ff6600;stroke-width:2.4;stroke-linecap:butt;stroke-linejoin:miter;stroke-miterlimit:4;stroke-dasharray:2.4, 2.4;stroke-dashoffset:0;stroke-opacity:1"
           d="m 457.398,434.664 3.836,-95.156" /></g><g
         transform="matrix(1,0,0,-1,0,577.70056)"
         id="g1019"><path
           inkscape:connector-curvature="0"
           id="path1021"
           style="fill:#ff6600;fill-opacity:1;fill-rule:evenodd;stroke:#ff6600;stroke-width:2.4;stroke-linecap:butt;stroke-linejoin:miter;stroke-miterlimit:4;stroke-dasharray:2.4, 2.4;stroke-dashoffset:0;stroke-opacity:1"
           d="M 457.398,434.664 417.395,345.973" /></g><g
         transform="matrix(1,0,0,-1,0,577.70056)"
         id="g1023"><path
           inkscape:connector-curvature="0"
           id="path1025"
           style="fill:none;stroke:#000000;stroke-width:1.6;stroke-linecap:butt;stroke-linejoin:miter;stroke-miterlimit:4;stroke-dasharray:none;stroke-opacity:1"
           d="m 461.293,339.328 -42.711,6.274" /></g><g
         transform="matrix(1,0.146879,0.146879,-1,0,577.70056)"
         id="g1027"><path
           inkscape:connector-curvature="0"
           id="path1029"
           style="fill:#000000;fill-opacity:1;fill-rule:evenodd;stroke:#000000;stroke-width:0.791508;stroke-linecap:butt;stroke-linejoin:miter;stroke-miterlimit:4;stroke-dasharray:none;stroke-opacity:1"
           d="m 366.385,398.486 3.164,-3.168 -11.078,3.166 11.078,3.166 z" /></g><path
         inkscape:connector-curvature="0"
         id="path1031"
         style="fill:#000000;fill-opacity:1;fill-rule:evenodd;stroke:none"
         d="m 469.121,259.111 v 0.015 l 0.004,0.012 0.008,0.016 0.004,0.019 0.004,0.016 0.023,0.117 0.004,0.016 0.004,0.019 v 0.035 l 0.004,0.012 v 0.008 c 0,0.191 -0.137,0.211 -0.231,0.211 -0.191,0 -0.207,-0.043 -0.289,-0.383 l -3.16,-12.605 c -1.445,0.175 -2.172,0.882 -2.172,2.14 0,0.379 0,0.871 1.028,3.547 0.082,0.227 0.21,0.551 0.21,0.934 0,0.851 -0.605,1.558 -1.562,1.558 -1.816,0 -2.52,-2.762 -2.52,-2.937 0,-0.192 0.192,-0.192 0.235,-0.192 0.191,0 0.207,0.043 0.301,0.352 0.519,1.808 1.273,2.359 1.925,2.359 0.153,0 0.477,0 0.477,-0.609 0,-0.496 -0.191,-0.969 -0.438,-1.637 -0.914,-2.406 -0.914,-2.902 -0.914,-3.226 0,-1.809 1.489,-2.594 3.317,-2.704 -0.156,-0.687 -0.156,-0.722 -0.418,-1.738 -0.059,-0.207 -0.442,-1.75 -0.442,-1.808 0,-0.02 0,-0.192 0.231,-0.192 0.035,0 0.133,0 0.168,0.074 0.058,0.039 0.172,0.52 0.234,0.786 l 0.723,2.839 c 0.707,0 2.383,0 4.172,2.039 0.785,0.879 1.187,1.715 1.394,2.29 0.176,0.472 0.59,2.132 0.59,2.972 0,1.07 -0.512,1.332 -0.84,1.332 -0.476,0 -0.953,-0.496 -0.953,-0.914 0,-0.246 0.113,-0.359 0.285,-0.515 0.211,-0.211 0.692,-0.704 0.692,-1.618 0,-1.218 -0.992,-2.781 -1.66,-3.468 -1.676,-1.696 -2.899,-1.696 -3.582,-1.696 z" /><path
         inkscape:connector-curvature="0"
         id="path1033"
         style="fill:#000000;fill-opacity:1;fill-rule:evenodd;stroke:none"
         d="m 477.48,261.744 v 0.117 l -0.003,0.015 v 0.047 l -0.004,0.008 v 0.02 l -0.004,0.011 v 0.008 l -0.004,0.008 v 0.012 l -0.008,0.015 -0.004,0.016 -0.031,0.047 -0.008,0.008 -0.012,0.007 -0.015,0.004 -0.012,0.008 -0.016,0.004 -0.039,0.008 -0.008,0.004 h -0.019 l -0.012,0.004 h -0.047 l -0.011,0.004 h -0.145 c -0.851,-0.844 -2.062,-0.856 -2.609,-0.856 v -0.477 c 0.324,0 1.203,0 1.929,0.368 v -6.797 c 0,-0.446 0,-0.617 -1.332,-0.617 h -0.5 v -0.477 c 0.239,0.012 1.875,0.055 2.372,0.055 0.414,0 2.093,-0.043 2.382,-0.055 v 0.477 h -0.504 c -1.336,0 -1.336,0.171 -1.336,0.617 z" /><path
         inkscape:connector-curvature="0"
         id="path1035"
         style="fill:#000000;fill-opacity:1;fill-rule:evenodd;stroke:none"
         d="m 484.23,257.716 0.098,-0.004 0.094,-0.004 0.094,-0.011 0.089,-0.016 0.09,-0.02 0.172,-0.046 0.082,-0.032 0.082,-0.039 0.074,-0.039 0.079,-0.047 0.07,-0.043 0.07,-0.054 0.133,-0.117 0.059,-0.067 0.058,-0.07 0.055,-0.071 0.051,-0.082 0.047,-0.078 0.046,-0.09 0.043,-0.085 0.036,-0.098 0.035,-0.094 0.031,-0.105 0.023,-0.106 0.024,-0.113 0.019,-0.113 0.016,-0.118 0.012,-0.125 0.004,-0.128 v -0.129 c 0,-1.661 -0.957,-2.149 -1.731,-2.149 -0.531,0 -1.711,0.145 -2.265,0.934 0.625,0.023 0.773,0.469 0.773,0.746 0,0.426 -0.328,0.73 -0.738,0.73 -0.367,0 -0.746,-0.23 -0.746,-0.773 0,-1.254 1.386,-2.066 3,-2.066 1.855,0 3.132,1.246 3.132,2.578 0,1.039 -0.851,2.078 -2.32,2.382 1.402,0.508 1.906,1.508 1.906,2.321 0,1.054 -1.211,1.844 -2.691,1.844 -1.481,0 -2.613,-0.727 -2.613,-1.79 0,-0.453 0.297,-0.707 0.699,-0.707 0.414,0 0.672,0.305 0.672,0.676 0,0.391 -0.258,0.672 -0.672,0.696 0.465,0.589 1.379,0.734 1.875,0.734 0.598,0 1.441,-0.293 1.441,-1.453 0,-0.563 -0.187,-1.172 -0.531,-1.582 -0.445,-0.508 -0.816,-0.539 -1.484,-0.574 -0.332,-0.032 -0.356,-0.032 -0.426,-0.043 -0.027,0 -0.137,-0.028 -0.137,-0.176 0,-0.184 0.121,-0.184 0.348,-0.184 z" /><path
         inkscape:connector-curvature="0"
         id="path1037"
         style="fill:#000000;fill-opacity:1;fill-rule:evenodd;stroke:none"
         d="m 475.609,246.915 h 1.36 c 0.25,0 0.426,0 0.426,0.289 0,0.188 -0.176,0.188 -0.399,0.188 h -1.266 l 0.489,1.973 c 0.011,0.062 0.043,0.132 0.043,0.187 0,0.242 -0.184,0.426 -0.453,0.426 -0.336,0 -0.536,-0.223 -0.629,-0.57 -0.09,-0.336 0.082,0.304 -0.508,-2.016 h -1.36 c -0.25,0 -0.421,0 -0.421,-0.293 0,-0.184 0.156,-0.184 0.402,-0.184 h 1.258 l -0.781,-3.144 c -0.082,-0.336 -0.204,-0.817 -0.204,-0.988 0,-0.789 0.672,-1.266 1.426,-1.266 1.488,0 2.32,1.863 2.32,2.035 0,0.176 -0.171,0.176 -0.214,0.176 -0.157,0 -0.172,-0.031 -0.274,-0.254 -0.375,-0.84 -1.058,-1.59 -1.789,-1.59 -0.277,0 -0.465,0.176 -0.465,0.652 0,0.141 0.051,0.418 0.075,0.551 z" /><path
         inkscape:connector-curvature="0"
         id="path1039"
         style="fill:#000000;fill-opacity:1;fill-rule:evenodd;stroke:none"
         d="m 399.285,256.708 v 0.016 l 0.004,0.016 0.008,0.015 0.004,0.02 0.008,0.031 0.027,0.137 v 0.035 l 0.004,0.008 v 0.008 c 0,0.191 -0.133,0.21 -0.231,0.21 -0.191,0 -0.203,-0.039 -0.285,-0.382 l -3.16,-12.602 c -1.445,0.172 -2.172,0.879 -2.172,2.137 0,0.379 0,0.875 1.028,3.547 0.082,0.226 0.21,0.55 0.21,0.933 0,0.856 -0.609,1.559 -1.566,1.559 -1.812,0 -2.516,-2.758 -2.516,-2.934 0,-0.191 0.192,-0.191 0.231,-0.191 0.191,0 0.207,0.043 0.305,0.348 0.515,1.808 1.273,2.359 1.925,2.359 0.153,0 0.477,0 0.477,-0.606 0,-0.5 -0.191,-0.968 -0.441,-1.64 -0.915,-2.406 -0.915,-2.899 -0.915,-3.223 0,-1.812 1.489,-2.598 3.321,-2.707 -0.16,-0.683 -0.16,-0.723 -0.418,-1.738 -0.063,-0.207 -0.445,-1.746 -0.445,-1.809 0,-0.019 0,-0.191 0.234,-0.191 0.035,0 0.129,0 0.168,0.078 0.058,0.035 0.172,0.516 0.234,0.781 l 0.723,2.84 c 0.703,0 2.379,0 4.172,2.039 0.781,0.883 1.183,1.715 1.39,2.289 0.176,0.477 0.594,2.137 0.594,2.973 0,1.07 -0.512,1.332 -0.844,1.332 -0.472,0 -0.953,-0.492 -0.953,-0.914 0,-0.246 0.117,-0.356 0.289,-0.512 0.211,-0.211 0.688,-0.707 0.688,-1.621 0,-1.219 -0.988,-2.781 -1.66,-3.469 -1.676,-1.695 -2.895,-1.695 -3.582,-1.695 z" /><path
         inkscape:connector-curvature="0"
         id="path1041"
         style="fill:#000000;fill-opacity:1;fill-rule:evenodd;stroke:none"
         d="m 407.648,259.341 v 0.117 l -0.003,0.016 v 0.047 l -0.004,0.012 v 0.019 l -0.004,0.012 v 0.008 l -0.004,0.007 v 0.012 l -0.008,0.012 -0.004,0.016 -0.031,0.046 -0.024,0.016 -0.015,0.004 -0.012,0.008 -0.016,0.004 -0.019,0.004 -0.016,0.003 -0.008,0.004 h -0.019 l -0.012,0.004 h -0.051 l -0.011,0.004 h -0.141 c -0.855,-0.844 -2.062,-0.855 -2.609,-0.855 v -0.477 c 0.32,0 1.199,0 1.929,0.367 v -6.797 c 0,-0.441 0,-0.613 -1.332,-0.613 h -0.504 v -0.48 c 0.239,0.011 1.875,0.054 2.375,0.054 0.411,0 2.09,-0.043 2.383,-0.054 v 0.48 h -0.504 c -1.336,0 -1.336,0.172 -1.336,0.613 z" /><path
         inkscape:connector-curvature="0"
         id="path1043"
         style="fill:#000000;fill-opacity:1;fill-rule:evenodd;stroke:none"
         d="m 414.398,255.314 0.094,-0.004 0.098,-0.004 0.09,-0.008 0.093,-0.015 0.086,-0.02 0.09,-0.023 0.082,-0.028 0.086,-0.031 0.078,-0.039 0.078,-0.035 0.079,-0.047 0.066,-0.047 0.074,-0.055 0.063,-0.054 0.066,-0.063 0.063,-0.066 0.054,-0.067 0.055,-0.074 0.055,-0.078 0.047,-0.082 0.043,-0.09 0.042,-0.086 0.04,-0.097 0.035,-0.094 0.031,-0.106 0.019,-0.105 0.024,-0.11 0.019,-0.117 0.016,-0.117 0.012,-0.121 0.008,-0.133 v -0.129 c 0,-1.656 -0.961,-2.148 -1.735,-2.148 -0.531,0 -1.711,0.148 -2.265,0.933 0.625,0.024 0.773,0.469 0.773,0.747 0,0.425 -0.324,0.734 -0.738,0.734 -0.367,0 -0.746,-0.231 -0.746,-0.774 0,-1.257 1.39,-2.066 3,-2.066 1.855,0 3.132,1.242 3.132,2.574 0,1.039 -0.847,2.082 -2.316,2.383 1.399,0.508 1.906,1.508 1.906,2.324 0,1.051 -1.215,1.84 -2.691,1.84 -1.481,0 -2.613,-0.722 -2.613,-1.789 0,-0.453 0.293,-0.707 0.695,-0.707 0.414,0 0.676,0.309 0.676,0.68 0,0.39 -0.262,0.668 -0.676,0.691 0.469,0.594 1.383,0.735 1.875,0.735 0.601,0 1.445,-0.29 1.445,-1.45 0,-0.562 -0.187,-1.175 -0.535,-1.586 -0.441,-0.507 -0.812,-0.539 -1.484,-0.574 -0.332,-0.031 -0.356,-0.031 -0.422,-0.039 -0.027,0 -0.141,-0.027 -0.141,-0.18 0,-0.183 0.125,-0.183 0.348,-0.183 z" /><path
         inkscape:connector-curvature="0"
         id="path1045"
         style="fill:#000000;fill-opacity:1;fill-rule:evenodd;stroke:none"
         d="m 405.777,244.513 h 1.356 c 0.25,0 0.426,0 0.426,0.293 0,0.188 -0.176,0.188 -0.399,0.188 h -1.265 l 0.488,1.968 c 0.012,0.067 0.043,0.133 0.043,0.188 0,0.246 -0.184,0.429 -0.449,0.429 -0.34,0 -0.536,-0.226 -0.629,-0.574 -0.09,-0.332 0.082,0.305 -0.508,-2.011 h -1.36 c -0.253,0 -0.425,0 -0.425,-0.297 0,-0.184 0.156,-0.184 0.402,-0.184 h 1.258 l -0.777,-3.144 c -0.086,-0.336 -0.204,-0.817 -0.204,-0.989 0,-0.785 0.668,-1.265 1.426,-1.265 1.485,0 2.32,1.863 2.32,2.035 0,0.176 -0.171,0.176 -0.214,0.176 -0.157,0 -0.172,-0.032 -0.278,-0.25 -0.375,-0.844 -1.054,-1.594 -1.785,-1.594 -0.281,0 -0.469,0.176 -0.469,0.656 0,0.137 0.055,0.414 0.078,0.551 z" /><path
         inkscape:connector-curvature="0"
         id="path1047"
         style="fill:#000000;fill-opacity:1;fill-rule:evenodd;stroke:none"
         d="m 414.41,242.255 h 4.078 c 0.172,0 0.489,0 0.489,0.328 0,0.328 -0.305,0.328 -0.489,0.328 h -4.078 v 4.094 c 0,0.172 0,0.489 -0.324,0.489 -0.336,0 -0.336,-0.301 -0.336,-0.489 v -4.094 h -4.086 c -0.176,0 -0.496,0 -0.496,-0.316 0,-0.34 0.305,-0.34 0.496,-0.34 h 4.086 v -4.094 c 0,-0.171 0,-0.488 0.324,-0.488 0.336,0 0.336,0.305 0.336,0.488 z" /><path
         inkscape:connector-curvature="0"
         id="path1049"
         style="fill:#000000;fill-opacity:1;fill-rule:evenodd;stroke:none"
         d="m 424.406,247.724 v 0.117 l -0.004,0.016 v 0.047 l -0.004,0.011 v 0.02 l -0.003,0.012 v 0.007 l -0.004,0.008 v 0.012 l -0.008,0.016 -0.004,0.015 -0.008,0.012 -0.008,0.008 -0.015,0.023 -0.024,0.016 -0.023,0.012 -0.016,0.003 -0.019,0.004 -0.008,0.004 h -0.008 l -0.012,0.004 h -0.019 l -0.012,0.004 h -0.051 l -0.011,0.004 h -0.137 c -0.856,-0.84 -2.067,-0.852 -2.613,-0.852 v -0.48 c 0.32,0 1.203,0 1.929,0.367 v -6.793 c 0,-0.445 0,-0.617 -1.332,-0.617 h -0.5 v -0.48 c 0.235,0.011 1.875,0.054 2.371,0.054 0.414,0 2.094,-0.043 2.383,-0.054 v 0.48 h -0.504 c -1.336,0 -1.336,0.172 -1.336,0.617 z" /></g></g></svg>
